<?xml version="1.0" encoding="utf-8"?>
<!-- Generator: Adobe Illustrator 23.0.3, SVG Export Plug-In . SVG Version: 6.00 Build 0)  -->
<svg version="1.1" id="Layer_1" xmlns="http://www.w3.org/2000/svg" xmlns:xlink="http://www.w3.org/1999/xlink" x="0px" y="0px"
	 viewBox="0 0 100 100" style="enable-background:new 0 0 100 100;" xml:space="preserve">
<g>
	<g>
		<path d="M29.1,41.1c-1-2.1-3.5-3.1-5.6-2.1s-3.1,3.5-2.1,5.6s3.5,3.1,5.6,2.1C29.1,45.7,30.1,43.2,29.1,41.1z M26.4,45.4
			c-1.4,0.6-3,0-3.7-1.3c-0.6-1.4,0-3,1.3-3.7c1.4-0.6,3,0,3.7,1.3C28.4,43.1,27.8,44.7,26.4,45.4z"/>
		<path d="M30.6,52c-2.6,1.2-3.8,4.3-2.6,7c1.2,2.6,4.3,3.8,7,2.6c2.6-1.2,3.8-4.3,2.6-7S33.2,50.8,30.6,52z M34.4,60.2
			c-1.9,0.9-4.1,0.1-5-1.8c-0.9-1.9-0.1-4.1,1.8-5c1.9-0.9,4.1-0.1,5,1.8C37.1,57.1,36.3,59.3,34.4,60.2z"/>
		<path d="M39.1,44.9c-0.7-1.5-2.6-2.2-4.1-1.5c-1.5,0.7-2.2,2.6-1.5,4.1c0.7,1.5,2.6,2.2,4.1,1.5C39.2,48.3,39.8,46.4,39.1,44.9z
			 M37,47.6c-0.8,0.4-1.7,0-2.1-0.8c-0.4-0.8,0-1.7,0.8-2.1c0.8-0.4,1.7,0,2.1,0.8C38.1,46.3,37.8,47.2,37,47.6z"/>
		<path d="M44.3,40.9c2.8-1.3,4.1-4.7,2.8-7.5c-1.3-2.8-4.7-4.1-7.5-2.8s-4.1,4.7-2.8,7.5S41.5,42.2,44.3,40.9z M40.2,32
			c2.1-1,4.6-0.1,5.5,2c1,2.1,0.1,4.6-2,5.5c-2.1,1-4.6,0.1-5.5-2C37.2,35.4,38.1,32.9,40.2,32z"/>
		<path d="M52.2,30.5c1.3-0.6,1.8-2.1,1.2-3.3c-0.6-1.3-2.1-1.8-3.3-1.2c-1.3,0.6-1.8,2.1-1.2,3.3S51,31.1,52.2,30.5z M50.7,27.3
			c0.5-0.2,1.1,0,1.3,0.5c0.2,0.5,0,1.1-0.5,1.3c-0.5,0.2-1.1,0-1.3-0.5S50.2,27.6,50.7,27.3z"/>
		<path d="M68.5,25.5c1.4-0.6,2-2.3,1.4-3.7c-0.6-1.4-2.3-2-3.7-1.4s-2,2.3-1.4,3.7C65.4,25.6,67.1,26.2,68.5,25.5z M66.8,21.8
			c0.6-0.3,1.4,0,1.7,0.6c0.3,0.6,0,1.4-0.6,1.7c-0.6,0.3-1.4,0-1.7-0.6C65.8,22.9,66.1,22.1,66.8,21.8z"/>
		<path d="M69,39c1,2.2,3.6,3.1,5.8,2.1c2.2-1,3.1-3.6,2.1-5.8c-1-2.2-3.6-3.1-5.8-2.1C68.9,34.2,68,36.8,69,39z M71.7,34.6
			c1.4-0.7,3.1,0,3.8,1.4s0,3.1-1.4,3.8s-3.1,0-3.8-1.4C69.7,36.9,70.3,35.3,71.7,34.6z"/>
		<path d="M20.6,50.2c-1.3,0.6-1.8,2.1-1.2,3.3s2.1,1.8,3.3,1.2c1.3-0.6,1.8-2.1,1.2-3.3S21.9,49.6,20.6,50.2z M22.1,53.4
			c-0.5,0.2-1.1,0-1.3-0.5s0-1.1,0.5-1.3c0.5-0.2,1.1,0,1.3,0.5C22.8,52.6,22.6,53.2,22.1,53.4z"/>
		<path d="M67.5,28.3c-1,0.4-1.4,1.6-0.9,2.5s1.6,1.4,2.5,0.9c1-0.4,1.4-1.6,0.9-2.5S68.5,27.8,67.5,28.3z M68.5,30.4
			c-0.2,0.1-0.5,0-0.6-0.2c-0.1-0.2,0-0.5,0.2-0.6s0.5,0,0.6,0.2C68.8,30.1,68.7,30.3,68.5,30.4z"/>
		<path d="M93.3,88.1L80,74.8c2.7-3.7,4.4-8.2,4.4-13.1c0-4.1-1.1-7.9-3.1-11.2c0,0,0,0,0,0c0.2,0,0.4-0.1,0.7-0.2
			c0.1-0.1,0.3-0.1,0.5-0.3c1-0.8,1.1-1.9,0.9-2.5l-0.1-0.2l-2.9-3.3c0.4-0.6,0.8-1.2,1.1-1.9l3.8,2.5l0.3,0.1c0.1,0,0.5,0.1,1,0
			c0.1,0,0.2-0.1,0.4-0.1c0.5-0.2,0.9-0.6,1.1-1.1c0.6-1.2,0.2-2.2-0.1-2.6L88,40.7l-4.5-2.2l0.1-0.2c0.1-0.2,0.1-0.3,0.2-0.5
			l0.4-1.2l4.7,0.9l0.3,0c0.1,0,0.5-0.1,0.9-0.4c0.5-0.4,0.9-1,0.9-1.7c0.2-1.3-0.6-2.1-1.1-2.4l-0.2-0.1l-5-0.3c0-0.2,0-0.5,0-0.7
			l-0.1-0.7c0-0.2,0-0.4-0.1-0.6l4.8-1l0.1-0.1c0.5-0.3,1.3-1.2,0.8-2.6c-0.4-1.3-1.4-1.7-2-1.8l-0.2,0l-4.7,1.7
			c-0.1-0.2-0.1-0.4-0.2-0.5l-0.8-1.7l4.3-2l0.2-0.1c0.1-0.1,0.3-0.3,0.5-0.8c0.1-0.3,0.3-0.9-0.1-1.8c-0.6-1.2-1.7-1.4-2.2-1.4
			l-0.2,0l-4.4,2.5l-0.4-0.6c-0.1-0.2-0.2-0.3-0.3-0.3l-0.5-0.7c0,0,0-0.1-0.1-0.1l3.4-3.4l0.2-0.3c0.1-0.1,0.2-0.4,0.2-1
			c-0.1-0.7-0.4-1.3-0.9-1.7c-0.9-0.8-2-0.7-2.6-0.4l-0.2,0.1l-3,4c-0.4-0.3-0.9-0.5-0.9-0.5l-0.9-0.5l1.8-4.4l0.1-0.3
			c0-0.1,0-0.5-0.2-0.9c-0.2-0.4-0.6-0.9-1.5-1.3c-0.8-0.3-1.4-0.1-1.9,0.1C72.2,9,72,9.3,71.9,9.3l-0.1,0.2l-1.2,4.9
			c-0.2,0-0.4-0.1-0.6-0.1c-0.5-0.1-1-0.3-1.5-0.4l-0.1-4.5L68.3,9c-0.2-0.5-0.9-1.4-2.4-1.3c-0.7,0.1-1.3,0.4-1.7,0.8
			c-0.3,0.4-0.4,0.7-0.4,0.8l-0.1,0.2l0.6,3.9c-0.8,0-1.6,0.1-2.4,0.2l-1.4-2.9l-0.1-0.2c-0.3-0.4-1.3-1-2.5-0.4
			c-1.1,0.5-1.3,1.6-1.3,2.1l0,0.2l1.1,2.4c-0.4,0.2-0.8,0.3-1.2,0.5l-1.1,0.5l-1-2.2l-0.1-0.2c-0.3-0.4-1.3-1-2.5-0.4
			c-1.1,0.5-1.3,1.6-1.3,2.1l0,0.2l1.1,2.4l-2.3,1.1l-1-2.2L48,16.3c-0.3-0.4-1.3-1-2.5-0.4c-1.1,0.5-1.3,1.6-1.3,2.1l0,0.2l1.1,2.4
			L43,21.6l-1-2.2l-0.2-0.2c-0.3-0.4-1.3-1-2.5-0.4c-1.1,0.5-1.3,1.5-1.3,2.1l0,0.2l1.1,2.4l-2.3,1.1l-1-2.2L35.7,22
			c-0.3-0.4-1.3-1-2.5-0.4c-1.1,0.5-1.3,1.6-1.3,2.1l0,0.2l1.1,2.4l-2.3,1.1l-1-2.2l-0.1-0.2c-0.3-0.4-1.3-1-2.5-0.4
			c-1.1,0.5-1.3,1.6-1.3,2.1l0,0.2l1.1,2.4l-2.3,1.1l-1-2.2l-0.1-0.2c-0.3-0.4-1.3-1-2.5-0.4c-1.1,0.5-1.3,1.5-1.3,2.1l0,0.2
			l1.2,2.5c-0.7,0.5-1.4,1-2.1,1.5l-1.7-2.6l-0.2-0.2c-0.4-0.4-1.3-0.6-2.3-0.2c-0.1,0.1-0.3,0.1-0.5,0.3c-1,0.8-1.1,1.9-0.9,2.5
			l0.1,0.2l2.6,3.1c-0.5,0.6-0.9,1.2-1.3,1.9L11,36.4l-0.3-0.1c-0.1,0-0.5-0.1-1,0c-0.1,0-0.2,0.1-0.4,0.1c-0.5,0.2-0.9,0.6-1.1,1.1
			c-0.6,1.2-0.2,2.2,0.1,2.6l0.1,0.2l4.3,2.1c-0.2,0.7-0.4,1.3-0.6,2l-4.6-0.9l-0.3,0c-0.1,0-0.5,0.1-0.9,0.4
			c-0.5,0.4-0.9,1-0.9,1.7c-0.2,1.3,0.6,2.1,1.1,2.4l0.2,0.1l5,0.3c0,0.2,0,0.4,0,0.6c0,0.5,0,1,0.1,1.5l-4.8,1L7,51.6
			c-0.5,0.3-1.3,1.2-0.8,2.6c0.4,1.3,1.4,1.7,2,1.8l0.2,0l4.4-1.6c0.2,0.8,0.5,1.5,0.8,2.1c0,0,0,0.1,0.1,0.1l-3.9,1.8l-0.2,0.2
			c-0.1,0.1-0.3,0.3-0.5,0.8c-0.1,0.3-0.3,0.9,0.1,1.8c0.6,1.2,1.7,1.4,2.2,1.4l0.2,0l4.2-2.4c0.4,0.5,0.9,1.1,1.3,1.6l-3.3,3.4
			l-0.2,0.3c-0.1,0.1-0.2,0.4-0.2,1c0.1,0.7,0.4,1.3,0.9,1.7c0.9,0.8,2,0.7,2.6,0.4l0.2-0.1l3-4c0.2,0.1,0.4,0.3,0.5,0.4
			c0.4,0.3,0.8,0.5,1.2,0.7l-1.7,4.4l-0.1,0.3c0,0.1,0,0.5,0.2,0.9c0.2,0.4,0.6,1,1.5,1.3c0.8,0.3,1.4,0.1,1.9-0.1
			c0.4-0.2,0.7-0.5,0.7-0.6l0.1-0.2l1.1-4.5c0.7,0.2,1.4,0.4,2.1,0.5l0.1,4.2l0.1,0.3c0.2,0.5,0.9,1.4,2.4,1.3
			c0.7-0.1,1.3-0.4,1.7-0.8c0.3-0.4,0.4-0.7,0.4-0.8l0.1-0.2L32,67.7c0.8,0,1.7-0.1,2.5-0.3l1.3,2.8l0.1,0.2c0.3,0.4,1.3,1,2.5,0.4
			c1.1-0.5,1.3-1.6,1.3-2.1l0-0.2l-1.1-2.4c0.2-0.1,0.4-0.2,0.6-0.3l1.5-0.7l0,0c1.7,10.4,10.8,18.4,21.7,18.4
			c4.9,0,9.5-1.6,13.1-4.4l13.3,13.3c0.6,0.6,1.4,0.9,2.2,0.9s1.6-0.3,2.2-0.9C94.5,91.3,94.5,89.3,93.3,88.1z M35.6,62
			c-6.9,2.3-14.4-0.9-17.5-7.6S17.4,40,23.6,36.2l36.5-17c6.9-2.3,14.4,0.9,17.5,7.6c2.7,5.7,1.2,12.4-3.2,16.5l0,0
			c-2.7-1.8-5.8-3-9.1-3.4h0c0.9-1.5,1.1-3.3,0.3-5c-1.2-2.6-4.3-3.8-7-2.6c-2.6,1.2-3.8,4.3-2.6,7c0.2,0.4,0.4,0.7,0.7,1.1
			c0,0,0,0,0,0c-2.6,0.7-4.9,1.8-7,3.3c-1.2-0.7-2.7-0.8-4-0.2c-2.2,1-3.1,3.6-2.1,5.8c0.1,0.2,0.2,0.3,0.3,0.5
			c-1.9,2.9-3.1,6.3-3.4,10L35.6,62z M58.5,40c-0.4-0.3-0.8-0.8-1-1.3c-0.9-1.9-0.1-4.1,1.8-5s4.1-0.1,5,1.8
			c0.7,1.4,0.3,3.1-0.7,4.2c0,0,0,0,0,0c-0.4,0-0.8,0-1.2,0C61.1,39.7,59.8,39.8,58.5,40z M46.4,44.9c0.6-0.3,1.3-0.3,2-0.1
			c-1.3,1.1-2.4,2.3-3.5,3.6C44.5,47,45.1,45.5,46.4,44.9z M62.4,78.9c-9.5,0-17.2-7.7-17.2-17.2c0-9.5,7.7-17.2,17.2-17.2
			c9.5,0,17.2,7.7,17.2,17.2C79.6,71.2,71.9,78.9,62.4,78.9z"/>
	</g>
	<path d="M75.3,57.3c-0.2-1-1-1.7-2.2-1.9c0.2-1,0-1.8-0.5-2.4c-1.1-1.3-3.4-1.5-5.8-0.6c-0.6-2.2-2.2-3.9-3.9-4
		c-1-0.1-1.9,0.4-2.5,1.6c-1-0.6-2.1-0.6-3-0.1c-1.4,0.8-2.1,2.8-1.9,5.1c-2.2-0.1-4.3,0.9-5,2.4c-0.4,1-0.2,2,0.7,2.9
		c-0.8,0.7-1.1,1.6-1,2.5c0.2,1.7,1.9,3.2,4.3,3.7c-0.8,2.1-0.4,4.5,0.8,5.6c0.8,0.7,1.8,0.8,2.9,0.2c0.4,0.9,1,1.5,1.9,1.7
		c0.2,0.1,0.4,0.1,0.6,0.1c1.5,0,3.1-1.1,4.4-2.9c1.8,1.4,4.1,1.8,5.5,1c0.9-0.5,1.3-1.5,1.1-2.7c1-0.1,1.7-0.5,2.1-1.3
		c0.9-1.4,0.4-3.7-1.2-5.7C74.6,61,75.7,58.9,75.3,57.3z M72.4,61.9c-0.2-0.2-0.3-0.4-0.4-0.6l1.4-0.1
		C73.1,61.4,72.8,61.7,72.4,61.9z M73.8,60.7l-2.1,0.2c-0.1-0.2-0.2-0.4-0.2-0.7l2.9-0.5C74.3,60,74.1,60.4,73.8,60.7z M74.7,59.2
		l-3.2,0.6c0-0.3,0-0.5,0.1-0.8l3.4-0.9C75,58.4,74.9,58.8,74.7,59.2z M74.9,57.4c0,0.1,0,0.1,0,0.2l-3.2,0.9c0.1-0.3,0.3-0.6,0.4-1
		l2.4-1C74.7,56.8,74.9,57.1,74.9,57.4z M74.2,56.3l-1.7,0.7c0,0,0-0.1,0.1-0.1c0.2-0.3,0.3-0.7,0.4-1C73.5,55.9,73.9,56,74.2,56.3z
		 M72.7,55.4c-0.2,0-0.4,0-0.7-0.1c-0.1,0-0.3,0-0.4,0l1.2-1.1C72.8,54.5,72.8,54.9,72.7,55.4z M72.2,53.2c0.1,0.1,0.2,0.3,0.3,0.5
		L71,55.2c-0.3,0-0.6-0.1-1-0.1l1.9-2.2C72,53,72.1,53.1,72.2,53.2z M71.5,52.7l-2,2.3c-0.3-0.1-0.6-0.2-0.8-0.3l1.9-2.4
		C70.9,52.4,71.2,52.5,71.5,52.7z M70.1,52.2l-1.8,2.3c-0.3-0.1-0.4-0.3-0.6-0.4l1.2-1.8C69.3,52.2,69.7,52.2,70.1,52.2z M68.3,52.3
		l-1,1.4c-0.2-0.3-0.4-0.6-0.5-1C67.4,52.5,67.9,52.4,68.3,52.3z M65.9,51.3c0.2,0.4,0.3,0.8,0.4,1.2c-0.3,0.1-0.5,0.2-0.8,0.2
		L65.9,51.3z M65.6,50.7l-0.4,2c-0.3,0-0.5,0-0.7,0l0.4-2.9C65.1,50.1,65.4,50.4,65.6,50.7z M63.4,48.8c0.3,0.1,0.7,0.3,1,0.6
		L64,52.7c-0.2-0.1-0.5-0.2-0.7-0.3L63.4,48.8z M62.8,48.7c0.1,0,0.1,0,0.2,0L62.9,52c-0.3-0.2-0.5-0.4-0.8-0.7l-0.2-2.5
		C62.2,48.7,62.5,48.6,62.8,48.7z M61.5,49.1l0.1,1.8c0,0,0-0.1-0.1-0.1c-0.3-0.3-0.6-0.5-0.8-0.8C60.9,49.6,61.2,49.3,61.5,49.1z
		 M60.2,50.2c-0.1,0.2-0.2,0.4-0.3,0.6c-0.1,0.1-0.1,0.3-0.2,0.4L59,49.8C59.4,49.8,59.8,50,60.2,50.2z M57.6,50.1
		c0.3-0.2,0.6-0.3,1-0.3l1,2c-0.1,0.3-0.3,0.6-0.4,0.9L57.6,50.1L57.6,50.1z M57.2,50.4l1.6,2.7c-0.2,0.3-0.3,0.5-0.5,0.7l-1.8-2.6
		C56.7,50.9,57,50.6,57.2,50.4z M56.4,51.6l1.7,2.5c-0.2,0.2-0.4,0.3-0.6,0.5L56,52.7C56.1,52.3,56.2,51.9,56.4,51.6z M55.9,53.3
		l1.1,1.5c-0.3,0.1-0.7,0.2-1.1,0.2C55.8,54.3,55.8,53.8,55.9,53.3z M55.5,55.3c0,0.3,0,0.5-0.1,0.8l-1.2-0.7
		C54.6,55.3,55,55.3,55.5,55.3z M53.6,55.5l1.8,1c-0.1,0.3-0.1,0.5-0.3,0.7l-2.6-1.3C52.8,55.7,53.2,55.6,53.6,55.5z M52,56.2
		l2.9,1.4c-0.1,0.2-0.3,0.4-0.5,0.6L51.1,57C51.4,56.7,51.6,56.4,52,56.2z M50.8,57.5c0,0,0-0.1,0.1-0.1l3.1,1.2
		c-0.3,0.2-0.6,0.4-0.9,0.6l-2.4-0.6C50.6,58.1,50.7,57.8,50.8,57.5z M50.8,58.9l1.7,0.4c0,0-0.1,0-0.1,0c-0.4,0.2-0.7,0.4-1,0.6
		C51.1,59.6,50.9,59.3,50.8,58.9z M51.4,60.5c0.1,0.1,0.3,0.2,0.4,0.3c0.2,0.1,0.3,0.3,0.5,0.4l-1.6,0.2
		C50.9,61.1,51.1,60.8,51.4,60.5z M50.5,62.7c0-0.3,0-0.5,0-0.8l2.2-0.3c0.2,0.2,0.5,0.4,0.7,0.7L50.6,63
		C50.5,62.9,50.5,62.8,50.5,62.7z M50.7,63.4l3.1-0.7c0.2,0.2,0.4,0.4,0.5,0.7l-3,0.9C51,63.9,50.8,63.7,50.7,63.4z M51.6,64.6
		l2.9-0.8c0.1,0.3,0.2,0.5,0.3,0.8l-2.2,0.8l0,0C52.2,65.1,51.9,64.8,51.6,64.6z M53,65.5l1.7-0.6c0,0.4-0.1,0.7-0.2,1.1
		C54.1,65.9,53.5,65.7,53,65.5z M54.8,66.6c0.3,0.1,0.5,0.2,0.7,0.3l-1,0.9C54.6,67.4,54.7,67,54.8,66.6z M54.4,68.4l1.5-1.3
		c0.2,0.1,0.4,0.3,0.6,0.4l-2.1,2.1C54.4,69.2,54.4,68.8,54.4,68.4z M55.1,71.2c-0.2-0.3-0.4-0.7-0.5-1.1l2.2-2.3
		c0.1,0.2,0.3,0.4,0.4,0.7L55.1,71.2z M56.3,72.1c-0.3-0.1-0.6-0.2-0.8-0.4c-0.1-0.1-0.1-0.1-0.1-0.1l2.1-2.6c0.1,0.3,0.2,0.6,0.3,1
		L56.3,72.1z M56.8,72.2l1-1.5c0,0,0,0.1,0,0.1c0.1,0.4,0.1,0.8,0.2,1.1C57.6,72,57.1,72.2,56.8,72.2z M59.2,73
		c-0.3-0.3-0.5-0.6-0.7-1c0.2-0.1,0.4-0.2,0.6-0.4c0.1-0.1,0.3-0.2,0.4-0.2L59.2,73z M60.6,73.5c-0.2,0-0.3,0-0.5-0.1
		c-0.2-0.1-0.4-0.1-0.5-0.2l0.4-2.1c0.3-0.2,0.6-0.3,0.8-0.4L60.6,73.5z M62,73.2c-0.3,0.1-0.6,0.3-1,0.3l0.3-3
		c0.3-0.1,0.6-0.2,0.8-0.3L62,73.2z M62.4,73l0.1-2.9c0.3,0,0.5-0.1,0.8,0l0.1,2.2C63,72.6,62.7,72.8,62.4,73z M63.8,71.9l-0.1-1.7
		c0.3,0.1,0.7,0.3,1,0.5C64.4,71.2,64.1,71.6,63.8,71.9z M65,70.4c-2.1-1.6-4.5-0.1-6.1,0.9c-0.2,0.1-0.4,0.2-0.5,0.3
		c-0.1-0.3-0.1-0.6-0.2-0.9c-0.3-2.9-1.3-3.8-3.2-4.5c0.9-2.5-1.4-4.4-2.9-5.7c-0.1-0.1-0.2-0.2-0.3-0.3c0.3-0.2,0.5-0.3,0.8-0.5
		c2.7-1.2,3.3-2.4,3.3-4.4c2.6,0.1,3.7-2.6,4.4-4.3c0.1-0.2,0.2-0.4,0.2-0.6c0.2,0.2,0.5,0.4,0.7,0.6c1.9,2.1,3.2,2.5,5.2,1.8
		c0.7,2.4,3.6,2.7,5.5,2.8c0.2,0,0.4,0,0.6,0.1c-0.1,0.3-0.2,0.6-0.4,0.9c-1.4,2.4-1.4,3.8-0.1,5.5c-2.1,1.5-1.4,4.2-1,6.1
		c0.1,0.2,0.1,0.4,0.1,0.6c-0.3,0-0.6,0-1-0.1C67.5,68.2,66.2,68.6,65,70.4z M65.3,70.6c0.2-0.2,0.3-0.4,0.5-0.6l0.6,1.3
		C66,71.1,65.6,70.9,65.3,70.6z M66.9,71.6l-0.8-1.9c0.2-0.2,0.4-0.3,0.6-0.4l1.4,2.6C67.7,71.8,67.3,71.7,66.9,71.6z M68.6,72
		l-1.5-2.9c0.2-0.1,0.5-0.1,0.8-0.1l1.9,2.9C69.4,72,69,72,68.6,72z M70.4,71.6c-0.1,0-0.1,0.1-0.2,0.1l-1.8-2.8
		c0.3,0,0.7,0,1.1,0.1l1.6,1.9C70.9,71.2,70.7,71.4,70.4,71.6z M71.2,70.5l-1.2-1.4c0,0,0.1,0,0.1,0c0.4,0.1,0.8,0.1,1.1,0.1
		C71.4,69.7,71.4,70.2,71.2,70.5z M71.6,68.8c-0.1-0.2-0.1-0.4-0.2-0.7c0-0.1-0.1-0.3-0.1-0.4l1.4,0.8
		C72.4,68.7,72.1,68.8,71.6,68.8z M73.5,67.8c-0.1,0.2-0.2,0.3-0.4,0.4l-1.9-1c-0.1-0.3-0.1-0.6-0.2-1l2.6,1.1
		C73.7,67.5,73.6,67.6,73.5,67.8z M73.8,66.9L71,65.7c0-0.3,0-0.6,0-0.9l2.8,1C73.9,66.3,73.9,66.6,73.8,66.9z M73.8,65.4l-2.7-1
		c0.1-0.3,0.1-0.5,0.2-0.8l2.1,0.6C73.6,64.7,73.7,65,73.8,65.4z M71.5,63.3c0.2-0.3,0.4-0.6,0.8-0.8c0.3,0.4,0.6,0.8,0.8,1.3
		L71.5,63.3z"/>
</g>
</svg>
