<svg xmlns="http://www.w3.org/2000/svg" xmlns:xlink="http://www.w3.org/1999/xlink" version="1.1" x="0px" y="0px" viewBox="0 0 100 100" enable-background="new 0 0 100 100" xml:space="preserve"><g><path d="M82.33,72.05c0,0-1.03-0.32-2.04-0.68c-1.02-0.36-2.02-0.75-2.02-0.75c-1.39-0.55-2.88-0.5-4.24,0.04   c-1.36,0.53-2.6,1.55-3.34,2.99c-0.74,1.44-0.79,3.06-0.2,4.52c0.58,1.45,1.81,2.73,3.47,3.38c0,0,1.19,0.47,2.4,0.89   c1.21,0.44,2.43,0.82,2.43,0.82c3.42,1.09,6.96-0.89,7.52-4.09C86.87,75.99,85.16,72.96,82.33,72.05z"></path><path d="M71.14,69.2c-0.36-1.43-1.18-2.64-2.37-3.44c0,0-0.22-0.14-0.54-0.35c-0.32-0.22-0.74-0.52-1.16-0.82   c-0.42-0.3-0.81-0.62-1.12-0.85s-0.5-0.4-0.5-0.4c-1.07-0.89-2.44-1.24-3.86-1.19c-1.43,0.09-2.93,0.57-4.15,1.64   c-1.2,1.07-1.87,2.59-1.77,4.19c0.07,1.61,0.9,3.27,2.35,4.46c0,0,0.25,0.23,0.65,0.53c0.4,0.3,0.93,0.72,1.47,1.11   c0.54,0.38,1.09,0.77,1.49,1.05c0.42,0.28,0.69,0.46,0.69,0.46c1.54,1.02,3.32,1.26,4.84,0.89c1.53-0.39,2.8-1.38,3.53-2.83   C71.42,72.21,71.51,70.59,71.14,69.2z"></path><path d="M59.59,57.82c-0.11-0.64-0.31-1.26-0.64-1.82c0,0-0.13-0.2-0.31-0.51c-0.16-0.31-0.39-0.73-0.61-1.15   c-0.39-0.85-0.77-1.69-0.77-1.74c-0.5-1.39-1.66-2.4-2.93-3.03c-1.3-0.62-2.91-0.83-4.46-0.38c-1.56,0.45-2.77,1.51-3.44,2.95   c-0.69,1.44-0.68,3.17-0.06,4.86c0,0,0.1,0.3,0.33,0.79c0.22,0.49,0.5,1.14,0.81,1.78c0.33,0.63,0.67,1.25,0.91,1.72   c0.27,0.46,0.46,0.76,0.46,0.76c0.5,0.84,1.15,1.54,1.88,2.04c0.72,0.52,1.52,0.83,2.32,0.97c1.57,0.3,3.17-0.2,4.36-1.27   c1.22-1.09,1.85-2.52,2.12-3.93C59.68,59.17,59.68,58.48,59.59,57.82z"></path><path d="M53.42,46.48c0.82-1.23,1.11-2.64,0.91-4.05c0,0-0.04-0.25-0.11-0.63c-0.07-0.38-0.14-0.89-0.18-1.4   c-0.05-0.51-0.1-1.02-0.14-1.4c-0.05-0.38-0.04-0.63-0.04-0.63c-0.03-0.71-0.22-1.37-0.54-1.99c-0.28-0.62-0.69-1.19-1.21-1.69   c-1.06-1.01-2.41-1.77-4.04-1.91c1.62,0.13,3.11-0.4,4.29-1.22c0.6-0.41,1.11-0.91,1.49-1.48c0.41-0.56,0.7-1.19,0.84-1.9   c0,0,0.26-1.01,0.51-2.03c0.15-0.51,0.29-1.02,0.4-1.41c0.13-0.39,0.21-0.65,0.21-0.65c0.91-2.85-0.63-6.49-3.77-7.39   c-3.09-0.89-6.36,0.51-7.45,3.91c0,0-0.1,0.3-0.24,0.75c-0.13,0.47-0.31,1.09-0.49,1.71c-0.33,1.26-0.63,2.55-0.63,2.55   c-0.19,0.91-0.2,1.81-0.05,2.64c0.17,0.84,0.5,1.61,0.94,2.26c0.9,1.3,2.32,2.12,3.91,2.26c-1.59-0.13-3.15,0.43-4.22,1.56   c-0.55,0.57-1,1.28-1.32,2.08c-0.27,0.81-0.4,1.71-0.36,2.64c0,0-0.01,0.34,0.05,0.84c0.05,0.49,0.12,1.16,0.19,1.83   c0.06,0.66,0.14,1.33,0.23,1.81c0.09,0.5,0.14,0.82,0.14,0.82c0.27,1.84,1.35,3.31,2.64,4.18c1.28,0.88,2.95,1.1,4.49,0.65   C51.44,48.73,52.6,47.7,53.42,46.48z"></path><path d="M40.59,64.38c-0.47-0.99-0.93-1.98-0.93-1.98c-1.31-2.76-4.68-3.84-7.38-2.41c-2.71,1.43-3.85,4.61-2.63,7.18   c0,0,0.44,0.94,0.87,1.88c0.43,0.94,0.86,1.88,0.86,1.88c1.18,2.62,4.35,3.79,7.18,2.64c2.83-1.16,4.18-4.43,2.93-7.2   C41.49,66.37,41.04,65.38,40.59,64.38z"></path><path d="M34.48,52.49c0,0-0.14-0.25-0.36-0.61c-0.22-0.37-0.53-0.87-0.83-1.36c-0.59-0.92-1.18-1.84-1.18-1.84   c-1.62-2.52-5.06-3.17-7.6-1.47c-2.54,1.7-3.3,5.04-1.72,7.48c0,0,0.56,0.87,1.12,1.74c0.25,0.42,0.5,0.83,0.7,1.14   c0.18,0.32,0.31,0.53,0.31,0.53c1.37,2.35,4.64,3.28,7.36,1.89C35,58.6,36.09,55.24,34.48,52.49z"></path><path d="M26.05,39.62c0,0-0.63-0.9-1.27-1.79c-0.65-0.89-1.29-1.79-1.29-1.79c-1.81-2.48-5.54-3.02-7.8-0.92   c-2.22,2.08-2.82,5.19-1.14,7.49c0,0,0.6,0.82,1.2,1.65c0.6,0.84,1.19,1.69,1.19,1.69c1.64,2.35,5.02,2.95,7.57,1.26   S27.79,42.11,26.05,39.62z"></path></g></svg>