<svg xmlns="http://www.w3.org/2000/svg" xmlns:xlink="http://www.w3.org/1999/xlink" version="1.1" x="0px" y="0px" viewBox="0 0 100 100" enable-background="new 0 0 100 100" xml:space="preserve"><g><g><path fill="none" stroke="#000000" stroke-width="2" stroke-miterlimit="10" d="M55.322,31.172l-13.908-4.58    c-1.878-0.618-2.908-2.661-2.29-4.538v0c0.618-1.878,2.661-2.908,4.538-2.29l13.908,4.58c1.878,0.618,2.908,2.661,2.29,4.538l0,0    C59.242,30.76,57.2,31.79,55.322,31.172z"></path></g><g><path fill="none" stroke="#000000" stroke-width="2" stroke-miterlimit="10" d="M35.772,45.035l-8.264,12.088    c-1.116,1.632-3.364,2.054-4.996,0.939l0,0c-1.632-1.116-2.054-3.364-0.939-4.996l8.264-12.088    c1.116-1.632,3.364-2.054,4.996-0.939l0,0C36.465,41.155,36.887,43.403,35.772,45.035z"></path></g><g><path fill="none" stroke="#000000" stroke-width="2" stroke-miterlimit="10" d="M71.867,67.459l-0.786-14.621    c-0.106-1.974,1.422-3.676,3.396-3.782h0c1.974-0.106,3.676,1.422,3.782,3.396l0.786,14.621c0.106,1.974-1.422,3.676-3.396,3.782    h0C73.675,70.961,71.973,69.433,71.867,67.459z"></path></g><g><path fill="none" stroke="#000000" stroke-width="2" stroke-miterlimit="10" d="M76.954,35.705l-11.966,8.439    c-1.616,1.139-3.87,0.75-5.009-0.866l0,0c-1.139-1.616-0.75-3.87,0.866-5.009l11.966-8.439c1.616-1.139,3.87-0.75,5.009,0.866v0    C78.959,32.312,78.57,34.566,76.954,35.705z"></path></g><g><path fill="none" stroke="#000000" stroke-width="2" stroke-miterlimit="10" d="M52.936,62.97L42.791,52.411    c-1.37-1.426-1.324-3.713,0.101-5.082l0,0c1.426-1.37,3.713-1.324,5.082,0.101L58.12,57.989c1.37,1.426,1.324,3.713-0.101,5.082    l0,0C56.593,64.441,54.306,64.395,52.936,62.97z"></path></g><g><path fill="none" stroke="#000000" stroke-width="2" stroke-miterlimit="10" d="M58.241,80.416H43.598    c-1.977,0-3.594-1.617-3.594-3.594v0c0-1.977,1.617-3.594,3.594-3.594h14.643c1.977,0,3.594,1.617,3.594,3.594v0    C61.835,78.798,60.218,80.416,58.241,80.416z"></path></g></g></svg>