<svg xmlns="http://www.w3.org/2000/svg" xmlns:xlink="http://www.w3.org/1999/xlink" version="1.1" x="0px" y="0px" viewBox="0 0 100 100" enable-background="new 0 0 100 100" xml:space="preserve"><path d="M82.331,72.054c0,0-1.03-0.322-2.046-0.685c-1.02-0.355-2.02-0.753-2.02-0.753c-1.389-0.546-2.871-0.492-4.238,0.045  c-1.354,0.53-2.6,1.546-3.337,2.991c-0.735,1.44-0.791,3.06-0.205,4.52c0.584,1.447,1.812,2.723,3.474,3.376  c0,0,1.193,0.475,2.404,0.896c1.207,0.432,2.431,0.815,2.431,0.815c3.421,1.095,6.954-0.887,7.514-4.088  C86.867,75.986,85.157,72.96,82.331,72.054z M84.334,78.726c-0.489,2.077-2.74,3.328-4.938,2.626c0,0-1.191-0.372-2.365-0.792  c-1.178-0.41-2.338-0.872-2.338-0.872c-2.152-0.843-3.105-3.23-2.181-5.154c0.926-1.929,3.145-2.79,5.021-2.057  c0,0,1.033,0.411,2.085,0.778c1.049,0.376,2.111,0.708,2.111,0.708C83.651,74.577,84.825,76.643,84.334,78.726z"></path><path d="M71.138,69.196c-0.36-1.423-1.174-2.634-2.368-3.431c0,0-0.217-0.142-0.543-0.356c-0.316-0.223-0.737-0.52-1.158-0.817  c-0.419-0.299-0.811-0.621-1.119-0.851c-0.308-0.229-0.496-0.397-0.496-0.397c-1.079-0.894-2.445-1.244-3.861-1.192  c-1.437,0.083-2.931,0.562-4.151,1.64c-1.207,1.065-1.868,2.591-1.769,4.184c0.067,1.613,0.898,3.273,2.345,4.465  c0,0,0.256,0.223,0.656,0.525c0.4,0.303,0.924,0.727,1.465,1.114c0.543,0.383,1.087,0.766,1.495,1.054  c0.414,0.272,0.691,0.454,0.691,0.454c1.534,1.02,3.315,1.264,4.832,0.895c1.534-0.392,2.802-1.383,3.533-2.832  C71.418,72.209,71.508,70.593,71.138,69.196z M68.903,72.702c-1.007,1.878-3.508,2.515-5.482,1.215c0,0-0.266-0.175-0.665-0.437  c-0.392-0.276-0.915-0.645-1.437-1.013c-0.521-0.372-1.022-0.779-1.406-1.069c-0.385-0.29-0.629-0.503-0.629-0.503  c-0.917-0.749-1.437-1.798-1.507-2.833c-0.088-1.02,0.301-2.05,1.053-2.796c0.764-0.759,1.728-1.119,2.701-1.193  c0.959-0.055,1.899,0.203,2.658,0.822c0,0,0.2,0.177,0.523,0.419c0.323,0.242,0.737,0.582,1.177,0.896  c0.442,0.312,0.884,0.623,1.215,0.857c0.341,0.223,0.568,0.372,0.568,0.372C69.31,68.519,69.917,70.815,68.903,72.702z"></path><path d="M59.594,57.824c-0.11-0.646-0.309-1.263-0.646-1.828c0,0-0.133-0.198-0.306-0.507c-0.166-0.312-0.387-0.728-0.609-1.144  c-0.392-0.854-0.777-1.697-0.774-1.745c-0.496-1.391-1.654-2.402-2.932-3.032c-1.301-0.619-2.903-0.83-4.458-0.381  c-1.556,0.449-2.767,1.514-3.438,2.953c-0.695,1.444-0.683,3.173-0.066,4.863c0,0,0.101,0.292,0.331,0.79  c0.221,0.485,0.501,1.14,0.813,1.778c0.333,0.626,0.666,1.252,0.916,1.722c0.261,0.462,0.453,0.758,0.453,0.758  c0.504,0.843,1.15,1.539,1.887,2.037c0.713,0.521,1.519,0.834,2.314,0.974c1.576,0.302,3.17-0.198,4.365-1.268  c1.218-1.09,1.847-2.519,2.114-3.928C59.677,59.165,59.676,58.484,59.594,57.824z M56.143,62.243  c-0.83,0.657-1.896,0.924-2.909,0.705c-1.014-0.211-2.02-0.872-2.642-1.929c0,0-0.182-0.279-0.428-0.715  c-0.235-0.443-0.549-1.033-0.864-1.623c-0.294-0.601-0.557-1.218-0.766-1.675c-0.216-0.464-0.315-0.752-0.315-0.752  c-0.819-2.172,0.172-4.471,2.242-5.132c2.001-0.638,4.243,0.352,4.944,2.228c0,0,0.093,0.271,0.255,0.608  c0.162,0.347,0.359,0.818,0.582,1.277c0.24,0.452,0.481,0.904,0.661,1.242c0.188,0.335,0.331,0.55,0.331,0.55  C58.162,58.608,57.796,60.884,56.143,62.243z"></path><path d="M53.425,46.477c0.811-1.23,1.104-2.633,0.908-4.043c0,0-0.043-0.254-0.109-0.636c-0.079-0.381-0.139-0.89-0.182-1.399  c-0.053-0.508-0.105-1.017-0.145-1.398c-0.051-0.381-0.041-0.635-0.041-0.635c-0.023-0.705-0.214-1.368-0.537-1.986  c-0.278-0.616-0.694-1.188-1.213-1.694c-1.056-1.008-2.406-1.771-4.037-1.912c-1.595-0.139-3.179,0.42-4.26,1.566  c-0.548,0.569-0.998,1.279-1.315,2.084c-0.272,0.803-0.405,1.701-0.368,2.634c0,0-0.005,0.339,0.055,0.837  c0.051,0.499,0.118,1.165,0.186,1.831c0.061,0.668,0.142,1.33,0.237,1.819c0.083,0.491,0.138,0.819,0.138,0.819  c0.267,1.838,1.346,3.307,2.638,4.175c1.28,0.88,2.954,1.097,4.488,0.648C51.442,48.727,52.596,47.704,53.425,46.477z   M52.292,44.202c-0.107,0.464-0.281,0.906-0.549,1.311c-0.529,0.806-1.37,1.462-2.406,1.723c-1.036,0.261-2.079,0.061-2.937-0.514  c-0.425-0.288-0.818-0.663-1.109-1.118c-0.278-0.459-0.479-0.991-0.577-1.568c0,0-0.053-0.315-0.133-0.788  c-0.092-0.47-0.17-1.106-0.228-1.747c-0.065-0.639-0.13-1.278-0.179-1.757c-0.058-0.478-0.052-0.802-0.052-0.802  c-0.033-1.182,0.322-2.267,1.058-3.017c0.721-0.754,1.702-1.169,2.769-1.13c1.068,0.039,2.025,0.503,2.708,1.169  c0.669,0.67,1.181,1.543,1.201,2.522c0,0-0.009,0.268,0.043,0.669c0.041,0.401,0.096,0.937,0.152,1.472  c0.046,0.536,0.11,1.071,0.191,1.47c0.068,0.4,0.114,0.667,0.114,0.667C52.443,43.251,52.414,43.736,52.292,44.202z"></path><path d="M52.362,31.56c0.598-0.415,1.106-0.912,1.486-1.477c0.414-0.565,0.706-1.197,0.847-1.899c0,0,0.254-1.016,0.508-2.032  c0.145-0.513,0.291-1.026,0.399-1.411c0.123-0.392,0.205-0.654,0.205-0.654c0.912-2.843-0.631-6.489-3.764-7.39  c-3.097-0.888-6.368,0.512-7.459,3.91c0,0-0.094,0.302-0.236,0.754c-0.132,0.467-0.309,1.09-0.486,1.712  c-0.338,1.259-0.636,2.548-0.636,2.548c-0.187,0.904-0.195,1.805-0.05,2.636c0.176,0.842,0.501,1.613,0.945,2.264  c0.906,1.31,2.342,2.124,3.947,2.253C49.693,32.906,51.184,32.385,52.362,31.56z M45.18,26.058c0,0,0.288-1.242,0.614-2.46  c0.171-0.604,0.343-1.208,0.471-1.661c0.138-0.442,0.231-0.737,0.231-0.737c0.682-2.183,2.9-3.248,4.922-2.578  c2.034,0.674,3.086,2.928,2.48,4.873c0,0-0.084,0.268-0.21,0.671c-0.113,0.399-0.264,0.93-0.414,1.462  c-0.283,1.062-0.53,2.12-0.53,2.12c-0.416,1.906-2.335,3.26-4.46,3.015C46.162,30.519,44.673,28.38,45.18,26.058z"></path><path d="M40.586,64.385c-0.463-0.991-0.926-1.982-0.926-1.982c-1.307-2.764-4.68-3.84-7.382-2.414  c-2.706,1.428-3.847,4.609-2.629,7.185c0,0,0.438,0.936,0.875,1.873c0.429,0.942,0.857,1.885,0.857,1.885  c1.178,2.616,4.352,3.793,7.181,2.636c2.831-1.157,4.175-4.425,2.928-7.195C41.49,66.372,41.038,65.379,40.586,64.385z   M37.855,71.887c-1.854,0.791-3.971,0.01-4.753-1.732c0,0-0.433-0.951-0.865-1.902c-0.442-0.946-0.884-1.891-0.884-1.891  c-0.817-1.717-0.047-3.834,1.753-4.748c1.797-0.912,3.994-0.199,4.85,1.602c0,0,0.459,0.982,0.917,1.963  c0.448,0.985,0.896,1.97,0.896,1.97C40.584,68.962,39.71,71.096,37.855,71.887z"></path><path d="M34.483,52.489c0,0-0.143-0.245-0.358-0.614c-0.228-0.369-0.532-0.861-0.836-1.354c-0.589-0.919-1.178-1.839-1.178-1.839  c-1.625-2.521-5.059-3.176-7.6-1.475c-2.539,1.701-3.297,5.038-1.723,7.481c0,0,0.559,0.872,1.117,1.744  c0.255,0.413,0.51,0.825,0.701,1.134c0.187,0.321,0.311,0.535,0.311,0.535c1.373,2.35,4.638,3.279,7.36,1.887  C34.999,58.599,36.087,55.24,34.483,52.489z M31.428,58.377c-1.782,0.948-3.946,0.357-4.882-1.23c0,0-0.128-0.219-0.319-0.548  c-0.197-0.32-0.461-0.746-0.724-1.172c-0.564-0.88-1.127-1.76-1.127-1.76c-1.042-1.623-0.542-3.826,1.145-4.94  c1.679-1.109,3.942-0.678,5.004,0.978c0,0,0.584,0.911,1.167,1.822c0.296,0.479,0.591,0.957,0.813,1.316  c0.21,0.36,0.35,0.6,0.35,0.6C33.896,55.214,33.207,57.431,31.428,58.377z"></path><path d="M26.047,39.617c0,0-0.632-0.894-1.263-1.788c-0.649-0.893-1.298-1.786-1.298-1.786c-1.802-2.481-5.536-3.022-7.792-0.919  c-2.221,2.072-2.823,5.186-1.147,7.481c0,0,0.602,0.828,1.204,1.656c0.596,0.843,1.192,1.687,1.192,1.687  c1.641,2.35,5.017,2.948,7.568,1.26C27.059,45.522,27.788,42.11,26.047,39.617z M23.495,45.695  c-1.676,1.125-3.909,0.742-5.002-0.824c0,0-0.602-0.852-1.204-1.704c-0.61-0.839-1.22-1.678-1.22-1.678  c-1.115-1.518-0.763-3.698,0.801-4.97c1.564-1.273,3.903-0.981,5.094,0.642c0,0,0.641,0.882,1.282,1.763  c0.626,0.885,1.251,1.771,1.251,1.771C25.634,42.323,25.168,44.572,23.495,45.695z"></path></svg>