<svg xmlns="http://www.w3.org/2000/svg" xmlns:xlink="http://www.w3.org/1999/xlink" version="1.1" x="0px" y="0px" viewBox="0 0 100 100" enable-background="new 0 0 100 100" xml:space="preserve"><g><path d="M92.87,52.79l-0.19-0.11l-4.99-0.42c0.02-0.17,0.02-0.38,0.02-0.57v-1.82h4.75l0.27-0.04c0.09-0.03,0.43-0.14,0.83-0.51   c0.23-0.25,0.66-0.71,0.62-1.69c-0.07-1.32-0.94-2.01-1.44-2.2l-0.22-0.09l-5,0.42l-0.1-0.66c-0.04-0.23-0.09-0.39-0.09-0.4   l-0.22-0.83c-0.01-0.04-0.01-0.07-0.02-0.1l4.47-1.66l0.27-0.15c0.09-0.07,0.38-0.32,0.58-0.81c0.24-0.65,0.19-1.33-0.12-1.95   c-0.52-1.08-1.48-1.46-2.19-1.46l-0.23,0.01l-4.44,2.37c-0.25-0.47-0.56-0.85-0.57-0.87l-0.61-0.8l3.46-3.28l0.19-0.25   c0.05-0.09,0.22-0.44,0.21-0.91c0.01-0.45-0.14-1.11-0.86-1.78c-0.63-0.57-1.27-0.69-1.72-0.69c-0.48,0-0.81,0.16-0.91,0.2   l-0.19,0.1l-3.14,3.89c-0.14-0.11-0.29-0.21-0.47-0.32c-0.42-0.36-0.8-0.67-1.18-0.96l1.81-4.17l0.08-0.3   c0.05-0.57-0.23-1.69-1.65-2.2c-0.67-0.25-1.38-0.22-1.89,0.04c-0.42,0.2-0.67,0.46-0.73,0.53l-0.14,0.17l-1.08,3.84   c-0.73-0.33-1.5-0.61-2.29-0.85v-3.24l-0.03-0.28c-0.15-0.5-0.77-1.46-2.11-1.46c-1.19,0-1.85,0.85-2.06,1.36l-0.07,0.18v2.65   c-0.46-0.04-0.89-0.05-1.31-0.05h-1.24v-2.41L66.89,28c-0.14-0.51-0.76-1.47-2.1-1.47c-1.19,0-1.86,0.85-2.06,1.36l-0.08,0.18v2.6   H60.1v-2.41L60.07,28c-0.14-0.51-0.77-1.47-2.1-1.47c-1.19,0-1.86,0.85-2.07,1.36l-0.07,0.18v2.6h-2.55v-2.41l-0.04-0.27   c-0.14-0.5-0.76-1.46-2.1-1.46c-1.19,0-1.85,0.85-2.06,1.36l-0.07,0.18v2.6h-2.55v-2.41L46.42,28c-0.14-0.51-0.76-1.47-2.1-1.47   c-1.19,0-1.86,0.85-2.06,1.36l-0.08,0.18v2.6h-2.55v-2.41L39.6,28c-0.14-0.51-0.77-1.47-2.1-1.47c-1.19,0-1.86,0.85-2.07,1.36   l-0.07,0.18v2.6h-2.55v-2.41L32.77,28c-0.14-0.51-0.76-1.47-2.1-1.47c-1.19,0-1.85,0.85-2.06,1.36l-0.07,0.18v2.79   c-0.85,0.11-1.69,0.29-2.53,0.52l-0.41-3.05l-0.09-0.3c-0.25-0.51-0.93-1.11-2.01-1.11c-0.16,0-0.33,0.01-0.6,0.06   c-1.28,0.32-1.79,1.31-1.89,1.84l-0.04,0.23l1.1,3.92c-0.68,0.36-1.33,0.76-1.94,1.18l-2.15-3.56l-0.2-0.24   c-0.09-0.07-0.39-0.3-0.91-0.4c-0.12-0.02-0.25-0.04-0.4-0.04c-0.53,0-1.05,0.18-1.49,0.51c-1.06,0.79-1.14,1.9-1.02,2.43   l0.05,0.22l3.03,3.76c-0.48,0.51-0.93,1.04-1.35,1.6l-3.81-2.77l-0.28-0.14c-0.1-0.03-0.51-0.12-0.94-0.03   c-0.63,0.11-1.2,0.53-1.58,1.18c-0.7,1.14-0.34,2.2-0.02,2.64L9.2,39.5l4.42,2.37c-0.1,0.2-0.18,0.4-0.22,0.53   c-0.19,0.43-0.36,0.88-0.52,1.37L8.09,42.7l-0.15,0.01c-0.59,0.05-1.65,0.54-1.86,2.04c-0.23,1.34,0.55,2.18,1.05,2.46l0.19,0.11   l4.66,0.39c-0.1,0.79-0.15,1.55-0.15,2.29c0,0.04,0,0.09,0,0.13H7.55l-0.27,0.04c-0.1,0.02-0.44,0.14-0.84,0.51   c-0.23,0.24-0.66,0.7-0.62,1.69c0.06,1.32,0.94,2.01,1.44,2.2l0.22,0.09l4.84-0.4c0.16,0.67,0.34,1.34,0.56,1.98l-4.44,1.65   l-0.27,0.15c-0.09,0.07-0.38,0.32-0.58,0.81C7.35,59.5,7.4,60.18,7.71,60.8c0.52,1.08,1.48,1.46,2.19,1.46l0.23-0.01l4.44-2.37   c0.12,0.22,0.25,0.42,0.34,0.55c0.27,0.42,0.54,0.8,0.8,1.16l-3.42,3.24l-0.19,0.25c-0.05,0.09-0.22,0.44-0.21,0.91   c-0.01,0.44,0.14,1.12,0.86,1.78c0.63,0.57,1.27,0.69,1.72,0.69c0.48-0.01,0.81-0.15,0.9-0.2l0.2-0.1l2.9-3.6   c0.55,0.47,1.13,0.92,1.74,1.34l-1.66,3.82l-0.08,0.3c-0.05,0.57,0.23,1.69,1.65,2.2c0.68,0.25,1.38,0.22,1.89-0.04   c0.42-0.2,0.66-0.45,0.73-0.53l0.14-0.17l1.01-3.59c0.78,0.32,1.57,0.59,2.36,0.8v3.04l0.03,0.28c0.15,0.5,0.77,1.46,2.11,1.46   c1.19,0,1.85-0.85,2.06-1.36l0.07-0.18v-2.61c0.23,0.01,0.44,0.01,0.65,0.01h1.9v2.41L33.11,72c0.14,0.51,0.76,1.47,2.1,1.47   c1.19,0,1.86-0.85,2.06-1.36l0.08-0.18v-2.6h2.55v2.41l0.03,0.27c0.14,0.5,0.77,1.46,2.1,1.46c1.19,0,1.86-0.85,2.07-1.36   l0.07-0.18v-2.6h2.55v2.41L46.76,72c0.14,0.51,0.76,1.47,2.1,1.47c1.19,0,1.85-0.85,2.06-1.36l0.07-0.18v-2.6h2.55v2.41L53.58,72   c0.14,0.51,0.76,1.47,2.1,1.47c1.19,0,1.86-0.85,2.06-1.36l0.08-0.18v-2.6h2.55v2.41l0.03,0.27c0.15,0.5,0.77,1.46,2.1,1.46   c1.19,0,1.86-0.85,2.07-1.36l0.07-0.18v-2.6h2.55v2.41L67.23,72c0.14,0.51,0.76,1.47,2.1,1.47c1.19,0,1.85-0.85,2.06-1.36   l0.07-0.18v-2.9c0.85-0.14,1.68-0.34,2.5-0.6l0.44,3.24l0.09,0.3c0.25,0.51,0.93,1.11,2.01,1.11c0.16,0,0.33-0.01,0.6-0.06   c1.28-0.32,1.79-1.31,1.89-1.84l0.04-0.23l-1.18-4.23c0.63-0.37,1.24-0.77,1.82-1.2l2.35,3.89l0.2,0.23   c0.08,0.07,0.39,0.31,0.91,0.42c0.12,0.01,0.25,0.03,0.4,0.03c0.53,0,1.05-0.18,1.49-0.51c1.06-0.79,1.14-1.9,1.02-2.43l-0.05-0.22   l-3.15-3.92l0.19-0.17c0.13-0.12,0.25-0.23,0.36-0.34l0.87-0.96l3.86,2.79l0.28,0.14c0.1,0.04,0.5,0.13,0.94,0.04   c0.63-0.11,1.2-0.53,1.58-1.18c0.71-1.14,0.34-2.2,0.02-2.64L90.8,60.5l-4.42-2.37c0.1-0.2,0.2-0.43,0.28-0.67l0.26-0.7   c0.07-0.18,0.14-0.38,0.17-0.54l4.82,1.08l0.15-0.01c0.59-0.05,1.65-0.54,1.86-2.04C94.15,53.91,93.37,53.07,92.87,52.79z M82.5,50   c0,7.3-5.46,13.41-12.7,14.23H29.54C22.29,63.41,16.83,57.3,16.83,50s5.46-13.41,12.7-14.24H69.8C77.04,36.59,82.5,42.7,82.5,50z"></path><path d="M28.167,46.75c2.344,0,4.25-1.906,4.25-4.25s-1.906-4.25-4.25-4.25s-4.25,1.906-4.25,4.25S25.823,46.75,28.167,46.75z    M25.417,42.5c0-1.517,1.233-2.75,2.75-2.75s2.75,1.233,2.75,2.75s-1.233,2.75-2.75,2.75S25.417,44.016,25.417,42.5z"></path><path d="M29.167,53.084c-2.895,0-5.25,2.355-5.25,5.25s2.355,5.25,5.25,5.25s5.25-2.355,5.25-5.25S32.062,53.084,29.167,53.084z    M32.917,58.334c0,2.067-1.683,3.75-3.75,3.75s-3.75-1.683-3.75-3.75s1.683-3.75,3.75-3.75S32.917,56.266,32.917,58.334z"></path><path d="M36.833,47.084c-1.7,0-3.083,1.383-3.083,3.083s1.383,3.083,3.083,3.083s3.084-1.383,3.084-3.083   S38.533,47.084,36.833,47.084z M38.417,50.167c0,0.873-0.711,1.583-1.584,1.583s-1.583-0.71-1.583-1.583s0.71-1.583,1.583-1.583   S38.417,49.294,38.417,50.167z"></path><path d="M46.338,37.417c-3.122,0-5.662,2.54-5.662,5.662s2.54,5.662,5.662,5.662S52,46.201,52,43.079S49.46,37.417,46.338,37.417z    M50.5,43.079c0,2.295-1.867,4.162-4.162,4.162s-4.162-1.867-4.162-4.162s1.867-4.162,4.162-4.162S50.5,40.784,50.5,43.079z"></path><path d="M46.52,51.75c-2.39,0-4.333,1.944-4.333,4.334s1.943,4.333,4.333,4.333s4.334-1.943,4.334-4.333S48.909,51.75,46.52,51.75z    M49.354,56.084c0,1.563-1.271,2.833-2.834,2.833s-2.833-1.271-2.833-2.833s1.271-2.834,2.833-2.834S49.354,54.521,49.354,56.084z"></path><path d="M57.85,42.667c1.379,0,2.5-1.121,2.5-2.5s-1.121-2.5-2.5-2.5s-2.5,1.121-2.5,2.5S56.471,42.667,57.85,42.667z    M56.85,40.167c0-0.552,0.448-1,1-1s1,0.448,1,1s-0.448,1-1,1S56.85,40.718,56.85,40.167z"></path><path d="M62.906,47.084c-2.895,0-5.25,2.355-5.25,5.25s2.355,5.25,5.25,5.25s5.25-2.355,5.25-5.25S65.801,47.084,62.906,47.084z    M66.656,52.334c0,2.067-1.683,3.75-3.75,3.75s-3.75-1.683-3.75-3.75s1.683-3.75,3.75-3.75S66.656,50.266,66.656,52.334z"></path><path d="M74.708,45c1.539,0,2.792-1.252,2.792-2.791s-1.253-2.792-2.792-2.792s-2.791,1.253-2.791,2.792S73.169,45,74.708,45z    M73.417,42.209c0-0.713,0.579-1.292,1.291-1.292c0.713,0,1.292,0.579,1.292,1.292c0,0.712-0.579,1.291-1.292,1.291   C73.996,43.5,73.417,42.921,73.417,42.209z"></path><path d="M73.833,53.084c-2.39,0-4.333,1.943-4.333,4.333s1.943,4.333,4.333,4.333s4.334-1.943,4.334-4.333   S76.223,53.084,73.833,53.084z M76.667,57.417c0,1.563-1.271,2.833-2.834,2.833S71,58.979,71,57.417s1.271-2.833,2.833-2.833   S76.667,55.854,76.667,57.417z"></path><path d="M56.531,56.667c-1.401,0-2.542,1.141-2.542,2.542s1.141,2.541,2.542,2.541s2.541-1.14,2.541-2.541   S57.933,56.667,56.531,56.667z M57.572,59.209c0,0.574-0.467,1.041-1.041,1.041s-1.042-0.467-1.042-1.041s0.468-1.042,1.042-1.042   S57.572,58.635,57.572,59.209z"></path><path d="M20.921,47.241c-1.381,0-2.504,1.124-2.504,2.505s1.123,2.504,2.504,2.504s2.505-1.123,2.505-2.504   S22.302,47.241,20.921,47.241z M21.926,49.746c0,0.554-0.451,1.004-1.005,1.004s-1.004-0.45-1.004-1.004s0.45-1.005,1.004-1.005   S21.926,49.192,21.926,49.746z"></path><path d="M72.667,50.917c1.057,0,1.916-0.86,1.916-1.917s-0.859-1.916-1.916-1.916S70.75,47.943,70.75,49   S71.61,50.917,72.667,50.917z M72.25,49c0-0.229,0.188-0.416,0.417-0.416S73.083,48.77,73.083,49s-0.187,0.417-0.416,0.417   S72.25,49.229,72.25,49z"></path></g></svg>