<?xml version="1.0" encoding="utf-8"?>
<!-- Generator: Adobe Illustrator 23.0.3, SVG Export Plug-In . SVG Version: 6.00 Build 0)  -->
<svg version="1.1" id="Layer_1" xmlns="http://www.w3.org/2000/svg" xmlns:xlink="http://www.w3.org/1999/xlink" x="0px" y="0px"
	 viewBox="0 0 270 214.4" style="enable-background:new 0 0 270 214.4;" xml:space="preserve">
<style type="text/css">
	.st0{fill:none;}
	.st1{fill:none;stroke:#000000;stroke-width:2;stroke-miterlimit:10;}
</style>
<g>
	<path d="M269.89,10.06h-0.13C268.65,4.33,263.61,0,257.55,0H12.45C6.38,0,1.33,4.36,0.23,10.11H0.11C0.08,10.43,0,10.73,0,11.05
		v1.4V121.4v52.56c0,6.87,5.57,12.45,12.45,12.45h92.93v17.9h-39.7v10.09h138.65v-10.09h-39.7v-17.89h92.93
		c6.87,0,12.44-5.58,12.44-12.45V121.4V12.45v-1.4C270,10.72,269.93,10.4,269.89,10.06z M258.36,169.47H11.65h-0.1v-44.21h0.1V17.51
		h246.71V169.47z"/>
	<g>
		<path d="M65.69,155.97c0,0-0.76-0.24-1.51-0.5c-0.75-0.27-1.49-0.55-1.49-0.55c-1.03-0.41-2.13-0.37-3.13,0.03
			c-1.01,0.39-1.92,1.15-2.47,2.21c-0.55,1.06-0.58,2.26-0.15,3.34c0.43,1.07,1.34,2.02,2.56,2.5c0,0,0.88,0.35,1.77,0.66
			c0.89,0.33,1.8,0.61,1.8,0.61c2.53,0.81,5.14-0.66,5.56-3.02C69.04,158.88,67.78,156.64,65.69,155.97z"/>
		<path d="M57.42,153.87c-0.27-1.06-0.87-1.95-1.75-2.54c0,0-0.16-0.1-0.4-0.26c-0.24-0.16-0.55-0.38-0.86-0.61
			c-0.31-0.22-0.6-0.46-0.83-0.63s-0.37-0.3-0.37-0.3c-0.79-0.66-1.8-0.92-2.85-0.88c-1.06,0.07-2.17,0.42-3.07,1.21
			c-0.89,0.79-1.38,1.91-1.31,3.1c0.05,1.19,0.67,2.42,1.74,3.3c0,0,0.18,0.17,0.48,0.39c0.3,0.22,0.69,0.53,1.09,0.82
			c0.4,0.28,0.81,0.57,1.1,0.78c0.31,0.21,0.51,0.34,0.51,0.34c1.14,0.75,2.45,0.93,3.58,0.66c1.13-0.29,2.07-1.02,2.61-2.09
			C57.62,156.09,57.69,154.89,57.42,153.87z"/>
		<path d="M48.88,145.46c-0.08-0.47-0.23-0.93-0.47-1.34c0,0-0.1-0.15-0.23-0.38c-0.12-0.23-0.29-0.54-0.45-0.85
			c-0.29-0.63-0.57-1.25-0.57-1.29c-0.37-1.03-1.23-1.77-2.17-2.24c-0.96-0.46-2.15-0.61-3.3-0.28c-1.15,0.33-2.05,1.12-2.54,2.18
			c-0.51,1.06-0.5,2.34-0.04,3.59c0,0,0.07,0.22,0.24,0.58c0.16,0.36,0.37,0.84,0.6,1.32c0.24,0.47,0.5,0.92,0.67,1.27
			c0.2,0.34,0.34,0.56,0.34,0.56c0.37,0.62,0.85,1.14,1.39,1.51c0.53,0.38,1.12,0.61,1.71,0.72c1.16,0.22,2.34-0.15,3.22-0.94
			c0.9-0.81,1.37-1.86,1.57-2.9C48.95,146.45,48.95,145.94,48.88,145.46z"/>
		<path d="M44.32,137.08c0.61-0.91,0.82-1.95,0.67-2.99c0,0-0.03-0.18-0.08-0.47s-0.1-0.66-0.13-1.03c-0.04-0.38-0.07-0.75-0.1-1.03
			c-0.04-0.28-0.03-0.47-0.03-0.47c-0.02-0.52-0.16-1.01-0.4-1.47c-0.21-0.46-0.51-0.88-0.89-1.25c-0.78-0.75-1.78-1.31-2.99-1.41
			c1.2,0.1,2.3-0.3,3.17-0.9c0.44-0.3,0.82-0.67,1.1-1.09c0.3-0.41,0.52-0.88,0.62-1.4c0,0,0.19-0.75,0.38-1.5
			c0.11-0.38,0.21-0.75,0.3-1.04c0.1-0.29,0.16-0.48,0.16-0.48c0.67-2.11-0.47-4.8-2.79-5.46c-2.28-0.66-4.7,0.38-5.51,2.89
			c0,0-0.07,0.22-0.18,0.55c-0.1,0.35-0.23,0.81-0.36,1.26c-0.24,0.93-0.47,1.88-0.47,1.88c-0.14,0.67-0.15,1.34-0.04,1.95
			c0.13,0.62,0.37,1.19,0.69,1.67c0.67,0.96,1.71,1.57,2.89,1.67c-1.18-0.1-2.33,0.32-3.12,1.15c-0.41,0.42-0.74,0.95-0.98,1.54
			c-0.2,0.6-0.3,1.26-0.27,1.95c0,0-0.01,0.25,0.04,0.62c0.04,0.36,0.09,0.86,0.14,1.35c0.04,0.49,0.1,0.98,0.17,1.34
			c0.07,0.37,0.1,0.61,0.1,0.61c0.2,1.36,1,2.45,1.95,3.09c0.95,0.65,2.18,0.81,3.32,0.48C42.86,138.74,43.71,137.98,44.32,137.08z"
			/>
		<path d="M34.84,150.3c-0.35-0.73-0.69-1.46-0.69-1.46c-0.97-2.04-3.46-2.84-5.45-1.78c-2,1.06-2.85,3.41-1.94,5.31
			c0,0,0.33,0.69,0.64,1.39c0.32,0.69,0.64,1.39,0.64,1.39c0.87,1.94,3.21,2.8,5.31,1.95c2.09-0.86,3.09-3.27,2.17-5.32
			C35.5,151.77,35.17,151.04,34.84,150.3z"/>
		<path d="M30.32,141.52c0,0-0.1-0.18-0.27-0.45c-0.16-0.27-0.39-0.64-0.61-1.01c-0.44-0.68-0.87-1.36-0.87-1.36
			c-1.2-1.86-3.74-2.34-5.62-1.09c-1.88,1.26-2.44,3.72-1.27,5.53c0,0,0.41,0.64,0.83,1.29c0.18,0.31,0.37,0.61,0.52,0.84
			c0.13,0.24,0.23,0.39,0.23,0.39c1.01,1.74,3.43,2.42,5.44,1.4C30.71,146.03,31.51,143.55,30.32,141.52z"/>
		<path d="M24.09,132.01c0,0-0.47-0.67-0.94-1.32c-0.48-0.66-0.95-1.32-0.95-1.32c-1.34-1.83-4.09-2.23-5.76-0.68
			c-1.64,1.54-2.08,3.84-0.84,5.54c0,0,0.44,0.61,0.89,1.22c0.44,0.62,0.88,1.25,0.88,1.25c1.21,1.74,3.71,2.18,5.59,0.93
			C24.84,136.37,25.38,133.85,24.09,132.01z"/>
	</g>
	<path d="M202.5,72.18c0,0,0.27-0.75,0.57-1.48c0.3-0.74,0.62-1.47,0.62-1.47c0.45-1.01,0.46-2.11,0.1-3.13
		c-0.35-1.02-1.06-1.97-2.1-2.56c-1.04-0.59-2.23-0.68-3.33-0.29c-1.09,0.38-2.07,1.25-2.6,2.46c0,0-0.38,0.86-0.73,1.74
		c-0.36,0.88-0.68,1.77-0.68,1.77c-0.91,2.49,0.44,5.17,2.78,5.68C199.45,75.4,201.74,74.24,202.5,72.18z"/>
	<path d="M204.96,64c1.07-0.22,1.99-0.79,2.61-1.64c0,0,0.11-0.16,0.28-0.39c0.17-0.23,0.41-0.53,0.64-0.83
		c0.23-0.3,0.48-0.58,0.66-0.8c0.18-0.22,0.31-0.36,0.31-0.36c0.69-0.76,0.99-1.76,1-2.81c-0.02-1.06-0.33-2.18-1.08-3.12
		c-0.75-0.92-1.85-1.46-3.04-1.44c-1.19,0-2.44,0.56-3.37,1.59c0,0-0.18,0.18-0.41,0.46c-0.23,0.29-0.56,0.66-0.87,1.05
		c-0.3,0.39-0.6,0.78-0.82,1.07c-0.22,0.3-0.36,0.49-0.36,0.49c-0.8,1.1-1.03,2.41-0.81,3.55c0.24,1.14,0.93,2.11,1.98,2.7
		C202.73,64.11,203.92,64.23,204.96,64z"/>
	<path d="M213.72,55.83c0.48-0.06,0.94-0.19,1.36-0.42c0,0,0.15-0.09,0.39-0.21c0.23-0.11,0.55-0.27,0.87-0.41
		c0.64-0.26,1.27-0.52,1.31-0.51c1.04-0.33,1.82-1.15,2.33-2.07c0.5-0.94,0.7-2.12,0.42-3.28c-0.28-1.17-1.03-2.09-2.07-2.63
		c-1.04-0.55-2.32-0.6-3.59-0.2c0,0-0.22,0.06-0.59,0.22c-0.37,0.15-0.86,0.33-1.34,0.54c-0.48,0.22-0.94,0.46-1.3,0.62
		c-0.35,0.18-0.58,0.32-0.58,0.32c-0.64,0.34-1.17,0.8-1.57,1.32c-0.41,0.52-0.66,1.1-0.79,1.68c-0.27,1.15,0.05,2.35,0.8,3.26
		c0.77,0.94,1.8,1.45,2.84,1.69C212.72,55.86,213.23,55.88,213.72,55.83z"/>
	<path d="M222.29,51.63c0.88,0.64,1.91,0.9,2.96,0.8c0,0,0.19-0.02,0.47-0.06c0.28-0.04,0.66-0.08,1.04-0.09
		c0.38-0.02,0.76-0.04,1.04-0.06c0.28-0.02,0.47-0.01,0.47-0.01c0.53,0,1.02-0.12,1.49-0.34c0.47-0.19,0.9-0.47,1.29-0.84
		c0.78-0.75,1.38-1.72,1.54-2.92c-0.15,1.19,0.2,2.31,0.77,3.21c0.28,0.46,0.64,0.85,1.05,1.15c0.4,0.32,0.86,0.55,1.38,0.68
		c0,0,0.74,0.22,1.48,0.44c0.37,0.13,0.74,0.25,1.03,0.34c0.28,0.11,0.47,0.18,0.47,0.18c2.08,0.76,4.81-0.26,5.57-2.55
		c0.75-2.25-0.18-4.71-2.65-5.62c0,0-0.22-0.08-0.55-0.2c-0.34-0.11-0.8-0.26-1.25-0.42c-0.92-0.28-1.86-0.55-1.86-0.55
		c-0.67-0.17-1.33-0.2-1.95-0.12c-0.63,0.1-1.2,0.32-1.7,0.62c-0.99,0.62-1.64,1.65-1.79,2.82c0.15-1.17-0.22-2.34-1.02-3.16
		c-0.4-0.42-0.91-0.78-1.49-1.04c-0.59-0.22-1.25-0.35-1.94-0.35c0,0-0.25-0.02-0.62,0.01c-0.36,0.02-0.86,0.05-1.36,0.08
		c-0.49,0.02-0.99,0.06-1.34,0.11c-0.37,0.05-0.61,0.08-0.61,0.08c-1.37,0.14-2.49,0.89-3.17,1.82c-0.69,0.92-0.9,2.14-0.62,3.29
		C220.69,50.1,221.41,50.99,222.29,51.63z"/>
	<path d="M209.48,41.6c0.75-0.32,1.49-0.62,1.49-0.62c2.08-0.88,2.98-3.33,2.01-5.37c-0.97-2.05-3.28-2.99-5.22-2.17
		c0,0-0.71,0.3-1.42,0.58c-0.71,0.29-1.42,0.58-1.42,0.58c-1.97,0.79-2.94,3.09-2.17,5.22c0.77,2.13,3.14,3.23,5.22,2.39
		C207.98,42.2,208.72,41.9,209.48,41.6z"/>
	<path d="M218.45,37.46c0,0,0.19-0.1,0.46-0.25c0.28-0.15,0.66-0.36,1.03-0.57c0.7-0.41,1.4-0.81,1.4-0.81
		c1.91-1.12,2.5-3.64,1.32-5.57c-1.18-1.93-3.62-2.59-5.47-1.51c0,0-0.66,0.39-1.32,0.77c-0.32,0.17-0.63,0.34-0.86,0.48
		c-0.24,0.12-0.4,0.21-0.4,0.21c-1.78,0.94-2.57,3.32-1.63,5.37C213.92,37.65,216.37,38.56,218.45,37.46z"/>
	<path d="M228.22,31.64c0,0,0.68-0.44,1.36-0.88c0.68-0.45,1.36-0.9,1.36-0.9c1.89-1.26,2.4-4,0.92-5.73
		c-1.47-1.7-3.74-2.25-5.49-1.08c0,0-0.62,0.42-1.26,0.83c-0.64,0.42-1.29,0.83-1.29,0.83c-1.79,1.14-2.34,3.61-1.17,5.55
		C223.83,32.2,226.32,32.85,228.22,31.64z"/>
	<path d="M182.91,104.69c-0.54-0.6-1.07-1.21-1.07-1.21c-1.5-1.69-4.12-1.75-5.73-0.18c-1.62,1.58-1.77,4.07-0.37,5.64
		c0,0,0.51,0.58,1.01,1.15s1,1.15,1,1.15c1.38,1.61,3.87,1.78,5.64,0.38c1.77-1.41,2.04-4.01,0.58-5.71
		C183.96,105.91,183.44,105.3,182.91,104.69z"/>
	<path d="M176.11,97.53c0,0-0.15-0.15-0.38-0.36c-0.23-0.22-0.56-0.51-0.87-0.79c-0.61-0.53-1.22-1.06-1.22-1.06
		c-1.67-1.45-4.25-1.2-5.7,0.54s-1.29,4.26,0.33,5.66c0,0,0.58,0.5,1.16,1c0.26,0.25,0.53,0.48,0.73,0.66
		c0.19,0.19,0.33,0.31,0.33,0.31c1.46,1.38,3.97,1.36,5.61-0.19C177.75,101.75,177.82,99.14,176.11,97.53z"/>
	<path d="M167.45,90.15c0,0-0.63-0.51-1.27-1.01c-0.65-0.5-1.29-1-1.29-1c-1.8-1.38-4.56-0.99-5.72,0.97
		c-1.14,1.94-0.92,4.27,0.75,5.55c0,0,0.6,0.46,1.19,0.92c0.6,0.47,1.2,0.95,1.2,0.95c1.65,1.33,4.17,1.05,5.63-0.68
		S169.21,91.55,167.45,90.15z"/>
	<path d="M96.24,77.98c-0.3-0.33-0.59-0.67-0.59-0.67c-0.83-0.93-2.26-0.96-3.15-0.1c-0.89,0.87-0.97,2.23-0.2,3.1
		c0,0,0.28,0.32,0.55,0.63c0.27,0.32,0.55,0.63,0.55,0.63c0.76,0.89,2.13,0.98,3.1,0.21c0.97-0.77,1.12-2.2,0.32-3.14
		C96.82,78.66,96.53,78.32,96.24,77.98z"/>
	<path d="M92.51,74.05c0,0-0.08-0.08-0.21-0.2c-0.13-0.12-0.31-0.28-0.48-0.43c-0.33-0.29-0.67-0.58-0.67-0.58
		c-0.92-0.8-2.33-0.66-3.13,0.29c-0.8,0.95-0.71,2.34,0.18,3.11c0,0,0.32,0.27,0.63,0.55c0.15,0.14,0.29,0.27,0.4,0.36
		c0.11,0.1,0.18,0.17,0.18,0.17c0.8,0.76,2.18,0.75,3.08-0.1C93.41,76.37,93.45,74.94,92.51,74.05z"/>
	<path d="M87.75,70c0,0-0.35-0.28-0.7-0.55c-0.35-0.27-0.71-0.55-0.71-0.55c-0.99-0.76-2.5-0.54-3.14,0.53
		c-0.63,1.06-0.51,2.34,0.41,3.05c0,0,0.33,0.25,0.66,0.51c0.33,0.26,0.66,0.52,0.66,0.52c0.91,0.73,2.29,0.58,3.09-0.37
		C88.82,72.18,88.72,70.77,87.75,70z"/>
	<path d="M87.79,95.44c0.35-0.28,0.69-0.55,0.69-0.55c0.97-0.78,1.08-2.21,0.26-3.14c-0.82-0.94-2.18-1.09-3.08-0.36
		c0,0-0.33,0.26-0.66,0.52c-0.33,0.26-0.66,0.52-0.66,0.52c-0.92,0.71-1.09,2.07-0.37,3.08c0.72,1.01,2.14,1.23,3.12,0.48
		C87.09,95.98,87.44,95.71,87.79,95.44z"/>
	<path d="M91.91,91.91c0,0,0.09-0.08,0.21-0.2c0.13-0.12,0.29-0.29,0.46-0.46c0.31-0.32,0.62-0.64,0.62-0.64
		c0.84-0.88,0.77-2.3-0.14-3.14c-0.91-0.84-2.3-0.83-3.11,0.03c0,0-0.29,0.3-0.58,0.61c-0.14,0.14-0.28,0.28-0.38,0.38
		c-0.11,0.1-0.18,0.17-0.18,0.17c-0.8,0.76-0.86,2.14-0.05,3.08C89.54,92.69,90.97,92.8,91.91,91.91z"/>
	<path d="M96.19,87.37c0,0,0.3-0.33,0.59-0.67c0.29-0.34,0.59-0.68,0.59-0.68c0.81-0.95,0.67-2.47-0.37-3.17
		c-1.03-0.68-2.31-0.62-3.06,0.26c0,0-0.27,0.31-0.54,0.63c-0.28,0.32-0.56,0.63-0.56,0.63c-0.77,0.87-0.69,2.26,0.22,3.11
		C93.96,88.32,95.38,88.29,96.19,87.37z"/>
	<g>
		<path d="M72.53,97.59l-0.08-0.12l-2.72-1.68c0.06-0.09,0.12-0.21,0.18-0.32l0.53-1.04l2.7,1.37l0.17,0.06
			c0.06,0.01,0.29,0.04,0.62-0.05c0.2-0.08,0.58-0.21,0.84-0.78c0.34-0.77,0.05-1.42-0.18-1.67l-0.1-0.11l-2.97-1.2l0.13-0.4
			c0.04-0.14,0.06-0.25,0.06-0.25l0.11-0.54c0.01-0.03,0.01-0.04,0.02-0.06l3.02,0.35l0.2-0.01c0.07-0.01,0.31-0.07,0.56-0.29
			c0.32-0.3,0.49-0.7,0.49-1.15c0.02-0.77-0.42-1.26-0.83-1.46l-0.13-0.06l-3.21,0.07c-0.01-0.34-0.07-0.65-0.07-0.66l-0.12-0.63
			l2.92-0.87l0.18-0.09c0.05-0.04,0.25-0.19,0.38-0.46c0.14-0.25,0.24-0.67,0.02-1.26c-0.19-0.51-0.52-0.76-0.78-0.89
			c-0.27-0.14-0.51-0.14-0.58-0.15l-0.14,0l-2.91,1.31c-0.05-0.1-0.1-0.2-0.18-0.32c-0.14-0.33-0.26-0.61-0.39-0.89l2.24-1.85
			l0.13-0.15c0.19-0.31,0.36-1.03-0.3-1.73c-0.31-0.34-0.72-0.52-1.09-0.52c-0.3-0.01-0.51,0.07-0.57,0.09l-0.13,0.06l-1.72,1.87
			c-0.32-0.4-0.68-0.78-1.06-1.15l0.94-1.84l0.06-0.17c0.06-0.33-0.02-1.05-0.78-1.44c-0.68-0.34-1.3-0.05-1.57,0.18l-0.09,0.08
			l-0.77,1.51c-0.25-0.16-0.49-0.29-0.73-0.41l-0.71-0.36l0.7-1.37l0.05-0.16c0.07-0.33-0.01-1.06-0.77-1.44
			c-0.68-0.34-1.3-0.05-1.57,0.18l-0.1,0.08l-0.75,1.48l-1.45-0.74l0.7-1.37l0.06-0.16c0.07-0.33-0.01-1.06-0.77-1.44
			c-0.68-0.34-1.3-0.05-1.57,0.18l-0.09,0.08l-0.75,1.48l-1.45-0.74l0.7-1.37l0.06-0.17c0.06-0.33-0.01-1.05-0.77-1.44
			c-0.68-0.34-1.3-0.05-1.57,0.18l-0.09,0.08l-0.75,1.48l-1.45-0.74l0.7-1.37l0.05-0.16c0.07-0.33-0.01-1.06-0.77-1.44
			c-0.68-0.34-1.3-0.05-1.57,0.18l-0.1,0.08l-0.75,1.48l-1.45-0.74l0.7-1.37l0.06-0.16c0.07-0.33-0.01-1.06-0.77-1.44
			c-0.68-0.34-1.3-0.05-1.57,0.18l-0.09,0.08l-0.75,1.48l-1.45-0.74l0.7-1.37l0.05-0.16c0.07-0.33-0.01-1.06-0.77-1.44
			c-0.68-0.34-1.3-0.05-1.57,0.18l-0.09,0.08l-0.81,1.59c-0.52-0.18-1.05-0.32-1.59-0.43l0.65-1.86l0.04-0.2
			c0-0.36-0.21-0.9-0.82-1.21c-0.09-0.05-0.19-0.09-0.36-0.14c-0.82-0.19-1.4,0.23-1.61,0.5l-0.09,0.12l-0.51,2.55
			c-0.49,0.01-0.98,0.05-1.45,0.11l-0.2-2.65l-0.04-0.19c-0.03-0.07-0.14-0.28-0.4-0.49c-0.06-0.05-0.13-0.09-0.22-0.14
			c-0.3-0.15-0.65-0.2-1-0.14c-0.83,0.14-1.2,0.75-1.28,1.09l-0.04,0.14l0.64,3.02c-0.42,0.15-0.83,0.32-1.23,0.52l-1.37-2.68
			l-0.12-0.16c-0.05-0.05-0.26-0.22-0.53-0.29c-0.39-0.12-0.84-0.04-1.24,0.22c-0.73,0.45-0.83,1.15-0.77,1.5l0.02,0.15l1.83,2.63
			c-0.11,0.08-0.22,0.18-0.28,0.24c-0.23,0.19-0.46,0.4-0.69,0.63l-2.42-1.99l-0.09-0.04c-0.35-0.14-1.1-0.17-1.65,0.62
			c-0.52,0.7-0.32,1.4-0.11,1.7l0.08,0.12l2.54,1.57c-0.29,0.42-0.53,0.84-0.75,1.26c-0.01,0.02-0.03,0.05-0.04,0.07l-2.44-1.24
			l-0.17-0.06c-0.06-0.02-0.29-0.05-0.63,0.05c-0.2,0.07-0.58,0.21-0.84,0.78c-0.35,0.77-0.05,1.42,0.18,1.67l0.1,0.11l2.87,1.17
			c-0.1,0.43-0.19,0.86-0.25,1.29l-3-0.34l-0.2,0.01c-0.07,0.01-0.31,0.07-0.56,0.29c-0.32,0.3-0.49,0.7-0.49,1.15
			c-0.02,0.77,0.42,1.26,0.83,1.46l0.13,0.06l3.21-0.07c0,0.16,0.02,0.31,0.03,0.41c0.03,0.32,0.08,0.61,0.12,0.89l-2.88,0.86
			l-0.18,0.09c-0.05,0.04-0.25,0.19-0.38,0.46c-0.13,0.25-0.24,0.68-0.02,1.26c0.19,0.51,0.52,0.76,0.78,0.89
			c0.28,0.13,0.5,0.15,0.57,0.15l0.14,0l2.69-1.21c0.18,0.43,0.38,0.85,0.6,1.27l-2.05,1.7l-0.13,0.15
			c-0.19,0.31-0.36,1.03,0.3,1.73c0.31,0.34,0.72,0.52,1.09,0.52c0.3,0.01,0.51-0.07,0.57-0.09l0.13-0.06l1.61-1.75
			c0.35,0.41,0.72,0.79,1.11,1.14l-0.88,1.73l-0.06,0.17c-0.06,0.33,0.02,1.05,0.78,1.44c0.68,0.34,1.3,0.05,1.57-0.18l0.09-0.08
			L32.26,89c0.13,0.07,0.25,0.13,0.37,0.19l1.08,0.55l-0.7,1.37l-0.05,0.16c-0.07,0.33,0.01,1.06,0.77,1.44
			c0.68,0.34,1.3,0.05,1.57-0.18l0.1-0.08l0.75-1.48l1.45,0.74l-0.7,1.37l-0.06,0.16c-0.06,0.33,0.02,1.05,0.77,1.44
			c0.68,0.34,1.3,0.05,1.57-0.18l0.09-0.08l0.75-1.48l1.45,0.74l-0.7,1.37l-0.05,0.16c-0.07,0.33,0.01,1.06,0.77,1.44
			c0.68,0.34,1.3,0.05,1.57-0.18l0.09-0.08l0.75-1.48l1.45,0.74l-0.7,1.37l-0.05,0.16c-0.07,0.33,0.01,1.06,0.77,1.44
			c0.68,0.34,1.3,0.05,1.57-0.18l0.1-0.08l0.75-1.48l1.45,0.74L48.55,99l-0.06,0.16c-0.06,0.33,0.02,1.05,0.77,1.44
			c0.68,0.34,1.3,0.05,1.57-0.18l0.09-0.08l0.75-1.48l1.45,0.74l-0.7,1.37l-0.05,0.16c-0.07,0.33,0.01,1.06,0.77,1.44
			c0.68,0.34,1.3,0.05,1.57-0.18l0.09-0.08l0.84-1.65c0.52,0.17,1.05,0.29,1.6,0.38l-0.69,1.97l-0.04,0.2c0,0.36,0.21,0.9,0.82,1.21
			c0.09,0.05,0.19,0.09,0.36,0.14c0.82,0.19,1.4-0.23,1.61-0.5l0.09-0.12l0.55-2.75c0.47-0.03,0.93-0.08,1.38-0.16l0.21,2.89
			l0.05,0.19c0.03,0.06,0.13,0.29,0.4,0.5c0.07,0.04,0.13,0.09,0.22,0.13c0.3,0.15,0.65,0.2,1,0.14c0.83-0.14,1.2-0.75,1.28-1.09
			l0.04-0.14l-0.66-3.14l0.16-0.04c0.11-0.03,0.21-0.06,0.3-0.09l0.77-0.3l1.39,2.7l0.12,0.16c0.05,0.05,0.25,0.22,0.52,0.29
			c0.39,0.12,0.84,0.04,1.24-0.22c0.73-0.44,0.83-1.15,0.77-1.5l-0.02-0.15l-1.83-2.63c0.11-0.08,0.24-0.19,0.35-0.3L68,98.14
			c0.09-0.08,0.19-0.18,0.25-0.26l2.43,2.01l0.09,0.04c0.35,0.14,1.1,0.17,1.65-0.62C72.94,98.6,72.74,97.9,72.53,97.59z
			 M67.43,93.01c-2.11,4.16-6.98,6.06-11.34,4.43L33.17,85.82c-3.89-2.56-5.24-7.62-3.13-11.77c2.11-4.16,6.98-6.06,11.34-4.44
			l22.93,11.63C68.2,83.8,69.54,88.85,67.43,93.01z"/>
		<path d="M37.43,75.47c1.33,0.68,2.97,0.14,3.65-1.19c0.68-1.33,0.14-2.97-1.19-3.65c-1.33-0.68-2.97-0.14-3.65,1.19
			C35.57,73.15,36.1,74.79,37.43,75.47z M37.1,72.25c0.44-0.86,1.5-1.21,2.36-0.77c0.86,0.44,1.21,1.5,0.77,2.36
			s-1.5,1.21-2.36,0.77C37,74.17,36.66,73.12,37.1,72.25z"/>
		<path d="M36.17,79.36c-1.65-0.84-3.67-0.18-4.51,1.47c-0.84,1.65-0.18,3.67,1.47,4.51c1.65,0.84,3.67,0.18,4.51-1.47
			C38.48,82.22,37.82,80.2,36.17,79.36z M36.79,83.44c-0.6,1.18-2.04,1.65-3.22,1.05c-1.18-0.6-1.65-2.04-1.05-3.22
			c0.6-1.18,2.04-1.65,3.22-1.05C36.92,80.81,37.39,82.26,36.79,83.44z"/>
		<path d="M42.27,78.16c-0.97-0.49-2.15-0.1-2.65,0.87c-0.49,0.97-0.1,2.15,0.87,2.65c0.97,0.49,2.16,0.1,2.65-0.86
			S43.24,78.65,42.27,78.16z M42.28,80.37c-0.25,0.5-0.86,0.7-1.36,0.44c-0.5-0.25-0.7-0.86-0.44-1.36c0.25-0.5,0.86-0.7,1.36-0.44
			C42.34,79.27,42.54,79.88,42.28,80.37z"/>
		<path d="M50.48,75.4c-1.78-0.9-3.96-0.19-4.86,1.59s-0.19,3.96,1.59,4.86s3.96,0.19,4.86-1.59C52.97,78.48,52.25,76.3,50.48,75.4z
			 M51.21,79.83c-0.66,1.31-2.27,1.83-3.57,1.17s-1.83-2.27-1.17-3.57s2.27-1.83,3.57-1.17S51.87,78.52,51.21,79.83z"/>
		<path d="M46.44,83.62c-1.36-0.69-3.03-0.14-3.72,1.22s-0.15,3.03,1.22,3.72c1.36,0.69,3.03,0.15,3.72-1.22
			C48.35,85.97,47.8,84.31,46.44,83.62z M46.8,86.9c-0.45,0.89-1.54,1.25-2.43,0.79c-0.89-0.45-1.25-1.54-0.79-2.43
			c0.45-0.89,1.54-1.25,2.43-0.8C46.9,84.92,47.25,86.01,46.8,86.9z"/>
		<path d="M55.52,81.72c0.79,0.4,1.75,0.08,2.15-0.7s0.08-1.75-0.7-2.15c-0.79-0.4-1.75-0.08-2.15,0.7
			C54.42,80.36,54.73,81.32,55.52,81.72z M55.67,80c0.16-0.31,0.54-0.44,0.86-0.28c0.31,0.16,0.44,0.54,0.28,0.86
			c-0.16,0.31-0.54,0.44-0.86,0.28C55.63,80.7,55.51,80.32,55.67,80z"/>
		<path d="M57.12,85.69c-1.65-0.84-3.67-0.18-4.51,1.47c-0.84,1.65-0.18,3.67,1.47,4.51c1.65,0.84,3.67,0.18,4.51-1.47
			C59.43,88.55,58.77,86.53,57.12,85.69z M57.74,89.76c-0.6,1.18-2.04,1.65-3.22,1.05c-1.18-0.6-1.65-2.04-1.05-3.22
			c0.6-1.18,2.04-1.65,3.22-1.05C57.86,87.14,58.34,88.59,57.74,89.76z"/>
		<path d="M64.44,87.91c0.88,0.44,1.95,0.09,2.4-0.78c0.44-0.88,0.09-1.95-0.78-2.4c-0.88-0.44-1.95-0.09-2.4,0.78
			C63.21,86.39,63.56,87.47,64.44,87.91z M64.51,85.95c0.21-0.41,0.7-0.57,1.11-0.36c0.41,0.21,0.57,0.7,0.36,1.11
			c-0.21,0.41-0.7,0.57-1.11,0.36C64.47,86.85,64.31,86.36,64.51,85.95z"/>
		<path d="M61.61,92.26c-1.36-0.69-3.03-0.15-3.72,1.22c-0.69,1.36-0.15,3.03,1.22,3.72c1.36,0.69,3.03,0.15,3.72-1.22
			C63.51,94.62,62.97,92.95,61.61,92.26z M61.97,95.55c-0.45,0.89-1.54,1.25-2.43,0.79c-0.89-0.45-1.25-1.54-0.79-2.43
			s1.54-1.25,2.43-0.79C62.06,93.57,62.42,94.66,61.97,95.55z"/>
		<path d="M50.72,89.31c-0.8-0.4-1.78-0.08-2.18,0.71s-0.08,1.78,0.71,2.18c0.8,0.4,1.78,0.08,2.18-0.71S51.52,89.71,50.72,89.31z
			 M50.58,91.05c-0.17,0.33-0.57,0.46-0.89,0.29c-0.33-0.17-0.46-0.57-0.29-0.89s0.57-0.46,0.89-0.29
			C50.61,90.33,50.75,90.73,50.58,91.05z"/>
		<path d="M33.17,73.65c-0.79-0.4-1.75-0.08-2.15,0.7s-0.08,1.75,0.7,2.15c0.79,0.4,1.75,0.08,2.15-0.7S33.95,74.05,33.17,73.65z
			 M33.02,75.37c-0.16,0.32-0.55,0.44-0.86,0.28s-0.44-0.55-0.28-0.86c0.16-0.32,0.55-0.44,0.86-0.28S33.18,75.06,33.02,75.37z"/>
		<path d="M61.57,90.69c0.6,0.31,1.34,0.06,1.64-0.54c0.31-0.6,0.06-1.34-0.54-1.64c-0.6-0.31-1.34-0.06-1.64,0.54
			C60.73,89.65,60.97,90.39,61.57,90.69z M61.89,89.48c0.07-0.13,0.23-0.18,0.36-0.12c0.13,0.07,0.18,0.23,0.12,0.36
			c-0.07,0.13-0.23,0.18-0.36,0.12C61.87,89.77,61.82,89.61,61.89,89.48z"/>
	</g>
	<g>
		<path d="M172.94,154.46l0.09,0.02l2-0.47c0.01,0.07,0.04,0.15,0.06,0.23l0.23,0.71l-1.85,0.61l-0.1,0.05
			c-0.03,0.02-0.15,0.11-0.26,0.3c-0.06,0.13-0.17,0.36-0.03,0.74c0.2,0.51,0.62,0.66,0.84,0.67l0.1,0.01l1.9-0.8l0.12,0.24
			c0.04,0.08,0.08,0.14,0.09,0.14l0.19,0.3c0.01,0.01,0.01,0.03,0.02,0.04l-1.53,1.22l-0.09,0.09c-0.03,0.04-0.11,0.17-0.12,0.39
			c-0.01,0.28,0.1,0.54,0.3,0.75c0.34,0.36,0.76,0.38,1.04,0.29l0.09-0.03l1.43-1.49c0.16,0.15,0.33,0.26,0.33,0.27l0.34,0.23
			l-0.93,1.72l-0.04,0.12c-0.01,0.04-0.03,0.2,0.03,0.38c0.05,0.18,0.2,0.42,0.56,0.59c0.32,0.14,0.58,0.11,0.76,0.05
			c0.19-0.06,0.3-0.17,0.33-0.19l0.06-0.06l0.73-1.92c0.07,0.03,0.14,0.04,0.22,0.06c0.21,0.09,0.4,0.16,0.58,0.22l-0.17,1.86
			l0.01,0.13c0.05,0.23,0.31,0.63,0.92,0.65c0.29,0.01,0.57-0.09,0.73-0.26c0.14-0.13,0.2-0.27,0.22-0.3l0.03-0.08l-0.07-1.64
			c0.33,0.04,0.66,0.05,1,0.04l0.41,1.26l0.05,0.11c0.12,0.18,0.49,0.47,1.01,0.3c0.46-0.15,0.61-0.57,0.63-0.79l0-0.08l-0.34-1.03
			c0.18-0.04,0.35-0.09,0.52-0.15l0.48-0.16l0.31,0.94l0.05,0.1c0.12,0.18,0.48,0.48,1.01,0.31c0.46-0.15,0.62-0.57,0.63-0.79
			l0.01-0.08l-0.33-1.01l1-0.33l0.31,0.94l0.04,0.1c0.12,0.18,0.49,0.48,1.01,0.31c0.46-0.15,0.62-0.57,0.63-0.79l0-0.08l-0.33-1.01
			l1-0.33l0.31,0.94l0.05,0.1c0.12,0.18,0.48,0.47,1.01,0.3c0.46-0.15,0.61-0.57,0.63-0.79l0-0.08l-0.33-1.01l1-0.33l0.31,0.94
			l0.05,0.1c0.12,0.18,0.48,0.48,1.01,0.31c0.46-0.15,0.62-0.57,0.63-0.79l0.01-0.08l-0.33-1.01l1-0.33l0.31,0.94l0.04,0.1
			c0.12,0.18,0.49,0.48,1.01,0.31c0.46-0.15,0.62-0.57,0.63-0.79l0-0.08l-0.33-1.01l1-0.33l0.31,0.94l0.05,0.1
			c0.12,0.18,0.48,0.48,1.01,0.31c0.46-0.15,0.61-0.57,0.63-0.79l0-0.08l-0.36-1.09c0.32-0.15,0.62-0.33,0.92-0.53l0.55,1.14
			l0.07,0.11c0.16,0.17,0.5,0.31,0.93,0.18c0.06-0.02,0.13-0.05,0.23-0.1c0.46-0.29,0.53-0.74,0.5-0.96l-0.01-0.09l-0.93-1.39
			c0.22-0.23,0.42-0.47,0.61-0.71l1.29,1.12l0.11,0.07c0.04,0.02,0.19,0.07,0.41,0.04c0.05-0.01,0.1-0.02,0.16-0.04
			c0.21-0.07,0.39-0.2,0.52-0.39c0.31-0.44,0.2-0.89,0.09-1.08l-0.05-0.08l-1.66-1.08c0.12-0.26,0.23-0.52,0.32-0.8l1.84,0.59
			l0.13,0.02c0.04,0,0.21-0.02,0.37-0.11c0.23-0.12,0.4-0.36,0.47-0.66c0.13-0.53-0.15-0.9-0.33-1.03l-0.08-0.06l-2.03-0.36
			c0.01-0.09,0.02-0.18,0.02-0.23c0.02-0.19,0.03-0.39,0.03-0.6l2.01-0.19l0.06-0.02c0.22-0.09,0.58-0.42,0.47-1.03
			c-0.08-0.55-0.49-0.78-0.72-0.83l-0.09-0.02l-1.87,0.44c-0.06-0.32-0.14-0.62-0.23-0.91c-0.01-0.02-0.01-0.04-0.02-0.05l1.67-0.55
			l0.1-0.05c0.04-0.02,0.15-0.11,0.26-0.31c0.06-0.12,0.17-0.36,0.03-0.74c-0.19-0.51-0.62-0.66-0.84-0.67l-0.1-0.01l-1.84,0.77
			c-0.15-0.24-0.3-0.48-0.47-0.7l1.52-1.21l0.09-0.09c0.03-0.04,0.11-0.17,0.12-0.39c0.01-0.28-0.1-0.54-0.3-0.75
			c-0.34-0.36-0.76-0.38-1.04-0.29l-0.09,0.03l-1.43,1.49c-0.07-0.07-0.15-0.13-0.2-0.17c-0.16-0.13-0.31-0.24-0.46-0.35l0.92-1.7
			l0.04-0.12c0.01-0.04,0.03-0.2-0.03-0.38c-0.05-0.17-0.2-0.42-0.56-0.59c-0.32-0.14-0.58-0.11-0.76-0.05
			c-0.19,0.07-0.3,0.16-0.33,0.19l-0.07,0.06l-0.67,1.78c-0.27-0.11-0.56-0.21-0.85-0.3l0.16-1.7l-0.01-0.13
			c-0.05-0.23-0.31-0.63-0.92-0.65c-0.3-0.01-0.57,0.09-0.73,0.26c-0.14,0.13-0.2,0.26-0.22,0.3l-0.03,0.08l0.06,1.53
			c-0.35-0.03-0.69-0.03-1.02-0.01l-0.39-1.19l-0.05-0.11c-0.12-0.18-0.49-0.47-1.01-0.3c-0.46,0.15-0.61,0.57-0.63,0.79l0,0.08
			l0.33,1.02c-0.09,0.03-0.17,0.05-0.25,0.08l-0.74,0.24l-0.31-0.94l-0.05-0.1c-0.12-0.18-0.48-0.48-1.01-0.31
			c-0.46,0.15-0.62,0.57-0.63,0.79l-0.01,0.08l0.33,1.01l-1,0.33l-0.31-0.94l-0.05-0.1c-0.12-0.18-0.49-0.47-1.01-0.3
			c-0.46,0.15-0.62,0.57-0.63,0.79l0,0.08l0.33,1.01l-1,0.33l-0.31-0.94l-0.05-0.1c-0.12-0.18-0.48-0.48-1.01-0.31
			c-0.46,0.15-0.61,0.57-0.63,0.79l0,0.08l0.33,1.01l-1,0.33l-0.31-0.94l-0.05-0.1c-0.12-0.18-0.48-0.48-1.01-0.31
			c-0.46,0.15-0.62,0.57-0.63,0.79l-0.01,0.08l0.33,1.01l-1,0.33l-0.31-0.94l-0.05-0.1c-0.12-0.18-0.49-0.47-1.01-0.3
			c-0.46,0.15-0.62,0.57-0.63,0.79l0,0.08l0.33,1.01l-1,0.33l-0.31-0.94l-0.05-0.1c-0.12-0.18-0.48-0.48-1.01-0.31
			c-0.46,0.15-0.61,0.57-0.63,0.79l0,0.08l0.37,1.13c-0.31,0.16-0.61,0.35-0.9,0.55l-0.59-1.21l-0.07-0.11
			c-0.16-0.17-0.5-0.31-0.93-0.18c-0.06,0.02-0.13,0.05-0.23,0.1c-0.46,0.29-0.53,0.74-0.5,0.96l0.01,0.09l1,1.5
			c-0.2,0.22-0.39,0.46-0.56,0.7l-1.41-1.22l-0.11-0.06c-0.04-0.02-0.19-0.07-0.41-0.05c-0.05,0.01-0.1,0.02-0.16,0.04
			c-0.21,0.07-0.39,0.2-0.52,0.39c-0.31,0.44-0.2,0.89-0.09,1.08l0.05,0.08l1.73,1.13l-0.05,0.09c-0.04,0.06-0.07,0.12-0.1,0.18
			l-0.22,0.49l-1.86-0.6l-0.13-0.02c-0.04,0-0.21,0.01-0.37,0.1c-0.23,0.12-0.4,0.36-0.47,0.66c-0.13,0.54,0.15,0.9,0.33,1.03
			l0.08,0.06l2.03,0.36c-0.01,0.09-0.02,0.19-0.02,0.3l-0.01,0.31c0,0.08-0.01,0.17,0,0.23l-2.02,0.19l-0.06,0.02
			c-0.22,0.09-0.58,0.42-0.47,1.03C172.3,154.19,172.71,154.42,172.94,154.46z M177.34,154.23c-0.93-2.85,0.42-5.93,3.14-7.17
			l15.71-5.14c2.93-0.61,5.85,1.08,6.78,3.93c0.93,2.85-0.42,5.93-3.14,7.18l-15.72,5.14C181.19,158.76,178.27,157.08,177.34,154.23
			z"/>
		<path d="M198.96,148.56c-0.91,0.3-1.42,1.29-1.12,2.2s1.29,1.42,2.2,1.12s1.42-1.29,1.12-2.2
			C200.87,148.76,199.88,148.26,198.96,148.56z M200.58,149.87c0.19,0.59-0.13,1.23-0.72,1.42s-1.23-0.13-1.42-0.72
			c-0.19-0.59,0.13-1.23,0.72-1.42S200.39,149.28,200.58,149.87z"/>
		<path d="M197.77,146.22c1.13-0.37,1.75-1.59,1.38-2.72c-0.37-1.13-1.59-1.75-2.72-1.38c-1.13,0.37-1.75,1.59-1.38,2.72
			C195.42,145.97,196.64,146.59,197.77,146.22z M195.63,144.65c-0.26-0.81,0.18-1.68,0.99-1.94c0.81-0.26,1.68,0.18,1.94,0.99
			c0.26,0.81-0.18,1.68-0.99,1.94C196.77,145.9,195.9,145.45,195.63,144.65z"/>
		<path d="M195.54,149.54c0.66-0.22,1.03-0.93,0.81-1.6s-0.93-1.03-1.6-0.81s-1.03,0.93-0.81,1.6S194.88,149.75,195.54,149.54z
			 M194.53,148.54c-0.11-0.34,0.08-0.71,0.42-0.82c0.34-0.11,0.71,0.08,0.82,0.42c0.11,0.34-0.08,0.71-0.42,0.82
			C195.01,149.06,194.64,148.88,194.53,148.54z"/>
		<path d="M193.06,154.52c1.22-0.4,1.89-1.71,1.49-2.93s-1.71-1.89-2.93-1.49s-1.89,1.71-1.49,2.93
			C190.53,154.25,191.84,154.92,193.06,154.52z M190.72,152.84c-0.29-0.9,0.2-1.86,1.09-2.16c0.9-0.29,1.86,0.2,2.16,1.09
			c0.29,0.9-0.2,1.86-1.09,2.16C191.98,154.23,191.01,153.74,190.72,152.84z"/>
		<path d="M191.16,148.95c0.93-0.3,1.44-1.31,1.14-2.24s-1.31-1.44-2.24-1.14c-0.93,0.3-1.44,1.31-1.14,2.24
			C189.22,148.75,190.23,149.26,191.16,148.95z M189.5,147.62c-0.2-0.61,0.13-1.27,0.74-1.47c0.61-0.2,1.27,0.13,1.47,0.74
			s-0.13,1.27-0.74,1.47C190.36,148.57,189.7,148.23,189.5,147.62z"/>
		<path d="M187.9,153.94c-0.54,0.18-0.83,0.76-0.66,1.29s0.76,0.83,1.29,0.66s0.83-0.76,0.66-1.29
			C189.02,154.06,188.44,153.77,187.9,153.94z M188.61,154.79c0.07,0.22-0.05,0.45-0.26,0.52s-0.45-0.05-0.52-0.26
			c-0.07-0.22,0.05-0.45,0.26-0.52C188.31,154.46,188.54,154.58,188.61,154.79z"/>
		<path d="M185.36,152.86c1.13-0.37,1.75-1.59,1.38-2.72c-0.37-1.13-1.59-1.75-2.72-1.38c-1.13,0.37-1.75,1.59-1.38,2.72
			C183.01,152.62,184.23,153.23,185.36,152.86z M183.23,151.29c-0.26-0.81,0.18-1.68,0.99-1.94c0.81-0.26,1.68,0.18,1.94,0.99
			c0.26,0.81-0.18,1.68-0.99,1.94C184.36,152.54,183.49,152.1,183.23,151.29z"/>
		<path d="M181.02,155.18c-0.6,0.2-0.93,0.84-0.73,1.45s0.85,0.93,1.45,0.73c0.6-0.2,0.93-0.85,0.73-1.45
			C182.27,155.32,181.62,154.99,181.02,155.18z M181.88,156.11c0.09,0.28-0.06,0.58-0.34,0.67c-0.28,0.09-0.58-0.06-0.67-0.34
			c-0.09-0.28,0.06-0.58,0.34-0.67C181.49,155.68,181.79,155.83,181.88,156.11z"/>
		<path d="M180.33,151.92c0.93-0.3,1.44-1.31,1.14-2.24c-0.3-0.93-1.31-1.44-2.24-1.14c-0.93,0.3-1.44,1.31-1.14,2.24
			C178.39,151.71,179.4,152.22,180.33,151.92z M178.67,150.59c-0.2-0.61,0.13-1.27,0.74-1.47c0.61-0.2,1.27,0.13,1.47,0.74
			c0.2,0.61-0.13,1.27-0.74,1.47S178.87,151.2,178.67,150.59z"/>
		<path d="M186.63,148.31c0.55-0.18,0.85-0.77,0.67-1.32s-0.77-0.85-1.32-0.67c-0.55,0.18-0.85,0.77-0.67,1.32
			C185.49,148.19,186.08,148.49,186.63,148.31z M185.9,147.45c-0.07-0.22,0.05-0.47,0.27-0.54c0.22-0.07,0.47,0.05,0.54,0.27
			c0.07,0.22-0.05,0.47-0.27,0.54C186.21,147.8,185.97,147.68,185.9,147.45z"/>
		<path d="M201.73,147.45c0.54-0.18,0.83-0.76,0.66-1.3s-0.76-0.83-1.3-0.66s-0.83,0.76-0.66,1.3S201.19,147.62,201.73,147.45z
			 M201.02,146.6c-0.07-0.22,0.05-0.45,0.26-0.52s0.45,0.05,0.52,0.26s-0.05,0.45-0.26,0.52S201.09,146.81,201.02,146.6z"/>
		<path d="M181.06,152.61c-0.41,0.13-0.64,0.58-0.5,0.99c0.13,0.41,0.58,0.64,0.99,0.5c0.41-0.13,0.64-0.58,0.5-0.99
			C181.92,152.7,181.48,152.48,181.06,152.61z M181.47,153.31c0.03,0.09-0.02,0.19-0.11,0.22s-0.19-0.02-0.22-0.11
			c-0.03-0.09,0.02-0.19,0.11-0.22S181.44,153.22,181.47,153.31z"/>
	</g>
	<g>
		<path d="M237.4,162.48l0-0.09l-0.83-1.88c0.07-0.03,0.14-0.07,0.21-0.1l0.66-0.36l0.93,1.71l0.07,0.09
			c0.03,0.03,0.13,0.13,0.35,0.2c0.14,0.03,0.39,0.1,0.73-0.11c0.46-0.28,0.54-0.73,0.51-0.95l-0.01-0.1l-1.13-1.72l0.22-0.17
			c0.08-0.06,0.12-0.11,0.13-0.11l0.26-0.24c0.01-0.01,0.02-0.02,0.03-0.03l1.48,1.29l0.11,0.07c0.04,0.02,0.19,0.07,0.41,0.05
			c0.28-0.04,0.52-0.19,0.68-0.43c0.29-0.4,0.24-0.82,0.1-1.08l-0.05-0.08l-1.73-1.14c0.12-0.18,0.2-0.37,0.2-0.38l0.17-0.38
			l1.86,0.61l0.13,0.02c0.04,0,0.2-0.01,0.37-0.1c0.16-0.08,0.37-0.27,0.47-0.66c0.08-0.34,0-0.59-0.09-0.76
			c-0.09-0.17-0.22-0.26-0.25-0.29l-0.07-0.05l-2.02-0.37c0.01-0.07,0.02-0.15,0.02-0.23c0.05-0.22,0.08-0.42,0.12-0.61l1.86-0.16
			l0.12-0.03c0.22-0.09,0.56-0.41,0.47-1.03c-0.04-0.29-0.19-0.54-0.38-0.67c-0.15-0.11-0.3-0.15-0.33-0.16l-0.09-0.02l-1.6,0.36
			c-0.02-0.33-0.07-0.66-0.14-0.99l1.17-0.64l0.1-0.07c0.15-0.15,0.38-0.56,0.11-1.05c-0.23-0.43-0.67-0.5-0.89-0.48l-0.08,0.01
			l-0.96,0.52c-0.08-0.17-0.16-0.33-0.24-0.48l-0.24-0.45l0.87-0.47l0.09-0.07c0.16-0.15,0.38-0.56,0.12-1.05
			c-0.23-0.43-0.67-0.5-0.89-0.48l-0.08,0.01l-0.94,0.51l-0.5-0.92l0.87-0.47l0.09-0.06c0.16-0.15,0.38-0.57,0.12-1.05
			c-0.23-0.43-0.67-0.5-0.9-0.48l-0.08,0.01l-0.94,0.51l-0.5-0.92l0.87-0.47l0.09-0.07c0.15-0.15,0.38-0.56,0.12-1.04
			c-0.23-0.43-0.67-0.5-0.89-0.48l-0.08,0.01l-0.94,0.51l-0.5-0.92l0.87-0.47l0.09-0.07c0.16-0.15,0.38-0.56,0.12-1.05
			c-0.23-0.43-0.67-0.5-0.89-0.48l-0.08,0.01l-0.94,0.51l-0.5-0.92l0.87-0.47l0.09-0.06c0.16-0.15,0.38-0.57,0.12-1.05
			c-0.23-0.43-0.67-0.5-0.9-0.48l-0.08,0.01l-0.94,0.51l-0.5-0.92l0.87-0.47l0.09-0.07c0.16-0.15,0.38-0.56,0.12-1.05
			c-0.23-0.43-0.67-0.5-0.89-0.48l-0.08,0.01l-1.01,0.55c-0.21-0.29-0.44-0.55-0.68-0.81l1.02-0.75l0.09-0.09
			c0.13-0.19,0.22-0.55,0.01-0.94c-0.03-0.06-0.07-0.12-0.14-0.2c-0.37-0.4-0.82-0.39-1.03-0.32l-0.09,0.03l-1.2,1.17
			c-0.26-0.17-0.53-0.33-0.81-0.47l0.86-1.47l0.05-0.12c0.01-0.05,0.03-0.2-0.03-0.41c-0.02-0.05-0.03-0.1-0.06-0.15
			c-0.1-0.19-0.27-0.34-0.48-0.44c-0.49-0.23-0.91-0.04-1.08,0.11l-0.07,0.06l-0.76,1.83c-0.28-0.07-0.56-0.13-0.84-0.17l0.25-1.92
			l0-0.13c-0.01-0.04-0.06-0.21-0.17-0.35c-0.16-0.21-0.43-0.33-0.74-0.34c-0.55-0.03-0.86,0.31-0.96,0.51l-0.04,0.09l0.01,2.06
			c-0.09,0-0.18,0.01-0.23,0.02c-0.19,0.02-0.39,0.04-0.6,0.08l-0.55-1.94l-0.03-0.05c-0.13-0.2-0.52-0.49-1.1-0.27
			c-0.53,0.18-0.68,0.63-0.68,0.86l0,0.09l0.77,1.76c-0.3,0.12-0.59,0.25-0.86,0.39c-0.01,0.01-0.03,0.02-0.05,0.03l-0.84-1.54
			l-0.07-0.09c-0.03-0.03-0.14-0.13-0.35-0.2c-0.13-0.04-0.38-0.1-0.73,0.11c-0.46,0.28-0.54,0.73-0.51,0.95l0.01,0.1l1.09,1.67
			c-0.21,0.19-0.42,0.39-0.6,0.59l-1.47-1.28l-0.11-0.07c-0.04-0.02-0.19-0.07-0.41-0.05c-0.28,0.04-0.52,0.19-0.68,0.43
			c-0.29,0.4-0.24,0.82-0.1,1.08l0.05,0.08l1.73,1.14c-0.06,0.09-0.1,0.17-0.13,0.23c-0.1,0.18-0.18,0.35-0.26,0.52l-1.84-0.6
			l-0.13-0.02c-0.04,0-0.2,0.01-0.37,0.1c-0.16,0.08-0.38,0.27-0.47,0.66c-0.08,0.34,0,0.59,0.09,0.76c0.1,0.17,0.21,0.26,0.25,0.29
			l0.08,0.05l1.87,0.34c-0.06,0.29-0.11,0.59-0.14,0.89l-1.7,0.15l-0.12,0.03c-0.22,0.09-0.56,0.41-0.47,1.03
			c0.04,0.29,0.19,0.54,0.38,0.67c0.15,0.11,0.29,0.15,0.33,0.16l0.09,0.02l1.49-0.34c0.04,0.34,0.09,0.68,0.17,1.01l-1.1,0.6
			l-0.1,0.07c-0.15,0.15-0.38,0.56-0.11,1.05c0.23,0.43,0.67,0.5,0.89,0.48l0.08-0.01l0.94-0.51c0.04,0.08,0.08,0.16,0.12,0.24
			l0.37,0.69l-0.87,0.47l-0.09,0.07c-0.16,0.15-0.38,0.56-0.12,1.05c0.23,0.43,0.67,0.5,0.89,0.48l0.08-0.01l0.94-0.51l0.5,0.92
			l-0.87,0.47l-0.09,0.06c-0.15,0.15-0.38,0.56-0.12,1.04c0.23,0.43,0.67,0.5,0.9,0.48l0.08-0.01l0.94-0.51l0.5,0.92l-0.87,0.47
			l-0.09,0.07c-0.16,0.15-0.38,0.56-0.12,1.05c0.23,0.43,0.67,0.5,0.89,0.48l0.08-0.01l0.94-0.51l0.5,0.92l-0.87,0.47l-0.09,0.07
			c-0.16,0.15-0.38,0.56-0.12,1.05c0.23,0.43,0.67,0.5,0.89,0.48l0.08-0.01l0.94-0.51l0.5,0.92l-0.87,0.47l-0.09,0.06
			c-0.15,0.15-0.38,0.56-0.12,1.04c0.23,0.43,0.67,0.5,0.9,0.48l0.08-0.01l0.94-0.51l0.5,0.92l-0.87,0.47l-0.09,0.07
			c-0.16,0.15-0.38,0.56-0.12,1.05c0.23,0.43,0.67,0.5,0.89,0.48l0.08-0.01l1.05-0.57c0.22,0.28,0.45,0.54,0.71,0.78l-1.08,0.79
			l-0.09,0.09c-0.13,0.19-0.22,0.55-0.01,0.94c0.03,0.06,0.07,0.12,0.14,0.2c0.37,0.4,0.82,0.39,1.03,0.32l0.09-0.03l1.29-1.26
			c0.26,0.15,0.52,0.3,0.79,0.42l-0.94,1.61l-0.04,0.12c-0.01,0.04-0.04,0.2,0.03,0.41c0.02,0.05,0.04,0.1,0.07,0.15
			c0.1,0.19,0.27,0.34,0.48,0.44c0.49,0.23,0.91,0.04,1.08-0.11l0.07-0.06l0.8-1.91l0.1,0.04c0.07,0.02,0.13,0.05,0.19,0.06
			l0.52,0.13l-0.25,1.94l0,0.13c0.01,0.04,0.05,0.21,0.17,0.35c0.16,0.21,0.43,0.33,0.74,0.34c0.55,0.03,0.86-0.31,0.96-0.51
			l0.04-0.09l-0.01-2.06c0.09,0,0.19-0.01,0.3-0.03l0.3-0.04c0.08-0.01,0.16-0.02,0.23-0.04l0.56,1.95l0.03,0.05
			c0.13,0.2,0.52,0.49,1.1,0.27C237.25,163.16,237.4,162.72,237.4,162.48z M236.38,158.19c-2.63,1.43-5.91,0.66-7.62-1.79
			l-7.89-14.53c-1.13-2.78,0.01-5.94,2.64-7.38c2.63-1.43,5.91-0.66,7.63,1.79l7.9,14.53C240.15,153.6,239.01,156.76,236.38,158.19z
			"/>
		<path d="M226.9,137.95c0.46,0.85,1.52,1.16,2.37,0.7c0.85-0.46,1.16-1.52,0.7-2.37c-0.46-0.85-1.52-1.16-2.37-0.7
			C226.75,136.05,226.44,137.11,226.9,137.95z M227.89,136.13c0.55-0.3,1.23-0.09,1.53,0.45s0.09,1.23-0.45,1.53
			s-1.23,0.09-1.53-0.45S227.35,136.43,227.89,136.13z"/>
		<path d="M224.81,139.56c-0.57-1.04-1.88-1.43-2.92-0.86c-1.04,0.57-1.43,1.88-0.86,2.92c0.57,1.04,1.88,1.43,2.92,0.86
			C224.99,141.91,225.38,140.6,224.81,139.56z M223.65,141.94c-0.75,0.41-1.68,0.13-2.09-0.62c-0.41-0.75-0.13-1.68,0.62-2.09
			c0.75-0.41,1.68-0.13,2.09,0.62C224.67,140.6,224.4,141.53,223.65,141.94z"/>
		<path d="M228.48,141.15c-0.33-0.61-1.1-0.84-1.72-0.51c-0.61,0.33-0.84,1.1-0.51,1.72c0.33,0.61,1.1,0.84,1.72,0.51
			C228.58,142.53,228.81,141.76,228.48,141.15z M227.68,142.32c-0.31,0.17-0.71,0.05-0.88-0.26c-0.17-0.31-0.05-0.71,0.26-0.88
			s0.71-0.05,0.88,0.26S227.99,142.15,227.68,142.32z"/>
		<path d="M233.83,142.68c-0.61-1.13-2.03-1.54-3.15-0.93c-1.13,0.61-1.54,2.03-0.93,3.15c0.61,1.13,2.03,1.54,3.15,0.93
			C234.02,145.22,234.44,143.81,233.83,142.68z M232.6,145.29c-0.83,0.45-1.87,0.14-2.32-0.69c-0.45-0.83-0.14-1.87,0.69-2.32
			s1.87-0.14,2.32,0.69C233.74,143.8,233.43,144.84,232.6,145.29z"/>
		<path d="M228.69,145.56c-0.47-0.86-1.55-1.18-2.41-0.71c-0.86,0.47-1.18,1.55-0.71,2.41s1.55,1.18,2.41,0.71
			S229.16,146.42,228.69,145.56z M227.68,147.43c-0.56,0.31-1.27,0.1-1.58-0.47s-0.1-1.27,0.47-1.58c0.56-0.31,1.27-0.1,1.58,0.47
			S228.25,147.12,227.68,147.43z"/>
		<path d="M234.19,147.86c0.27,0.5,0.89,0.68,1.39,0.41c0.5-0.27,0.68-0.89,0.41-1.39s-0.89-0.68-1.39-0.41
			C234.11,146.74,233.92,147.37,234.19,147.86z M234.9,147.01c0.2-0.11,0.45-0.03,0.56,0.16c0.11,0.2,0.03,0.45-0.16,0.56
			c-0.2,0.11-0.45,0.03-0.56-0.16C234.62,147.37,234.7,147.12,234.9,147.01z"/>
		<path d="M233.59,150.55c-0.57-1.04-1.88-1.43-2.92-0.86c-1.04,0.57-1.43,1.88-0.86,2.92c0.57,1.04,1.88,1.43,2.92,0.86
			C233.77,152.91,234.16,151.6,233.59,150.55z M232.43,152.94c-0.75,0.41-1.68,0.13-2.09-0.62c-0.41-0.75-0.13-1.68,0.62-2.09
			c0.75-0.41,1.68-0.13,2.09,0.62C233.45,151.59,233.18,152.53,232.43,152.94z"/>
		<path d="M236.65,154.4c0.3,0.56,1,0.76,1.55,0.46c0.56-0.3,0.76-1,0.46-1.55c-0.3-0.56-1-0.76-1.55-0.46
			C236.56,153.15,236.35,153.85,236.65,154.4z M237.41,153.39c0.26-0.14,0.58-0.04,0.72,0.21c0.14,0.26,0.04,0.58-0.21,0.72
			c-0.26,0.14-0.58,0.04-0.72-0.21C237.06,153.85,237.15,153.53,237.41,153.39z"/>
		<path d="M233.57,155.67c-0.47-0.86-1.55-1.18-2.41-0.71c-0.86,0.47-1.18,1.55-0.71,2.41c0.47,0.86,1.55,1.18,2.41,0.71
			S234.04,156.53,233.57,155.67z M232.56,157.54c-0.56,0.31-1.27,0.1-1.58-0.47s-0.1-1.27,0.47-1.58c0.56-0.31,1.27-0.1,1.58,0.47
			S233.12,157.24,232.56,157.54z"/>
		<path d="M228.88,150.13c-0.27-0.51-0.91-0.69-1.42-0.42c-0.51,0.27-0.69,0.91-0.42,1.42c0.27,0.51,0.91,0.69,1.42,0.42
			C228.97,151.27,229.16,150.64,228.88,150.13z M228.17,151.01c-0.21,0.11-0.47,0.04-0.58-0.17c-0.11-0.21-0.04-0.47,0.17-0.58
			s0.47-0.04,0.58,0.17C228.45,150.63,228.38,150.89,228.17,151.01z"/>
		<path d="M225.3,135.44c-0.27-0.5-0.9-0.68-1.39-0.41c-0.5,0.27-0.68,0.9-0.41,1.39c0.27,0.5,0.9,0.68,1.39,0.41
			C225.39,136.56,225.57,135.93,225.3,135.44z M224.59,136.29c-0.2,0.11-0.45,0.03-0.56-0.17c-0.11-0.2-0.03-0.45,0.17-0.56
			c0.2-0.11,0.45-0.03,0.56,0.17C224.87,135.93,224.79,136.18,224.59,136.29z"/>
		<path d="M234.12,154.83c0.21,0.38,0.69,0.52,1.07,0.32c0.38-0.21,0.52-0.69,0.32-1.07c-0.21-0.38-0.69-0.52-1.07-0.32
			C234.05,153.97,233.91,154.44,234.12,154.83z M234.73,154.3c0.08-0.04,0.19-0.01,0.23,0.07c0.04,0.08,0.01,0.19-0.07,0.23
			c-0.08,0.05-0.19,0.01-0.23-0.07C234.62,154.45,234.65,154.34,234.73,154.3z"/>
	</g>
	<g>
		<path d="M171.99,26.72l-0.08,0.09l-0.78,2.56c-0.09-0.03-0.2-0.05-0.3-0.07l-0.95-0.21l0.54-2.48l0.01-0.15
			c-0.01-0.05-0.02-0.24-0.17-0.49c-0.1-0.15-0.3-0.43-0.81-0.52c-0.7-0.11-1.16,0.26-1.31,0.5l-0.07,0.1l-0.35,2.66l-0.36-0.02
			c-0.12-0.01-0.21,0-0.22,0l-0.46,0.02c-0.02,0-0.04,0-0.05,0l-0.36-2.53l-0.05-0.16c-0.03-0.05-0.12-0.23-0.36-0.4
			c-0.31-0.2-0.67-0.25-1.03-0.16c-0.62,0.15-0.93,0.61-1.01,0.98l-0.02,0.12l0.74,2.59c-0.27,0.08-0.51,0.2-0.52,0.2l-0.49,0.23
			l-1.32-2.18l-0.11-0.13c-0.04-0.04-0.21-0.16-0.45-0.21c-0.23-0.06-0.6-0.05-1.03,0.25c-0.37,0.27-0.5,0.59-0.56,0.82
			c-0.05,0.25-0.01,0.44,0,0.5l0.03,0.11l1.68,2.08c-0.07,0.06-0.14,0.13-0.22,0.21c-0.24,0.18-0.44,0.34-0.64,0.51l-1.98-1.42
			l-0.15-0.08c-0.29-0.09-0.91-0.07-1.34,0.61c-0.21,0.32-0.27,0.7-0.19,0.99c0.06,0.24,0.16,0.4,0.19,0.44l0.07,0.09l1.89,1
			c-0.26,0.34-0.49,0.72-0.7,1.1L157,33.95l-0.15-0.02c-0.28,0.02-0.85,0.24-1,0.94c-0.13,0.62,0.24,1.06,0.48,1.23l0.09,0.06
			l1.39,0.3c-0.07,0.24-0.13,0.46-0.17,0.68l-0.14,0.65l-1.26-0.27l-0.14-0.01c-0.28,0.02-0.85,0.23-1.01,0.93
			c-0.13,0.62,0.23,1.07,0.48,1.23l0.09,0.06l1.36,0.29l-0.29,1.33l-1.26-0.27l-0.14-0.01c-0.28,0.02-0.86,0.24-1.01,0.93
			c-0.13,0.62,0.23,1.07,0.48,1.24l0.09,0.06l1.36,0.29l-0.29,1.33l-1.26-0.27l-0.15-0.01c-0.28,0.02-0.85,0.23-1,0.93
			c-0.13,0.62,0.24,1.06,0.48,1.23l0.09,0.06l1.36,0.29l-0.29,1.33l-1.26-0.27l-0.14-0.01c-0.28,0.02-0.85,0.23-1.01,0.93
			c-0.13,0.62,0.23,1.07,0.48,1.23l0.09,0.06l1.36,0.29l-0.29,1.33l-1.26-0.27L153,51.79c-0.28,0.02-0.86,0.24-1.01,0.93
			c-0.13,0.62,0.23,1.07,0.48,1.24l0.09,0.06l1.36,0.29l-0.29,1.33l-1.26-0.27l-0.14-0.01c-0.28,0.02-0.85,0.23-1.01,0.93
			c-0.13,0.62,0.24,1.06,0.48,1.23l0.09,0.06l1.46,0.32c-0.04,0.46-0.04,0.92-0.01,1.38l-1.64-0.13l-0.17,0.01
			c-0.3,0.07-0.69,0.36-0.81,0.93c-0.02,0.08-0.03,0.17-0.04,0.32c0.02,0.71,0.48,1.08,0.75,1.2l0.12,0.05l2.17-0.13
			c0.11,0.4,0.25,0.78,0.4,1.15l-2.11,0.72l-0.15,0.08c-0.05,0.04-0.2,0.17-0.31,0.43c-0.02,0.06-0.05,0.13-0.07,0.2
			c-0.06,0.28-0.02,0.57,0.1,0.84c0.29,0.64,0.86,0.81,1.16,0.81l0.12,0l2.31-1.16c0.21,0.31,0.44,0.6,0.68,0.89l-1.88,1.68
			l-0.1,0.13c-0.03,0.05-0.12,0.25-0.12,0.49c-0.01,0.34,0.14,0.69,0.44,0.96c0.52,0.5,1.11,0.43,1.38,0.31l0.12-0.05l1.74-2.04
			c0.09,0.07,0.19,0.14,0.25,0.18c0.2,0.15,0.42,0.29,0.66,0.43l-1.1,2.38l-0.01,0.08c-0.04,0.31,0.1,0.92,0.86,1.2
			c0.67,0.27,1.2-0.04,1.41-0.27l0.08-0.09l0.73-2.39c0.4,0.14,0.79,0.25,1.18,0.34c0.02,0,0.05,0.01,0.07,0.01l-0.48,2.24
			l-0.01,0.15c0,0.05,0.02,0.25,0.17,0.5c0.1,0.15,0.29,0.42,0.81,0.52c0.7,0.12,1.16-0.26,1.31-0.5l0.07-0.1l0.34-2.58
			c0.37-0.01,0.74-0.03,1.1-0.07l0.36,2.51l0.05,0.16c0.03,0.06,0.12,0.23,0.36,0.4c0.31,0.2,0.67,0.25,1.03,0.16
			c0.62-0.15,0.93-0.61,1.01-0.98l0.02-0.12l-0.74-2.59c0.13-0.04,0.25-0.08,0.33-0.12c0.25-0.09,0.48-0.19,0.7-0.29l1.31,2.16
			l0.11,0.13c0.04,0.04,0.21,0.16,0.45,0.21c0.23,0.06,0.6,0.05,1.03-0.25c0.37-0.27,0.5-0.59,0.56-0.82c0.05-0.25,0.01-0.44,0-0.49
			l-0.03-0.12l-1.56-1.92c0.31-0.23,0.61-0.49,0.9-0.76l1.81,1.3l0.15,0.08c0.29,0.09,0.91,0.07,1.34-0.61
			c0.21-0.33,0.27-0.7,0.19-0.99c-0.06-0.24-0.16-0.4-0.19-0.44l-0.07-0.09l-1.76-0.93c0.26-0.37,0.49-0.75,0.69-1.14l1.59,0.34
			l0.15,0.02c0.28-0.02,0.85-0.24,1-0.94c0.13-0.62-0.24-1.06-0.48-1.23l-0.09-0.06l-1.37-0.3c0.03-0.12,0.05-0.23,0.08-0.34
			l0.21-0.99l1.26,0.27l0.14,0.01c0.28-0.02,0.85-0.23,1.01-0.93c0.13-0.62-0.23-1.07-0.48-1.23l-0.09-0.06l-1.36-0.29l0.29-1.33
			l1.26,0.27l0.14,0.01c0.28-0.02,0.85-0.24,1-0.93c0.13-0.62-0.23-1.07-0.48-1.24l-0.09-0.06l-1.36-0.29l0.29-1.33l1.26,0.27
			l0.14,0.01c0.28-0.02,0.85-0.23,1.01-0.93c0.13-0.62-0.24-1.06-0.48-1.23l-0.09-0.06l-1.36-0.29l0.29-1.33l1.26,0.27l0.14,0.01
			c0.28-0.02,0.85-0.23,1.01-0.93c0.13-0.62-0.23-1.07-0.48-1.23l-0.09-0.06l-1.36-0.29l0.29-1.33l1.26,0.27l0.14,0.01
			c0.28-0.02,0.85-0.24,1-0.93c0.13-0.62-0.23-1.07-0.48-1.24l-0.09-0.06l-1.36-0.29l0.29-1.33L179,42.3l0.14,0.01
			c0.28-0.02,0.85-0.23,1.01-0.93c0.13-0.62-0.24-1.06-0.48-1.23l-0.09-0.06l-1.52-0.33c0.02-0.46,0.01-0.92-0.03-1.38l1.74,0.14
			l0.17-0.01c0.3-0.07,0.69-0.36,0.81-0.93c0.02-0.08,0.03-0.17,0.04-0.32c-0.02-0.71-0.48-1.08-0.75-1.2l-0.12-0.05l-2.35,0.14
			c-0.12-0.37-0.26-0.74-0.42-1.09l2.3-0.79l0.14-0.08c0.05-0.03,0.21-0.17,0.32-0.43c0.02-0.06,0.04-0.13,0.06-0.21
			c0.06-0.28,0.02-0.57-0.1-0.84c-0.29-0.64-0.86-0.81-1.16-0.81l-0.12,0l-2.41,1.2l-0.07-0.12c-0.05-0.08-0.09-0.16-0.14-0.23
			l-0.4-0.56l1.9-1.7l0.1-0.13c0.03-0.05,0.12-0.25,0.13-0.49c0.01-0.34-0.14-0.69-0.44-0.96c-0.52-0.5-1.11-0.43-1.38-0.31
			l-0.12,0.05l-1.74,2.04c-0.09-0.07-0.2-0.15-0.32-0.22l-0.34-0.22c-0.09-0.06-0.18-0.12-0.26-0.15l1.11-2.4l0.01-0.08
			c0.04-0.31-0.1-0.92-0.86-1.2C172.72,26.18,172.19,26.49,171.99,26.72z M169.36,31.83c3.82,0.83,6.4,4.37,6.01,8.25l-4.55,21.06
			c-1.25,3.7-5.06,5.86-8.88,5.04c-3.82-0.83-6.4-4.37-6.01-8.25l4.55-21.07C161.73,33.17,165.54,31.01,169.36,31.83z"/>
		<path d="M161.51,59.89c0.27-1.23-0.52-2.44-1.74-2.7c-1.23-0.27-2.44,0.52-2.7,1.74c-0.27,1.23,0.52,2.44,1.74,2.7
			C160.03,61.9,161.25,61.11,161.51,59.89z M158.98,60.85c-0.79-0.17-1.3-0.96-1.13-1.75c0.17-0.79,0.96-1.3,1.75-1.13
			c0.79,0.17,1.3,0.96,1.13,1.75S159.77,61.02,158.98,60.85z"/>
		<path d="M164.94,60.08c-0.33,1.51,0.64,3.01,2.15,3.34c1.51,0.33,3.01-0.64,3.34-2.15c0.33-1.51-0.64-3.01-2.15-3.34
			C166.76,57.6,165.27,58.57,164.94,60.08z M168.11,58.71c1.08,0.23,1.77,1.3,1.54,2.39c-0.23,1.08-1.3,1.77-2.39,1.54
			c-1.08-0.23-1.77-1.3-1.54-2.39S167.03,58.48,168.11,58.71z"/>
		<path d="M162.67,55.39c-0.19,0.89,0.37,1.77,1.26,1.96c0.89,0.19,1.77-0.37,1.96-1.26c0.19-0.89-0.37-1.77-1.26-1.96
			C163.74,53.94,162.86,54.5,162.67,55.39z M164.46,54.91c0.46,0.1,0.75,0.55,0.65,1.01c-0.1,0.46-0.55,0.75-1.01,0.65
			c-0.46-0.1-0.75-0.55-0.65-1.01C163.55,55.11,164,54.81,164.46,54.91z"/>
		<path d="M158.69,49.33c-0.35,1.63,0.69,3.25,2.32,3.6c1.63,0.35,3.25-0.69,3.6-2.32c0.35-1.63-0.69-3.25-2.32-3.6
			S159.04,47.69,158.69,49.33z M162.12,47.79c1.2,0.26,1.97,1.45,1.71,2.65c-0.26,1.2-1.45,1.97-2.65,1.71
			c-1.2-0.26-1.97-1.45-1.71-2.65S160.92,47.53,162.12,47.79z"/>
		<path d="M166.2,50.85c-0.27,1.25,0.53,2.49,1.78,2.76s2.49-0.53,2.76-1.78c0.27-1.25-0.53-2.49-1.78-2.76S166.47,49.6,166.2,50.85
			z M168.79,49.86c0.82,0.18,1.34,0.99,1.16,1.8s-0.99,1.34-1.8,1.16s-1.34-0.99-1.16-1.8C167.17,50.21,167.97,49.68,168.79,49.86z"
			/>
		<path d="M162.73,43.9c0.16-0.72-0.3-1.43-1.02-1.59c-0.72-0.16-1.43,0.3-1.59,1.02s0.3,1.43,1.02,1.59S162.58,44.62,162.73,43.9z
			 M161.31,44.14c-0.29-0.06-0.47-0.35-0.41-0.64c0.06-0.29,0.35-0.47,0.64-0.41c0.29,0.06,0.47,0.35,0.41,0.64
			C161.89,44.02,161.6,44.2,161.31,44.14z"/>
		<path d="M165.62,41.75c-0.33,1.51,0.64,3.01,2.15,3.34s3.01-0.64,3.34-2.15s-0.64-3.01-2.15-3.34
			C167.44,39.27,165.94,40.24,165.62,41.75z M168.79,40.39c1.08,0.23,1.77,1.3,1.54,2.39s-1.3,1.77-2.39,1.54
			c-1.08-0.23-1.77-1.3-1.54-2.39C166.64,40.84,167.71,40.15,168.79,40.39z"/>
		<path d="M165.86,35.34c0.17-0.81-0.34-1.6-1.14-1.78c-0.81-0.17-1.6,0.34-1.78,1.14c-0.17,0.81,0.34,1.6,1.14,1.78
			S165.69,36.15,165.86,35.34z M164.26,35.7c-0.37-0.08-0.61-0.45-0.53-0.82c0.08-0.37,0.45-0.61,0.82-0.53
			c0.37,0.08,0.61,0.45,0.53,0.82C165,35.55,164.63,35.78,164.26,35.7z"/>
		<path d="M169.99,36.72c-0.27,1.25,0.53,2.49,1.78,2.76s2.49-0.53,2.76-1.78c0.27-1.25-0.53-2.49-1.78-2.76
			C171.5,34.67,170.26,35.47,169.99,36.72z M172.58,35.72c0.82,0.18,1.34,0.99,1.16,1.8c-0.18,0.82-0.99,1.34-1.8,1.16
			s-1.34-0.99-1.16-1.8C170.95,36.07,171.76,35.55,172.58,35.72z"/>
		<path d="M169.91,46.17c-0.16,0.73,0.31,1.46,1.04,1.62s1.46-0.31,1.62-1.04c0.16-0.73-0.31-1.46-1.04-1.62
			C170.79,44.97,170.07,45.44,169.91,46.17z M171.36,45.92c0.3,0.06,0.49,0.36,0.43,0.66c-0.06,0.3-0.36,0.49-0.66,0.43
			s-0.49-0.36-0.43-0.66C170.76,46.04,171.06,45.85,171.36,45.92z"/>
		<path d="M160.95,63.73c-0.16,0.72,0.3,1.44,1.03,1.59s1.44-0.3,1.59-1.03c0.16-0.72-0.3-1.44-1.03-1.59
			C161.82,62.55,161.11,63.01,160.95,63.73z M162.37,63.49c0.29,0.06,0.47,0.35,0.41,0.64c-0.06,0.29-0.35,0.47-0.64,0.41
			s-0.47-0.35-0.41-0.64C161.8,63.61,162.08,63.43,162.37,63.49z"/>
		<path d="M168.73,37.08c0.12-0.55-0.23-1.1-0.79-1.22c-0.55-0.12-1.1,0.23-1.22,0.79c-0.12,0.55,0.23,1.1,0.79,1.22
			C168.06,37.99,168.61,37.63,168.73,37.08z M167.68,37.08c-0.12-0.03-0.2-0.15-0.17-0.27c0.03-0.12,0.14-0.2,0.26-0.17
			c0.12,0.03,0.2,0.14,0.17,0.26C167.92,37.03,167.8,37.11,167.68,37.08z"/>
	</g>
	<g>
		<g>
			<path d="M118.23,137.92l-6.35-2.09c-0.86-0.28-1.33-1.21-1.05-2.07l0,0c0.28-0.86,1.21-1.33,2.07-1.05l6.35,2.09
				c0.86,0.28,1.33,1.21,1.05,2.07l0,0C120.02,137.73,119.09,138.21,118.23,137.92z"/>
		</g>
		<g>
			<path d="M109.3,144.25l-3.77,5.52c-0.51,0.75-1.54,0.94-2.28,0.43l0,0c-0.75-0.51-0.94-1.54-0.43-2.28l3.77-5.52
				c0.51-0.75,1.54-0.94,2.28-0.43l0,0C109.62,142.48,109.81,143.51,109.3,144.25z"/>
		</g>
		<g>
			<path d="M125.78,154.49l-0.36-6.67c-0.05-0.9,0.65-1.68,1.55-1.73l0,0c0.9-0.05,1.68,0.65,1.73,1.55l0.36,6.67
				c0.05,0.9-0.65,1.68-1.55,1.73l0,0C126.61,156.09,125.83,155.39,125.78,154.49z"/>
		</g>
		<g>
			<path d="M128.11,139.99l-5.46,3.85c-0.74,0.52-1.77,0.34-2.29-0.4l0,0c-0.52-0.74-0.34-1.77,0.4-2.29l5.46-3.85
				c0.74-0.52,1.77-0.34,2.29,0.4l0,0C129.02,138.44,128.84,139.47,128.11,139.99z"/>
		</g>
		<g>
			<path d="M117.14,152.44l-4.63-4.82c-0.63-0.65-0.6-1.7,0.05-2.32l0,0c0.65-0.63,1.7-0.6,2.32,0.05l4.63,4.82
				c0.63,0.65,0.6,1.7-0.05,2.32l0,0C118.81,153.11,117.77,153.09,117.14,152.44z"/>
		</g>
		<g>
			<path d="M119.56,160.4h-6.68c-0.9,0-1.64-0.74-1.64-1.64l0,0c0-0.9,0.74-1.64,1.64-1.64h6.68c0.9,0,1.64,0.74,1.64,1.64l0,0
				C121.2,159.67,120.46,160.4,119.56,160.4z"/>
		</g>
	</g>
	<g>
		<g>
			<path d="M145.37,160.2l6.33,2.14c0.86,0.29,1.32,1.23,1.03,2.08l0,0c-0.29,0.86-1.23,1.32-2.08,1.03l-6.33-2.14
				c-0.86-0.29-1.32-1.23-1.03-2.08l0,0C143.57,160.38,144.51,159.91,145.37,160.2z"/>
		</g>
		<g>
			<path d="M154.34,153.95l3.82-5.49c0.52-0.74,1.54-0.93,2.28-0.41l0,0c0.74,0.52,0.93,1.54,0.41,2.28l-3.82,5.49
				c-0.52,0.74-1.54,0.93-2.28,0.41l0,0C154.01,155.72,153.83,154.69,154.34,153.95z"/>
		</g>
		<g>
			<path d="M137.95,143.58l0.3,6.68c0.04,0.9-0.66,1.67-1.56,1.71l0,0c-0.9,0.04-1.67-0.66-1.71-1.56l-0.3-6.68
				c-0.04-0.9,0.66-1.67,1.56-1.71l0,0C137.13,141.97,137.9,142.68,137.95,143.58z"/>
		</g>
		<g>
			<path d="M135.51,158.05l5.49-3.81c0.74-0.51,1.77-0.33,2.28,0.41l0,0c0.51,0.74,0.33,1.77-0.41,2.28l-5.49,3.81
				c-0.74,0.51-1.77,0.33-2.28-0.41l0,0C134.58,159.6,134.76,158.57,135.51,158.05z"/>
		</g>
		<g>
			<path d="M146.57,145.7l4.59,4.86c0.62,0.66,0.59,1.7-0.06,2.32l0,0c-0.66,0.62-1.7,0.59-2.32-0.06l-4.59-4.86
				c-0.62-0.66-0.59-1.7,0.06-2.32l0,0C144.91,145.01,145.95,145.04,146.57,145.7z"/>
		</g>
		<g>
			<path d="M144.21,137.71l6.68,0.05c0.9,0.01,1.63,0.75,1.63,1.65l0,0c-0.01,0.9-0.75,1.63-1.65,1.63l-6.68-0.05
				c-0.9-0.01-1.63-0.75-1.63-1.65l0,0C142.57,138.44,143.31,137.71,144.21,137.71z"/>
		</g>
	</g>
	<g>
		<g>
			<path d="M123.75,122.72l-1.24,6.57c-0.17,0.89-1.03,1.48-1.92,1.31l0,0c-0.89-0.17-1.48-1.03-1.31-1.92l1.24-6.57
				c0.17-0.89,1.03-1.48,1.92-1.31l0,0C123.33,120.97,123.91,121.83,123.75,122.72z"/>
		</g>
		<g>
			<path d="M131.19,130.74l5.97,3.02c0.81,0.41,1.13,1.4,0.72,2.21l0,0c-0.41,0.81-1.4,1.13-2.21,0.72l-5.97-3.02
				c-0.81-0.41-1.13-1.4-0.72-2.21l0,0C129.39,130.66,130.39,130.33,131.19,130.74z"/>
		</g>
		<g>
			<path d="M139.18,113.06l-6.57,1.23c-0.89,0.17-1.75-0.42-1.91-1.31l0,0c-0.17-0.89,0.42-1.75,1.31-1.91l6.57-1.23
				c0.89-0.17,1.75,0.42,1.91,1.31l0,0C140.66,112.03,140.07,112.9,139.18,113.06z"/>
		</g>
		<g>
			<path d="M124.51,112.66l4.53,4.91c0.61,0.66,0.57,1.71-0.09,2.32l0,0c-0.66,0.61-1.71,0.57-2.32-0.09l-4.53-4.91
				c-0.61-0.66-0.57-1.71,0.09-2.32l0,0C122.85,111.95,123.89,111.99,124.51,112.66z"/>
		</g>
		<g>
			<path d="M138.28,121.9l-4.17,5.22c-0.56,0.71-1.6,0.82-2.31,0.26l0,0c-0.71-0.56-0.82-1.6-0.26-2.31l4.17-5.22
				c0.56-0.71,1.6-0.82,2.31-0.26l0,0C138.73,120.15,138.84,121.19,138.28,121.9z"/>
		</g>
		<g>
			<path d="M145.86,118.45l0.88,6.63c0.12,0.89-0.52,1.72-1.41,1.84l0,0c-0.89,0.12-1.72-0.52-1.84-1.41l-0.88-6.63
				c-0.12-0.89,0.52-1.72,1.41-1.84l0,0C144.91,116.92,145.74,117.56,145.86,118.45z"/>
		</g>
	</g>
	<g>
		<g>
			<path d="M173,132.49l4.88-4.57c0.66-0.62,1.7-0.58,2.32,0.08l0,0c0.62,0.66,0.58,1.7-0.08,2.32l-4.88,4.57
				c-0.66,0.62-1.7,0.58-2.32-0.08l0,0C172.31,134.15,172.34,133.1,173,132.49z"/>
		</g>
		<g>
			<path d="M171.73,121.62l-3.03-5.96c-0.41-0.8-0.09-1.8,0.72-2.21l0,0c0.8-0.41,1.8-0.09,2.21,0.72l3.03,5.96
				c0.41,0.8,0.09,1.8-0.72,2.21l0,0C173.14,122.75,172.14,122.42,171.73,121.62z"/>
		</g>
		<g>
			<path d="M154.84,131.16l6.03,2.89c0.81,0.39,1.16,1.38,0.77,2.19l0,0c-0.39,0.81-1.38,1.16-2.19,0.77l-6.03-2.89
				c-0.81-0.39-1.16-1.38-0.77-2.19l0,0C153.04,131.12,154.03,130.77,154.84,131.16z"/>
		</g>
		<g>
			<path d="M166.45,140.16l-0.76-6.64c-0.1-0.9,0.55-1.71,1.44-1.82l0,0c0.9-0.1,1.71,0.55,1.82,1.44l0.76,6.64
				c0.1,0.9-0.55,1.71-1.44,1.82l0,0C167.36,141.7,166.55,141.05,166.45,140.16z"/>
		</g>
		<g>
			<path d="M160.79,124.56l6.45-1.75c0.87-0.24,1.78,0.28,2.01,1.15l0,0c0.24,0.87-0.28,1.78-1.15,2.01l-6.45,1.75
				c-0.87,0.24-1.78-0.28-2.01-1.15l0,0C159.4,125.7,159.92,124.8,160.79,124.56z"/>
		</g>
		<g>
			<path d="M152.64,122.86l3.21-5.86c0.43-0.79,1.44-1.08,2.23-0.65l0,0c0.79,0.43,1.08,1.44,0.65,2.23l-3.21,5.86
				c-0.43,0.79-1.44,1.08-2.23,0.65l0,0C152.5,124.66,152.21,123.65,152.64,122.86z"/>
		</g>
	</g>
	<g>
		<g>
			<path d="M139.48,41.68l4.88-4.57c0.66-0.62,1.7-0.58,2.32,0.08l0,0c0.62,0.66,0.58,1.7-0.08,2.32l-4.88,4.57
				c-0.66,0.62-1.7,0.58-2.32-0.08l0,0C138.78,43.34,138.82,42.3,139.48,41.68z"/>
		</g>
		<g>
			<path d="M138.21,30.82l-3.03-5.96c-0.41-0.8-0.09-1.8,0.72-2.21l0,0c0.8-0.41,1.8-0.09,2.21,0.72l3.03,5.96
				c0.41,0.8,0.09,1.8-0.72,2.21l0,0C139.61,31.94,138.62,31.62,138.21,30.82z"/>
		</g>
		<g>
			<path d="M121.32,40.36l6.03,2.89c0.81,0.39,1.16,1.38,0.77,2.19l0,0c-0.39,0.81-1.38,1.16-2.19,0.77l-6.03-2.89
				c-0.81-0.39-1.16-1.38-0.77-2.19l0,0C119.52,40.31,120.5,39.97,121.32,40.36z"/>
		</g>
		<g>
			<path d="M132.92,49.35l-0.76-6.64c-0.1-0.9,0.55-1.71,1.44-1.82l0,0c0.9-0.1,1.71,0.55,1.82,1.44l0.76,6.64
				c0.1,0.9-0.55,1.71-1.44,1.82l0,0C133.84,50.9,133.02,50.25,132.92,49.35z"/>
		</g>
		<g>
			<path d="M127.26,33.76l6.45-1.75c0.87-0.24,1.78,0.28,2.01,1.15l0,0c0.24,0.87-0.28,1.78-1.15,2.01l-6.45,1.75
				c-0.87,0.24-1.78-0.28-2.01-1.15l0,0C125.87,34.9,126.39,34,127.26,33.76z"/>
		</g>
		<g>
			<path d="M119.12,32.06l3.21-5.86c0.43-0.79,1.44-1.08,2.23-0.65l0,0c0.79,0.43,1.08,1.44,0.65,2.23l-3.21,5.86
				c-0.43,0.79-1.44,1.08-2.23,0.65l0,0C118.98,33.85,118.68,32.85,119.12,32.06z"/>
		</g>
	</g>
	<g>
		<path class="st0" d="M118.68,61.19c-0.11,0.28-0.18,0.57-0.21,0.79c-0.02,0.23-0.03,0.38-0.03,0.38s0.01,0.15,0.03,0.38
			c0.03,0.22,0.1,0.51,0.21,0.79c0.12,0.27,0.27,0.53,0.42,0.71c0.14,0.18,0.25,0.28,0.25,0.28s0.11,0.11,0.28,0.25
			c0.17,0.15,0.44,0.29,0.71,0.42c0.28,0.11,0.57,0.18,0.79,0.21c0.23,0.02,0.38,0.03,0.38,0.03s0.15-0.01,0.38-0.03
			c0.22-0.03,0.51-0.1,0.79-0.21c0.27-0.12,0.53-0.27,0.71-0.42c0.18-0.14,0.28-0.25,0.28-0.25s0.11-0.11,0.25-0.28
			c0.15-0.17,0.29-0.44,0.42-0.71c0.11-0.28,0.18-0.57,0.21-0.79c0.02-0.23,0.03-0.38,0.03-0.38s-0.01-0.15-0.03-0.38
			c-0.03-0.22-0.1-0.51-0.21-0.79c-0.12-0.27-0.27-0.53-0.42-0.71c-0.14-0.18-0.25-0.28-0.25-0.28s-0.11-0.11-0.28-0.25
			c-0.17-0.15-0.44-0.29-0.71-0.42c-0.28-0.11-0.57-0.18-0.79-0.21c-0.23-0.02-0.38-0.03-0.38-0.03s-0.15,0.01-0.38,0.03
			c-0.22,0.03-0.51,0.09-0.79,0.21c-0.27,0.12-0.53,0.27-0.71,0.42c-0.18,0.14-0.28,0.25-0.28,0.25s-0.11,0.11-0.25,0.28
			C118.96,60.65,118.81,60.92,118.68,61.19z"/>
		<path class="st0" d="M133.01,92.05c-0.01-0.25-0.06-0.49-0.12-0.67c-0.07-0.17-0.12-0.28-0.13-0.28c0,0-0.05-0.11-0.16-0.26
			c-0.06-0.07-0.12-0.16-0.2-0.23c-0.06-0.05-0.05-0.06-0.16-0.15l-0.29-0.26c-0.79-0.69-1.58-1.38-1.58-1.38l-3.15-2.75l-3.15-2.75
			c0,0.01-0.09-0.08-0.25-0.18c-0.15-0.11-0.37-0.21-0.61-0.27c-0.24-0.06-0.49-0.07-0.67-0.07c-0.09,0.01-0.17,0.02-0.22,0.03
			c-0.05,0.01-0.08,0.02-0.08,0.02s-0.12,0.02-0.3,0.08c-0.17,0.07-0.39,0.18-0.58,0.33c-0.19,0.14-0.35,0.34-0.45,0.5
			c-0.11,0.15-0.14,0.27-0.15,0.26c0,0-0.22,0.45-0.19,0.95c0.01,0.25,0.06,0.49,0.12,0.67c0.07,0.17,0.12,0.28,0.13,0.28
			c0,0,0.05,0.11,0.16,0.26c0.06,0.07,0.12,0.16,0.2,0.23c0.06,0.05,0.05,0.06,0.16,0.15l0.29,0.26c0.79,0.69,1.58,1.38,1.58,1.38
			l3.15,2.75l3.15,2.75c0-0.01,0.09,0.08,0.25,0.18c0.15,0.11,0.37,0.21,0.61,0.27c0.24,0.06,0.49,0.08,0.67,0.07
			c0.09-0.01,0.17-0.02,0.22-0.03c0.05-0.01,0.08-0.02,0.08-0.02s0.12-0.02,0.3-0.08c0.17-0.07,0.39-0.18,0.58-0.33
			c0.2-0.14,0.35-0.34,0.45-0.5c0.11-0.15,0.14-0.27,0.15-0.26C132.82,93.01,133.04,92.56,133.01,92.05z"/>
		<path class="st0" d="M112.29,101.26c0.05-0.16,0.09-0.33,0.13-0.48c0.02-0.16,0.04-0.3,0.06-0.43c0.01-0.26,0.02-0.43,0.02-0.43
			s-0.02-0.17-0.02-0.43c-0.02-0.13-0.04-0.27-0.06-0.43c-0.04-0.15-0.08-0.32-0.13-0.48c-0.11-0.32-0.25-0.63-0.38-0.85
			c-0.12-0.22-0.23-0.35-0.23-0.35s-0.4-0.56-0.96-0.96c-0.27-0.21-0.58-0.36-0.81-0.47c-0.24-0.09-0.39-0.15-0.39-0.15
			s-0.65-0.22-1.34-0.21c-0.69,0-1.34,0.21-1.34,0.21s-0.16,0.06-0.39,0.15c-0.23,0.11-0.53,0.26-0.81,0.47
			c-0.56,0.4-0.96,0.96-0.96,0.96s-0.11,0.13-0.23,0.35c-0.14,0.21-0.27,0.53-0.38,0.85c-0.05,0.16-0.09,0.33-0.13,0.48
			c-0.02,0.16-0.04,0.3-0.06,0.43c-0.01,0.26-0.02,0.43-0.02,0.43s0.02,0.17,0.02,0.43c0.02,0.13,0.04,0.27,0.06,0.43
			c0.04,0.15,0.08,0.32,0.13,0.48c0.11,0.32,0.25,0.63,0.38,0.85c0.12,0.22,0.23,0.35,0.23,0.35s0.4,0.56,0.96,0.96
			c0.27,0.21,0.58,0.36,0.81,0.47c0.24,0.09,0.39,0.15,0.39,0.15s0.65,0.22,1.34,0.21c0.69,0,1.34-0.21,1.34-0.21
			s0.16-0.06,0.39-0.15c0.23-0.11,0.53-0.26,0.81-0.47c0.56-0.4,0.96-0.96,0.96-0.96s0.11-0.13,0.23-0.35
			C112.05,101.89,112.18,101.57,112.29,101.26z"/>
		<path class="st0" d="M148.85,81.59c0.13-0.27,0.22-0.56,0.24-0.79c0.03-0.23,0.02-0.38,0.03-0.38c-0.01,0,0-0.16-0.03-0.38
			c-0.02-0.23-0.11-0.52-0.24-0.79c-0.13-0.27-0.31-0.53-0.47-0.69c-0.16-0.16-0.28-0.26-0.28-0.26s-0.48-0.4-1.08-0.52
			c-0.29-0.06-0.61-0.08-0.84-0.06c-0.23,0.03-0.37,0.06-0.37,0.06s-0.61,0.12-1.08,0.52c-0.24,0.19-0.44,0.43-0.57,0.61
			c-0.05,0.1-0.11,0.18-0.14,0.24c-0.03,0.06-0.04,0.09-0.04,0.09s-0.07,0.13-0.14,0.35c-0.06,0.22-0.12,0.51-0.13,0.82
			c0,0.31,0.07,0.61,0.13,0.82c0.08,0.21,0.14,0.35,0.14,0.35s0.02,0.03,0.04,0.09c0.03,0.06,0.09,0.14,0.14,0.24
			c0.13,0.19,0.33,0.42,0.57,0.61c0.48,0.4,1.08,0.52,1.08,0.52s0.15,0.03,0.37,0.06c0.23,0.02,0.54,0,0.84-0.06
			c0.6-0.12,1.08-0.52,1.08-0.52s0.12-0.1,0.28-0.26C148.55,82.12,148.72,81.86,148.85,81.59z"/>
		<path d="M116.58,61.45c-0.02,0.1-0.04,0.23-0.06,0.37c-0.02,0.27-0.03,0.54-0.03,0.54s0.02,0.27,0.03,0.54
			c0.02,0.13,0.04,0.27,0.06,0.37c0.01,0.1,0.03,0.17,0.03,0.17l-2.77,0.6c0,0,0.15,0.68,0.41,1.33c0.27,0.64,0.64,1.23,0.64,1.23
			l2.38-1.53c0,0,0.03,0.06,0.09,0.14c0.06,0.08,0.14,0.19,0.22,0.3c0.17,0.21,0.36,0.4,0.36,0.4s0.2,0.19,0.4,0.36
			c0.11,0.08,0.22,0.16,0.3,0.22c0.08,0.06,0.14,0.09,0.14,0.09l-1.53,2.38c0,0,0.58,0.38,1.23,0.64c0.64,0.27,1.33,0.41,1.33,0.41
			l0.6-2.77c0,0,0.06,0.02,0.17,0.03c0.1,0.02,0.23,0.04,0.37,0.06c0.27,0.02,0.54,0.03,0.54,0.03s0.27-0.02,0.54-0.03
			c0.13-0.02,0.27-0.04,0.37-0.06c0.1-0.01,0.17-0.03,0.17-0.03l0.6,2.77c0,0,0.68-0.15,1.33-0.41c0.64-0.27,1.23-0.64,1.23-0.64
			l-1.53-2.38c0,0,0.06-0.03,0.14-0.09c0.08-0.06,0.19-0.14,0.3-0.22c0.21-0.17,0.4-0.36,0.4-0.36s0.19-0.2,0.36-0.4
			c0.08-0.11,0.16-0.22,0.22-0.3c0.06-0.08,0.09-0.14,0.09-0.14l2.38,1.53c0,0,0.38-0.58,0.64-1.23c0.27-0.64,0.41-1.33,0.41-1.33
			l-2.77-0.6c0,0,0.02-0.06,0.03-0.17c0.02-0.1,0.04-0.23,0.06-0.37c0.02-0.27,0.03-0.54,0.03-0.54s-0.02-0.27-0.03-0.54
			c-0.02-0.13-0.04-0.27-0.06-0.37c-0.01-0.1-0.03-0.17-0.03-0.17l2.77-0.6c0,0-0.15-0.68-0.41-1.33c-0.27-0.64-0.64-1.23-0.64-1.23
			l-2.38,1.53c0,0-0.03-0.06-0.09-0.14c-0.06-0.08-0.14-0.19-0.22-0.3c-0.17-0.21-0.36-0.4-0.36-0.4s-0.2-0.19-0.4-0.36
			c-0.11-0.08-0.22-0.16-0.3-0.22c-0.08-0.06-0.14-0.09-0.14-0.09l1.53-2.38c0,0-0.58-0.38-1.23-0.64
			c-0.64-0.27-1.33-0.41-1.33-0.41l-0.6,2.77c0,0-0.06-0.02-0.17-0.03c-0.1-0.02-0.23-0.04-0.37-0.06
			c-0.27-0.02-0.54-0.03-0.54-0.03s-0.27,0.02-0.54,0.03c-0.13,0.02-0.27,0.04-0.37,0.06c-0.1,0.01-0.17,0.03-0.17,0.03l-0.6-2.77
			c0,0-0.68,0.15-1.33,0.41c-0.64,0.27-1.23,0.64-1.23,0.64l1.53,2.38c0,0-0.06,0.03-0.14,0.09c-0.08,0.06-0.19,0.14-0.3,0.22
			c-0.21,0.17-0.4,0.36-0.4,0.36s-0.19,0.2-0.36,0.4c-0.08,0.11-0.16,0.22-0.22,0.3c-0.06,0.08-0.09,0.14-0.09,0.14l-2.38-1.53
			c0,0-0.38,0.58-0.64,1.23c-0.27,0.64-0.41,1.33-0.41,1.33l2.77,0.6C116.61,61.28,116.59,61.34,116.58,61.45z M119.63,59.95
			c0.17-0.15,0.44-0.29,0.71-0.42c0.28-0.11,0.57-0.18,0.79-0.21c0.23-0.02,0.38-0.03,0.38-0.03s0.15,0.01,0.38,0.03
			c0.22,0.03,0.51,0.09,0.79,0.21c0.27,0.12,0.53,0.27,0.71,0.42c0.18,0.14,0.28,0.25,0.28,0.25s0.11,0.11,0.25,0.28
			c0.15,0.17,0.29,0.44,0.42,0.71c0.11,0.28,0.18,0.57,0.21,0.79c0.02,0.23,0.03,0.38,0.03,0.38s-0.01,0.15-0.03,0.38
			c-0.03,0.22-0.1,0.51-0.21,0.79c-0.12,0.27-0.27,0.53-0.42,0.71c-0.14,0.18-0.25,0.28-0.25,0.28s-0.11,0.11-0.28,0.25
			c-0.17,0.15-0.44,0.29-0.71,0.42c-0.28,0.11-0.57,0.18-0.79,0.21c-0.23,0.02-0.38,0.03-0.38,0.03s-0.15-0.01-0.38-0.03
			c-0.22-0.03-0.51-0.1-0.79-0.21c-0.27-0.12-0.53-0.27-0.71-0.42c-0.18-0.14-0.28-0.25-0.28-0.25s-0.11-0.11-0.25-0.28
			c-0.15-0.17-0.29-0.44-0.42-0.71c-0.11-0.28-0.18-0.57-0.21-0.79c-0.02-0.23-0.03-0.38-0.03-0.38s0.01-0.15,0.03-0.38
			c0.03-0.22,0.1-0.51,0.21-0.79c0.12-0.27,0.27-0.53,0.42-0.71c0.14-0.18,0.25-0.28,0.25-0.28S119.45,60.09,119.63,59.95z"/>
		<path d="M114.44,100.46c0.01-0.27,0.03-0.54,0.03-0.54s-0.01-0.27-0.03-0.54c-0.02-0.27-0.07-0.54-0.07-0.54l2.79-0.48
			c0,0-0.02-0.16-0.07-0.4c-0.06-0.23-0.13-0.55-0.23-0.86c-0.11-0.3-0.21-0.61-0.31-0.83c-0.1-0.22-0.17-0.36-0.17-0.36l-2.54,1.25
			c0.02-0.01-0.53-0.95-0.56-0.93c0.02-0.01-0.69-0.84-0.71-0.82l1.97-2.03c0,0-0.12-0.11-0.3-0.27c-0.17-0.17-0.43-0.36-0.69-0.55
			c-0.52-0.38-1.09-0.69-1.09-0.69l-1.33,2.5c0,0-0.24-0.12-0.49-0.24c-0.25-0.09-0.51-0.19-0.51-0.19s-0.06-0.03-0.16-0.05
			c-0.1-0.03-0.23-0.06-0.36-0.09c-0.13-0.04-0.27-0.06-0.37-0.07c-0.1-0.02-0.17-0.03-0.17-0.03l0.4-2.81c0,0-0.16-0.03-0.4-0.05
			c-0.24-0.01-0.56-0.03-0.88-0.04c-0.32,0.02-0.64,0.03-0.88,0.04c-0.24,0.03-0.4,0.05-0.4,0.05l0.4,2.81c0,0-0.07,0.01-0.17,0.03
			c-0.1,0.01-0.24,0.03-0.37,0.07c-0.13,0.03-0.26,0.07-0.36,0.09c-0.1,0.02-0.16,0.05-0.16,0.05s-0.25,0.09-0.51,0.19
			c-0.24,0.12-0.49,0.24-0.49,0.24l-1.33-2.5c0,0-0.57,0.3-1.09,0.69c-0.26,0.19-0.52,0.39-0.69,0.55c-0.18,0.16-0.3,0.27-0.3,0.27
			l1.97,2.03c-0.02-0.02-0.73,0.81-0.71,0.82c-0.03-0.02-0.58,0.91-0.56,0.93L100,95.91c0,0-0.07,0.15-0.17,0.36
			c-0.1,0.22-0.2,0.53-0.31,0.83c-0.1,0.31-0.17,0.62-0.23,0.86c-0.06,0.23-0.08,0.4-0.08,0.4l2.79,0.48c0,0-0.05,0.27-0.07,0.54
			c-0.01,0.27-0.03,0.54-0.03,0.54s0.01,0.27,0.03,0.54c0.02,0.27,0.07,0.54,0.07,0.54l-2.79,0.48c0,0,0.02,0.16,0.07,0.4
			c0.06,0.23,0.13,0.55,0.23,0.86c0.11,0.3,0.21,0.61,0.31,0.83c0.1,0.22,0.17,0.36,0.17,0.36l2.54-1.25
			c-0.02,0.01,0.53,0.95,0.56,0.93c-0.02,0.01,0.69,0.84,0.71,0.82l-1.97,2.03c0,0,0.12,0.11,0.3,0.27
			c0.17,0.17,0.43,0.36,0.69,0.55c0.52,0.38,1.09,0.69,1.09,0.69l1.33-2.5c0,0,0.24,0.12,0.49,0.24c0.25,0.09,0.51,0.19,0.51,0.19
			s0.06,0.03,0.16,0.05c0.1,0.03,0.23,0.06,0.36,0.09c0.13,0.04,0.27,0.06,0.37,0.07c0.1,0.02,0.17,0.03,0.17,0.03l-0.4,2.81
			c0,0,0.16,0.03,0.4,0.05c0.24,0.01,0.56,0.03,0.88,0.04c0.32-0.02,0.64-0.03,0.88-0.04c0.24-0.03,0.4-0.05,0.4-0.05l-0.4-2.81
			c0,0,0.07-0.01,0.17-0.03c0.1-0.01,0.24-0.03,0.37-0.07c0.13-0.03,0.26-0.07,0.36-0.09c0.1-0.02,0.16-0.05,0.16-0.05
			s0.25-0.09,0.51-0.19c0.24-0.12,0.49-0.24,0.49-0.24l1.33,2.5c0,0,0.57-0.3,1.09-0.69c0.26-0.19,0.52-0.39,0.69-0.55
			c0.18-0.16,0.3-0.27,0.3-0.27l-1.97-2.03c0.02,0.02,0.73-0.81,0.71-0.82c0.03,0.02,0.58-0.91,0.56-0.93l2.54,1.25
			c0,0,0.07-0.15,0.17-0.36c0.1-0.22,0.2-0.53,0.31-0.83c0.1-0.31,0.17-0.62,0.23-0.86c0.06-0.23,0.07-0.4,0.07-0.4l-2.79-0.48
			C114.37,101,114.42,100.73,114.44,100.46z M110.72,103.41c-0.27,0.21-0.58,0.36-0.81,0.47c-0.24,0.09-0.39,0.15-0.39,0.15
			s-0.65,0.22-1.34,0.21c-0.69,0-1.34-0.21-1.34-0.21s-0.16-0.06-0.39-0.15c-0.23-0.11-0.53-0.26-0.81-0.47
			c-0.56-0.4-0.96-0.96-0.96-0.96s-0.11-0.13-0.23-0.35c-0.14-0.21-0.27-0.53-0.38-0.85c-0.05-0.16-0.09-0.33-0.13-0.48
			c-0.02-0.16-0.04-0.3-0.06-0.43c-0.01-0.26-0.02-0.43-0.02-0.43s0.02-0.17,0.02-0.43c0.02-0.13,0.04-0.27,0.06-0.43
			c0.04-0.15,0.08-0.32,0.13-0.48c0.11-0.32,0.25-0.63,0.38-0.85c0.12-0.22,0.23-0.35,0.23-0.35s0.4-0.56,0.96-0.96
			c0.27-0.21,0.58-0.36,0.81-0.47c0.24-0.09,0.39-0.15,0.39-0.15s0.65-0.22,1.34-0.21c0.69,0,1.34,0.21,1.34,0.21
			s0.16,0.06,0.39,0.15c0.23,0.11,0.53,0.26,0.81,0.47c0.56,0.4,0.96,0.96,0.96,0.96s0.11,0.13,0.23,0.35
			c0.14,0.21,0.27,0.53,0.38,0.85c0.05,0.16,0.09,0.33,0.13,0.48c0.02,0.16,0.04,0.3,0.06,0.43c0.01,0.26,0.02,0.43,0.02,0.43
			s-0.02,0.17-0.02,0.43c-0.02,0.13-0.04,0.27-0.06,0.43c-0.04,0.15-0.08,0.32-0.13,0.48c-0.11,0.32-0.25,0.63-0.38,0.85
			c-0.12,0.22-0.23,0.35-0.23,0.35S111.28,103.02,110.72,103.41z"/>
		<path d="M150.94,81.55c0,0,0.02-0.07,0.05-0.17c0.02-0.11,0.04-0.25,0.06-0.39c0.03-0.29,0.04-0.58,0.04-0.58
			s-0.01-0.29-0.04-0.58c-0.02-0.14-0.05-0.28-0.06-0.39c-0.03-0.1-0.05-0.17-0.05-0.17l2.75-0.69c0,0-0.04-0.19-0.13-0.46
			c-0.1-0.27-0.22-0.63-0.39-0.97c-0.15-0.35-0.36-0.66-0.51-0.91c-0.16-0.23-0.28-0.38-0.28-0.38l-2.25,1.72
			c0,0-0.04-0.06-0.11-0.14c-0.07-0.08-0.17-0.19-0.27-0.29c-0.21-0.2-0.43-0.39-0.43-0.39s-0.06-0.04-0.14-0.11
			c-0.08-0.07-0.2-0.15-0.33-0.22c-0.12-0.08-0.25-0.15-0.35-0.19c-0.1-0.05-0.16-0.08-0.16-0.08l1.17-2.58c0,0-0.69-0.33-1.44-0.48
			c-0.74-0.17-1.5-0.18-1.5-0.18l-0.06,2.83c0,0-0.07-0.01-0.18,0c-0.11,0.01-0.25,0.01-0.4,0.02c-0.14,0.02-0.29,0.04-0.39,0.06
			c-0.11,0.01-0.18,0.04-0.18,0.04s-0.07,0.02-0.17,0.04c-0.11,0.02-0.24,0.06-0.38,0.12c-0.14,0.05-0.27,0.1-0.37,0.15
			c-0.1,0.05-0.16,0.08-0.16,0.08L143,73.73c0,0-0.68,0.34-1.27,0.82c-0.6,0.47-1.08,1.06-1.08,1.06l2.17,1.82
			c0,0-0.18,0.23-0.34,0.47c-0.16,0.24-0.28,0.5-0.28,0.5s-0.13,0.26-0.22,0.53c-0.09,0.27-0.15,0.56-0.15,0.56l-2.78-0.57
			c0,0-0.15,0.75-0.15,1.5c0,0.76,0.15,1.5,0.15,1.5l2.78-0.57c0,0,0.06,0.28,0.15,0.56c0.09,0.27,0.22,0.53,0.22,0.53
			s0.12,0.26,0.28,0.5c0.16,0.24,0.34,0.47,0.34,0.47l-2.17,1.82c0,0,0.49,0.58,1.08,1.06c0.59,0.48,1.27,0.82,1.27,0.82l1.29-2.52
			c0,0,0.06,0.03,0.16,0.08c0.1,0.05,0.23,0.1,0.37,0.15c0.13,0.05,0.27,0.1,0.38,0.12c0.1,0.03,0.17,0.04,0.17,0.04
			s0.07,0.03,0.18,0.04c0.11,0.02,0.25,0.04,0.39,0.06c0.14,0.01,0.29,0.01,0.4,0.02c0.11,0.01,0.18,0,0.18,0l0.06,2.83
			c0,0,0.76-0.01,1.5-0.18c0.75-0.16,1.44-0.49,1.44-0.49l-1.17-2.58c0,0,0.06-0.03,0.16-0.08c0.1-0.04,0.22-0.12,0.35-0.19
			c0.13-0.07,0.24-0.15,0.33-0.22c0.09-0.06,0.14-0.11,0.14-0.11s0.22-0.19,0.43-0.39c0.1-0.11,0.19-0.21,0.27-0.29
			c0.06-0.09,0.11-0.14,0.11-0.14l2.25,1.72c0,0,0.12-0.15,0.28-0.38c0.15-0.24,0.36-0.56,0.51-0.91c0.18-0.34,0.29-0.7,0.39-0.97
			c0.08-0.27,0.13-0.46,0.13-0.46L150.94,81.55z M147.02,83.06c-0.29,0.06-0.61,0.08-0.84,0.06c-0.23-0.03-0.37-0.06-0.37-0.06
			s-0.61-0.12-1.08-0.52c-0.24-0.19-0.44-0.43-0.57-0.61c-0.05-0.1-0.11-0.18-0.14-0.24c-0.03-0.06-0.04-0.09-0.04-0.09
			s-0.07-0.13-0.14-0.35c-0.06-0.22-0.12-0.51-0.13-0.82c0-0.31,0.07-0.61,0.13-0.82c0.08-0.21,0.14-0.35,0.14-0.35
			s0.02-0.03,0.04-0.09c0.03-0.06,0.09-0.14,0.14-0.24c0.13-0.19,0.33-0.42,0.57-0.61c0.48-0.4,1.08-0.52,1.08-0.52
			s0.15-0.03,0.37-0.06c0.23-0.02,0.54,0,0.84,0.06c0.6,0.12,1.08,0.52,1.08,0.52s0.12,0.1,0.28,0.26c0.17,0.16,0.34,0.42,0.47,0.69
			c0.13,0.27,0.22,0.56,0.24,0.79c0.03,0.23,0.02,0.38,0.03,0.38c-0.01,0,0,0.16-0.03,0.38c-0.02,0.23-0.11,0.52-0.24,0.79
			c-0.13,0.27-0.31,0.53-0.47,0.69c-0.16,0.16-0.28,0.26-0.28,0.26S147.62,82.94,147.02,83.06z"/>
		<path d="M136.24,96.51l-2.19-1.8c0,0,0.04-0.05,0.1-0.13c0.06-0.07,0.13-0.18,0.2-0.29c0.07-0.11,0.14-0.22,0.18-0.31
			c0.04-0.09,0.07-0.14,0.07-0.14s0.1-0.24,0.19-0.48c0.03-0.13,0.07-0.25,0.09-0.34c0.02-0.1,0.03-0.16,0.03-0.16l2.79,0.5
			c0,0,0.14-0.71,0.11-1.43c-0.01-0.72-0.19-1.42-0.19-1.42l-2.76,0.66c0,0-0.06-0.25-0.15-0.5c-0.05-0.12-0.1-0.24-0.14-0.33
			c-0.05-0.09-0.08-0.14-0.08-0.14s-0.12-0.23-0.27-0.44c-0.07-0.11-0.16-0.21-0.22-0.28c-0.06-0.07-0.1-0.12-0.1-0.12l2.08-1.92
			c0.02,0.01-0.59-0.58-0.87-0.82c-0.35-0.31-0.71-0.62-0.71-0.62l-1.86,2.13l-0.87-0.76l-0.87-0.76l1.86-2.13l-1.42-1.24
			l-1.86,2.13l-0.87-0.76l-0.87-0.76l1.86-2.13l-1.42-1.24l-1.86,2.13l-0.87-0.76c0,0-0.2-0.17-0.41-0.31
			c-0.21-0.15-0.45-0.26-0.45-0.26l1.26-2.54c0,0-0.65-0.34-1.35-0.5c-0.7-0.19-1.42-0.21-1.42-0.21l-0.13,2.83
			c0,0-0.26-0.01-0.52,0.01c-0.13,0.02-0.26,0.03-0.36,0.04c-0.1,0.02-0.16,0.03-0.16,0.03s-0.26,0.05-0.5,0.14
			c-0.24,0.09-0.48,0.2-0.48,0.2l-1.26-2.54c0,0-0.65,0.32-1.22,0.78c-0.58,0.44-1.03,1.01-1.03,1.01l2.19,1.8
			c0,0-0.04,0.05-0.1,0.13c-0.06,0.07-0.13,0.18-0.2,0.29c-0.07,0.11-0.14,0.22-0.18,0.31c-0.04,0.09-0.07,0.14-0.07,0.14
			s-0.1,0.24-0.19,0.48c-0.03,0.13-0.07,0.25-0.09,0.34c-0.02,0.1-0.03,0.16-0.03,0.16l-2.79-0.5c0,0-0.14,0.71-0.11,1.43
			c0.01,0.72,0.19,1.42,0.19,1.42l2.76-0.66c0,0,0.06,0.25,0.15,0.5c0.05,0.12,0.1,0.24,0.14,0.33c0.05,0.09,0.08,0.14,0.08,0.14
			s0.12,0.23,0.27,0.44c0.07,0.11,0.16,0.21,0.22,0.28c0.06,0.07,0.1,0.12,0.1,0.12l-2.08,1.92c-0.02-0.01,0.59,0.58,0.87,0.82
			c0.35,0.31,0.71,0.62,0.71,0.62l1.86-2.13l0.87,0.76l0.87,0.76l-1.86,2.13l1.42,1.24l1.86-2.13l0.87,0.76l0.87,0.76l-1.86,2.13
			l1.42,1.24l1.86-2.13l0.87,0.76c0,0,0.2,0.17,0.41,0.31c0.21,0.15,0.45,0.26,0.45,0.26l-1.26,2.54c0,0,0.65,0.34,1.35,0.5
			c0.7,0.19,1.42,0.21,1.42,0.21l0.13-2.83c0,0,0.26,0.01,0.52-0.01c0.13-0.02,0.26-0.03,0.36-0.04c0.1-0.02,0.16-0.03,0.16-0.03
			s0.26-0.05,0.5-0.14c0.24-0.09,0.48-0.2,0.48-0.2l1.26,2.54c0,0,0.65-0.32,1.22-0.78C135.78,97.08,136.24,96.51,136.24,96.51z
			 M132.67,93.27c-0.1,0.15-0.25,0.35-0.45,0.5c-0.19,0.15-0.41,0.26-0.58,0.33c-0.18,0.06-0.3,0.08-0.3,0.08s-0.03,0.01-0.08,0.02
			c-0.05,0.01-0.13,0.02-0.22,0.03c-0.19,0.01-0.44-0.01-0.67-0.07c-0.24-0.06-0.46-0.16-0.61-0.27c-0.15-0.1-0.24-0.19-0.25-0.18
			l-3.15-2.75l-3.15-2.75c0,0-0.79-0.69-1.58-1.38l-0.29-0.26c-0.1-0.09-0.1-0.1-0.16-0.15c-0.09-0.08-0.15-0.17-0.2-0.23
			c-0.11-0.15-0.16-0.26-0.16-0.26c0,0-0.06-0.11-0.13-0.28c-0.06-0.17-0.12-0.42-0.12-0.67c-0.03-0.51,0.19-0.95,0.19-0.95
			c0.01,0,0.04-0.12,0.15-0.26c0.1-0.15,0.25-0.35,0.45-0.5c0.19-0.15,0.41-0.26,0.58-0.33c0.18-0.06,0.3-0.08,0.3-0.08
			s0.03-0.01,0.08-0.02c0.05-0.01,0.13-0.02,0.22-0.03c0.19-0.01,0.44,0.01,0.67,0.07c0.24,0.06,0.46,0.16,0.61,0.27
			c0.15,0.1,0.24,0.19,0.25,0.18l3.15,2.75l3.15,2.75c0,0,0.79,0.69,1.58,1.38l0.29,0.26c0.1,0.09,0.1,0.1,0.16,0.15
			c0.09,0.08,0.15,0.17,0.2,0.23c0.11,0.15,0.16,0.26,0.16,0.26c0,0,0.06,0.11,0.13,0.28c0.06,0.17,0.12,0.42,0.12,0.67
			c0.03,0.51-0.19,0.95-0.19,0.95C132.81,93,132.78,93.12,132.67,93.27z"/>
		<circle cx="137.37" cy="103.52" r="1.86"/>
		<circle cx="143.98" cy="62.35" r="2.86"/>
		<circle cx="109.15" cy="83.98" r="3.34"/>
		<circle cx="114.9" cy="73.52" r="1.86"/>
		<circle cx="125.1" cy="103.52" r="2.86"/>
		<circle cx="142.79" cy="93.2" r="2.86"/>
		<path d="M148.34,108.71c-2.95,0-5.34-2.4-5.34-5.34c0-2.95,2.4-5.34,5.34-5.34s5.34,2.4,5.34,5.34
			C153.69,106.31,151.29,108.71,148.34,108.71z M148.34,99.33c-2.23,0-4.04,1.81-4.04,4.04c0,2.23,1.81,4.04,4.04,4.04
			s4.04-1.81,4.04-4.04C152.38,101.14,150.57,99.33,148.34,99.33z"/>
		<path d="M103.86,69.28c-2.28,0-4.14-1.86-4.14-4.14c0-2.28,1.86-4.14,4.14-4.14s4.14,1.86,4.14,4.14
			C108,67.42,106.14,69.28,103.86,69.28z M103.86,62.31c-1.56,0-2.83,1.27-2.83,2.83s1.27,2.83,2.83,2.83s2.83-1.27,2.83-2.83
			S105.42,62.31,103.86,62.31z"/>
		<path d="M132.01,78.83c-2.08,0-3.77-1.69-3.77-3.77c0-2.08,1.69-3.77,3.77-3.77s3.77,1.69,3.77,3.77
			C135.78,77.14,134.09,78.83,132.01,78.83z M132.01,72.59c-1.36,0-2.47,1.11-2.47,2.47c0,1.36,1.11,2.47,2.47,2.47
			s2.47-1.11,2.47-2.47C134.47,73.69,133.37,72.59,132.01,72.59z"/>
	</g>
	<g>
		<path class="st0" d="M233.34,111.93c-0.05-0.29-0.14-0.58-0.24-0.78c-0.1-0.2-0.17-0.34-0.17-0.34s-0.09-0.12-0.22-0.31
			c-0.14-0.18-0.35-0.39-0.59-0.57c-0.25-0.17-0.51-0.32-0.72-0.39c-0.21-0.08-0.36-0.12-0.36-0.12s-0.15-0.03-0.37-0.06
			c-0.22-0.03-0.52-0.02-0.82,0.01c-0.29,0.05-0.58,0.14-0.78,0.24c-0.2,0.1-0.34,0.17-0.34,0.17s-0.12,0.09-0.31,0.22
			c-0.18,0.14-0.39,0.35-0.57,0.59c-0.17,0.25-0.32,0.51-0.39,0.72c-0.08,0.21-0.12,0.36-0.12,0.36s-0.03,0.15-0.06,0.37
			c-0.03,0.22-0.02,0.52,0.01,0.82c0.05,0.29,0.14,0.58,0.24,0.78c0.1,0.2,0.17,0.34,0.17,0.34s0.09,0.12,0.22,0.31
			c0.14,0.18,0.35,0.39,0.59,0.57c0.25,0.17,0.51,0.32,0.72,0.39c0.21,0.08,0.36,0.12,0.36,0.12s0.15,0.03,0.37,0.06
			c0.22,0.03,0.52,0.02,0.82-0.01c0.29-0.05,0.58-0.14,0.78-0.24c0.2-0.1,0.34-0.17,0.34-0.17s0.12-0.09,0.31-0.22
			c0.18-0.14,0.39-0.35,0.57-0.59c0.17-0.25,0.32-0.51,0.39-0.72c0.08-0.21,0.12-0.36,0.12-0.36s0.03-0.15,0.06-0.37
			C233.39,112.53,233.38,112.23,233.34,111.93z"/>
		<path class="st0" d="M205.07,92.99c0.14,0.21,0.31,0.39,0.45,0.51c0.15,0.11,0.25,0.18,0.25,0.17c0,0,0.1,0.07,0.27,0.14
			c0.09,0.03,0.18,0.07,0.3,0.09c0.07,0.01,0.08,0.02,0.21,0.05l0.38,0.07c1.03,0.18,2.06,0.36,2.06,0.36l4.12,0.72l4.12,0.72
			c0-0.01,0.12,0.02,0.3,0.02c0.18,0.01,0.42-0.01,0.66-0.09c0.23-0.07,0.46-0.19,0.61-0.29c0.07-0.06,0.14-0.11,0.18-0.14
			c0.04-0.04,0.06-0.06,0.06-0.06s0.09-0.08,0.21-0.22c0.11-0.15,0.24-0.35,0.32-0.58c0.09-0.22,0.12-0.48,0.13-0.66
			c0.01-0.18-0.02-0.3-0.01-0.3c0,0-0.04-0.5-0.33-0.92c-0.14-0.21-0.31-0.39-0.45-0.51c-0.15-0.11-0.25-0.18-0.25-0.17
			c0,0-0.1-0.07-0.27-0.14c-0.09-0.03-0.18-0.07-0.3-0.09c-0.07-0.01-0.08-0.02-0.21-0.05l-0.38-0.07
			c-1.03-0.18-2.06-0.36-2.06-0.36l-4.12-0.72l-4.12-0.72c0,0.01-0.12-0.02-0.3-0.02c-0.18-0.01-0.42,0.01-0.66,0.09
			c-0.23,0.07-0.46,0.19-0.61,0.29c-0.07,0.06-0.13,0.11-0.18,0.14c-0.04,0.04-0.06,0.06-0.06,0.06s-0.09,0.08-0.21,0.22
			c-0.11,0.15-0.24,0.35-0.32,0.58c-0.09,0.22-0.12,0.48-0.13,0.66c-0.01,0.18,0.02,0.3,0.01,0.3
			C204.74,92.08,204.78,92.58,205.07,92.99z"/>
		<path class="st0" d="M218,74.37c0.04,0.16,0.1,0.32,0.14,0.48c0.06,0.15,0.12,0.28,0.17,0.4c0.13,0.22,0.2,0.38,0.2,0.38
			s0.1,0.14,0.24,0.35c0.08,0.1,0.18,0.21,0.28,0.33c0.12,0.11,0.23,0.23,0.36,0.34c0.26,0.21,0.54,0.41,0.77,0.52
			c0.22,0.13,0.38,0.18,0.38,0.18s0.63,0.27,1.32,0.32c0.34,0.04,0.68,0.01,0.93-0.02c0.25-0.05,0.42-0.08,0.42-0.08
			s0.66-0.15,1.25-0.51c0.59-0.35,1.03-0.88,1.03-0.88s0.1-0.13,0.26-0.33c0.14-0.21,0.32-0.5,0.45-0.82
			c0.27-0.63,0.32-1.32,0.32-1.32s0.02-0.17,0.01-0.42c0.01-0.25-0.04-0.59-0.11-0.92c-0.04-0.16-0.1-0.32-0.14-0.48
			c-0.06-0.15-0.12-0.28-0.17-0.4c-0.13-0.22-0.2-0.38-0.2-0.38s-0.1-0.14-0.24-0.35c-0.08-0.1-0.18-0.21-0.28-0.33
			c-0.12-0.11-0.23-0.23-0.36-0.34c-0.26-0.21-0.54-0.41-0.77-0.52c-0.22-0.13-0.38-0.18-0.38-0.18s-0.63-0.27-1.32-0.32
			c-0.34-0.04-0.68-0.01-0.93,0.02c-0.25,0.05-0.42,0.08-0.42,0.08s-0.66,0.15-1.25,0.51c-0.59,0.35-1.03,0.88-1.03,0.88
			s-0.1,0.13-0.26,0.33c-0.14,0.21-0.32,0.5-0.45,0.82c-0.27,0.63-0.32,1.32-0.32,1.32s-0.02,0.17-0.01,0.42
			C217.88,73.71,217.93,74.04,218,74.37z"/>
		<path class="st0" d="M196.97,110.16c0.03,0.3,0.1,0.6,0.21,0.8c0.09,0.21,0.18,0.34,0.17,0.34c0.01-0.01,0.08,0.13,0.23,0.31
			c0.13,0.19,0.36,0.39,0.62,0.55c0.25,0.16,0.54,0.29,0.76,0.34c0.22,0.06,0.37,0.08,0.37,0.08s0.62,0.1,1.2-0.12
			c0.28-0.1,0.56-0.25,0.74-0.38c0.18-0.14,0.29-0.24,0.29-0.24s0.46-0.42,0.66-1.01c0.11-0.29,0.15-0.59,0.17-0.82
			c-0.01-0.11,0-0.21,0-0.28c-0.01-0.07-0.01-0.1-0.01-0.1s-0.01-0.15-0.06-0.37c-0.06-0.22-0.16-0.5-0.32-0.77
			c-0.16-0.26-0.37-0.48-0.54-0.64c-0.18-0.14-0.3-0.22-0.3-0.22s-0.03-0.02-0.09-0.06c-0.06-0.04-0.14-0.07-0.24-0.13
			c-0.21-0.09-0.5-0.19-0.8-0.23c-0.62-0.1-1.2,0.12-1.2,0.12s-0.14,0.05-0.35,0.14c-0.21,0.1-0.46,0.28-0.68,0.48
			c-0.45,0.41-0.66,1.01-0.66,1.01s-0.05,0.14-0.1,0.37C196.96,109.55,196.94,109.86,196.97,110.16z"/>
		<path d="M235.01,110.62c-0.04-0.09-0.09-0.22-0.14-0.34c-0.13-0.24-0.25-0.48-0.25-0.48s-0.15-0.22-0.31-0.45
			c-0.09-0.1-0.17-0.21-0.24-0.29c-0.06-0.08-0.11-0.13-0.11-0.13l2.05-1.95c0,0-0.48-0.51-1.04-0.92
			c-0.56-0.41-1.19-0.71-1.19-0.71l-1.24,2.55c0,0-0.06-0.04-0.15-0.07c-0.09-0.04-0.22-0.09-0.35-0.14
			c-0.26-0.09-0.52-0.16-0.52-0.16s-0.27-0.06-0.53-0.1c-0.13-0.01-0.27-0.03-0.37-0.04c-0.1-0.01-0.17,0-0.17,0l0.07-2.83
			c0,0-0.69-0.02-1.38,0.09c-0.69,0.11-1.35,0.33-1.35,0.33l0.92,2.68c0,0-0.07,0.02-0.16,0.06c-0.09,0.04-0.22,0.09-0.34,0.14
			c-0.24,0.13-0.48,0.25-0.48,0.25s-0.22,0.15-0.45,0.31c-0.1,0.09-0.21,0.17-0.29,0.24c-0.08,0.06-0.13,0.11-0.13,0.11l-1.95-2.05
			c0,0-0.51,0.48-0.92,1.04c-0.41,0.56-0.71,1.19-0.71,1.19l2.55,1.24c0,0-0.04,0.06-0.07,0.15c-0.04,0.09-0.09,0.22-0.14,0.35
			c-0.09,0.26-0.16,0.52-0.16,0.52s-0.06,0.27-0.1,0.53c-0.01,0.13-0.03,0.27-0.04,0.37c-0.01,0.1,0,0.17,0,0.17l-2.83-0.07
			c0,0-0.02,0.69,0.09,1.38c0.11,0.69,0.33,1.35,0.33,1.35l2.68-0.92c0,0,0.02,0.07,0.06,0.16c0.04,0.09,0.09,0.22,0.14,0.34
			c0.13,0.24,0.25,0.48,0.25,0.48s0.15,0.22,0.31,0.45c0.09,0.1,0.17,0.21,0.24,0.29c0.06,0.08,0.11,0.13,0.11,0.13l-2.05,1.95
			c0,0,0.48,0.51,1.04,0.92c0.56,0.41,1.19,0.71,1.19,0.71l1.24-2.55c0,0,0.06,0.04,0.15,0.07c0.09,0.04,0.22,0.09,0.35,0.14
			c0.26,0.09,0.52,0.16,0.52,0.16s0.27,0.06,0.53,0.1c0.13,0.01,0.27,0.03,0.37,0.04c0.1,0.01,0.17,0,0.17,0l-0.07,2.83
			c0,0,0.69,0.02,1.38-0.09c0.69-0.11,1.35-0.33,1.35-0.33l-0.92-2.68c0,0,0.07-0.02,0.16-0.06c0.09-0.04,0.22-0.09,0.34-0.14
			c0.24-0.13,0.48-0.25,0.48-0.25s0.22-0.15,0.45-0.31c0.1-0.09,0.21-0.17,0.29-0.24c0.08-0.06,0.13-0.11,0.13-0.11l1.95,2.05
			c0,0,0.51-0.48,0.92-1.04c0.41-0.56,0.71-1.19,0.71-1.19l-2.55-1.24c0,0,0.04-0.06,0.07-0.15c0.04-0.09,0.09-0.22,0.14-0.35
			c0.09-0.26,0.16-0.52,0.16-0.52s0.06-0.27,0.1-0.53c0.01-0.13,0.03-0.27,0.04-0.37c0.01-0.1,0-0.17,0-0.17l2.83,0.07
			c0,0,0.02-0.69-0.09-1.38c-0.11-0.69-0.33-1.35-0.33-1.35l-2.68,0.92C235.07,110.78,235.05,110.71,235.01,110.62z M233.18,113.48
			c-0.07,0.21-0.22,0.48-0.39,0.72c-0.18,0.24-0.39,0.45-0.57,0.59c-0.18,0.13-0.31,0.22-0.31,0.22s-0.13,0.07-0.34,0.17
			c-0.21,0.09-0.49,0.19-0.78,0.24c-0.3,0.03-0.6,0.05-0.82,0.01c-0.22-0.03-0.37-0.06-0.37-0.06s-0.15-0.04-0.36-0.12
			c-0.21-0.07-0.48-0.22-0.72-0.39c-0.24-0.18-0.45-0.39-0.59-0.57c-0.13-0.18-0.22-0.31-0.22-0.31s-0.07-0.13-0.17-0.34
			c-0.09-0.21-0.19-0.49-0.24-0.78c-0.03-0.3-0.05-0.6-0.01-0.82c0.03-0.22,0.06-0.37,0.06-0.37s0.04-0.15,0.12-0.36
			c0.07-0.21,0.22-0.48,0.39-0.72c0.18-0.24,0.39-0.45,0.57-0.59c0.18-0.13,0.31-0.22,0.31-0.22s0.13-0.07,0.34-0.17
			c0.21-0.09,0.49-0.19,0.78-0.24c0.3-0.03,0.6-0.05,0.82-0.01c0.22,0.03,0.37,0.06,0.37,0.06s0.15,0.04,0.36,0.12
			c0.21,0.07,0.48,0.22,0.72,0.39c0.24,0.18,0.45,0.39,0.59,0.57c0.13,0.18,0.22,0.31,0.22,0.31s0.07,0.13,0.17,0.34
			c0.09,0.21,0.19,0.49,0.24,0.78c0.03,0.3,0.05,0.6,0.01,0.82c-0.03,0.22-0.06,0.37-0.06,0.37S233.25,113.27,233.18,113.48z"/>
		<path d="M216.58,76.17c0.13,0.24,0.26,0.48,0.26,0.48s0.15,0.22,0.31,0.45c0.16,0.22,0.34,0.42,0.34,0.42l-2.13,1.86
			c0,0,0.1,0.13,0.27,0.3c0.17,0.17,0.4,0.4,0.64,0.61c0.25,0.2,0.5,0.41,0.7,0.55c0.2,0.13,0.34,0.22,0.34,0.22l1.53-2.39
			c-0.01,0.02,0.95,0.53,0.96,0.5c-0.01,0.02,1.02,0.36,1.03,0.33l-0.63,2.76c0,0,0.16,0.03,0.39,0.08
			c0.24,0.05,0.56,0.09,0.88,0.12c0.64,0.06,1.29,0.02,1.29,0.02l-0.16-2.83c0,0,0.27-0.03,0.54-0.05c0.27-0.05,0.53-0.1,0.53-0.1
			s0.07-0.01,0.16-0.04c0.1-0.03,0.23-0.07,0.36-0.11c0.13-0.03,0.26-0.09,0.35-0.13c0.09-0.04,0.16-0.07,0.16-0.07l1.12,2.6
			c0,0,0.15-0.06,0.37-0.16c0.21-0.11,0.49-0.27,0.78-0.42c0.27-0.18,0.53-0.36,0.73-0.5c0.19-0.15,0.31-0.25,0.31-0.25l-1.8-2.19
			c0,0,0.05-0.04,0.13-0.11c0.08-0.06,0.18-0.15,0.28-0.25c0.09-0.1,0.19-0.19,0.26-0.27c0.07-0.07,0.11-0.13,0.11-0.13
			s0.17-0.21,0.34-0.42c0.15-0.23,0.3-0.46,0.3-0.46l2.43,1.45c0,0,0.33-0.56,0.57-1.15c0.12-0.3,0.24-0.6,0.3-0.83
			c0.07-0.23,0.11-0.39,0.11-0.39l-2.74-0.71c0.03,0.01,0.2-1.07,0.18-1.07c0.03,0,0.02-1.08,0-1.08l2.82-0.25
			c0,0-0.02-0.16-0.04-0.4c-0.03-0.24-0.1-0.56-0.16-0.87c-0.07-0.31-0.18-0.62-0.25-0.85c-0.07-0.23-0.14-0.38-0.14-0.38
			l-2.64,1.04c0,0-0.09-0.25-0.22-0.5c-0.13-0.24-0.26-0.48-0.26-0.48s-0.15-0.22-0.31-0.45c-0.16-0.22-0.34-0.42-0.34-0.42
			l2.13-1.86c0,0-0.1-0.13-0.27-0.3c-0.17-0.17-0.4-0.4-0.64-0.61c-0.25-0.2-0.5-0.41-0.7-0.55c-0.2-0.13-0.34-0.22-0.34-0.22
			l-1.53,2.39c0.01-0.02-0.95-0.53-0.96-0.5c0.01-0.02-1.02-0.36-1.03-0.33l0.63-2.76c0,0-0.16-0.03-0.39-0.08
			c-0.24-0.05-0.56-0.09-0.88-0.12c-0.64-0.06-1.29-0.02-1.29-0.02l0.16,2.83c0,0-0.27,0.03-0.54,0.05c-0.27,0.05-0.53,0.1-0.53,0.1
			s-0.07,0.01-0.16,0.04c-0.1,0.03-0.23,0.07-0.36,0.11c-0.13,0.03-0.26,0.09-0.35,0.13c-0.09,0.04-0.16,0.07-0.16,0.07l-1.12-2.6
			c0,0-0.15,0.06-0.37,0.16c-0.21,0.11-0.49,0.27-0.78,0.42c-0.27,0.18-0.53,0.36-0.73,0.5c-0.19,0.15-0.31,0.25-0.31,0.25l1.8,2.19
			c0,0-0.05,0.04-0.13,0.11c-0.08,0.06-0.18,0.15-0.28,0.25c-0.09,0.1-0.19,0.19-0.26,0.27c-0.07,0.07-0.11,0.13-0.11,0.13
			s-0.17,0.21-0.34,0.42c-0.15,0.23-0.3,0.46-0.3,0.46l-2.43-1.45c0,0-0.33,0.56-0.57,1.15c-0.12,0.3-0.24,0.6-0.3,0.83
			c-0.07,0.23-0.11,0.39-0.11,0.39l2.74,0.71c-0.03-0.01-0.2,1.07-0.18,1.07c-0.03,0-0.02,1.08,0,1.08l-2.82,0.25
			c0,0,0.02,0.16,0.04,0.4c0.03,0.24,0.1,0.56,0.16,0.87c0.07,0.31,0.18,0.62,0.25,0.85c0.07,0.23,0.14,0.38,0.14,0.38l2.64-1.04
			C216.36,75.67,216.45,75.92,216.58,76.17z M218.22,71.71c0.12-0.32,0.31-0.61,0.45-0.82c0.16-0.2,0.26-0.33,0.26-0.33
			s0.44-0.52,1.03-0.88c0.59-0.36,1.25-0.51,1.25-0.51s0.17-0.03,0.42-0.08c0.25-0.03,0.59-0.06,0.93-0.02
			c0.68,0.05,1.32,0.32,1.32,0.32s0.16,0.06,0.38,0.18c0.23,0.11,0.51,0.31,0.77,0.52c0.13,0.11,0.24,0.24,0.36,0.34
			c0.1,0.12,0.2,0.24,0.28,0.33c0.14,0.22,0.24,0.35,0.24,0.35s0.08,0.15,0.2,0.38c0.05,0.12,0.11,0.25,0.17,0.4
			c0.04,0.15,0.1,0.31,0.14,0.48c0.07,0.33,0.12,0.67,0.11,0.92c0.01,0.25-0.01,0.42-0.01,0.42s-0.05,0.69-0.32,1.32
			c-0.12,0.32-0.31,0.61-0.45,0.82c-0.16,0.2-0.26,0.33-0.26,0.33s-0.44,0.52-1.03,0.88c-0.59,0.36-1.25,0.51-1.25,0.51
			s-0.17,0.03-0.42,0.08c-0.25,0.03-0.59,0.06-0.93,0.02c-0.68-0.05-1.32-0.32-1.32-0.32s-0.16-0.06-0.38-0.18
			c-0.23-0.11-0.51-0.31-0.77-0.52c-0.13-0.11-0.24-0.24-0.36-0.34c-0.1-0.12-0.2-0.24-0.28-0.33c-0.14-0.22-0.24-0.35-0.24-0.35
			s-0.08-0.15-0.2-0.38c-0.05-0.12-0.11-0.25-0.17-0.4c-0.04-0.15-0.1-0.31-0.14-0.48c-0.07-0.33-0.12-0.67-0.11-0.92
			c-0.01-0.25,0.01-0.42,0.01-0.42S217.95,72.34,218.22,71.71z"/>
		<path d="M195.2,111.28c0,0,0.02,0.07,0.05,0.17c0.04,0.1,0.1,0.23,0.15,0.37c0.12,0.26,0.27,0.51,0.27,0.51s0.15,0.24,0.33,0.47
			c0.09,0.11,0.19,0.22,0.26,0.3c0.08,0.08,0.13,0.13,0.13,0.13l-1.99,2.02c0,0,0.13,0.14,0.35,0.33c0.22,0.18,0.51,0.43,0.84,0.62
			c0.31,0.22,0.66,0.38,0.91,0.51c0.26,0.12,0.44,0.18,0.44,0.18l1.03-2.64c0,0,0.07,0.03,0.17,0.07c0.1,0.03,0.24,0.07,0.38,0.11
			c0.28,0.06,0.57,0.11,0.57,0.11s0.07,0.01,0.18,0.02c0.11,0.01,0.25,0.02,0.4,0.02c0.14,0,0.29,0,0.4-0.01
			c0.11-0.01,0.18-0.02,0.18-0.02l0.34,2.81c0,0,0.76-0.08,1.48-0.33c0.73-0.24,1.38-0.62,1.38-0.62l-1.42-2.45
			c0,0,0.07-0.03,0.16-0.09c0.09-0.06,0.21-0.14,0.33-0.22c0.11-0.09,0.22-0.18,0.3-0.25c0.09-0.07,0.13-0.12,0.13-0.12
			s0.05-0.05,0.13-0.13c0.08-0.07,0.17-0.18,0.26-0.3c0.09-0.11,0.18-0.22,0.24-0.32c0.06-0.09,0.1-0.15,0.1-0.15l2.41,1.49
			c0,0,0.41-0.64,0.66-1.36c0.26-0.71,0.38-1.46,0.38-1.46l-2.8-0.42c0,0,0.04-0.29,0.05-0.57c0.01-0.29-0.02-0.58-0.02-0.58
			s-0.02-0.29-0.09-0.57c-0.06-0.28-0.16-0.55-0.16-0.55l2.67-0.96c0,0-0.26-0.72-0.65-1.36c-0.39-0.65-0.91-1.21-0.91-1.21
			l-2.08,1.93c0,0-0.2-0.21-0.42-0.39c-0.22-0.19-0.46-0.34-0.46-0.34s-0.24-0.16-0.5-0.28c-0.26-0.12-0.53-0.22-0.53-0.22
			l0.91-2.68c0,0-0.72-0.25-1.47-0.34c-0.75-0.11-1.51-0.04-1.51-0.04l0.21,2.83c0,0-0.07,0.01-0.18,0.02
			c-0.11,0-0.25,0.03-0.39,0.06c-0.14,0.02-0.28,0.06-0.38,0.09c-0.1,0.03-0.17,0.05-0.17,0.05s-0.07,0.01-0.17,0.06
			c-0.1,0.04-0.23,0.1-0.37,0.15c-0.13,0.07-0.25,0.14-0.35,0.19c-0.1,0.05-0.15,0.1-0.15,0.1l-1.52-2.39c0,0-0.64,0.4-1.19,0.94
			c-0.56,0.52-0.98,1.16-0.98,1.16l2.34,1.6c0,0-0.04,0.06-0.1,0.15c-0.06,0.09-0.13,0.22-0.2,0.34c-0.07,0.13-0.13,0.26-0.17,0.36
			c-0.04,0.1-0.07,0.17-0.07,0.17s-0.09,0.27-0.17,0.55c-0.03,0.14-0.06,0.28-0.08,0.39c-0.01,0.11-0.02,0.18-0.02,0.18l-2.82-0.3
			c0,0-0.02,0.19-0.04,0.47c0,0.28-0.02,0.66,0.03,1.04c0.03,0.38,0.11,0.75,0.17,1.03c0.07,0.27,0.13,0.46,0.13,0.46L195.2,111.28z
			 M197.78,107.96c0.22-0.21,0.48-0.38,0.68-0.48c0.21-0.1,0.35-0.14,0.35-0.14s0.58-0.21,1.2-0.12c0.3,0.04,0.59,0.14,0.8,0.23
			c0.1,0.06,0.19,0.09,0.24,0.13c0.06,0.04,0.09,0.06,0.09,0.06s0.13,0.08,0.3,0.22c0.17,0.15,0.37,0.37,0.54,0.64
			c0.16,0.27,0.26,0.55,0.32,0.77c0.05,0.22,0.06,0.37,0.06,0.37s0,0.04,0.01,0.1c0.01,0.07,0,0.16,0,0.28
			c-0.02,0.23-0.06,0.53-0.17,0.82c-0.2,0.59-0.66,1.01-0.66,1.01s-0.11,0.1-0.29,0.24c-0.18,0.14-0.46,0.28-0.74,0.38
			c-0.58,0.21-1.2,0.12-1.2,0.12s-0.15-0.02-0.37-0.08c-0.23-0.05-0.51-0.18-0.76-0.34c-0.25-0.17-0.48-0.37-0.62-0.55
			c-0.15-0.18-0.22-0.31-0.23-0.31c0.01,0-0.08-0.13-0.17-0.34c-0.1-0.2-0.18-0.5-0.21-0.8c-0.03-0.3-0.01-0.61,0.05-0.83
			c0.05-0.22,0.1-0.37,0.1-0.37S197.32,108.37,197.78,107.96z"/>
		<path d="M200,90.86l2.8,0.41c0,0-0.01,0.06-0.02,0.16c-0.02,0.1-0.02,0.23-0.02,0.36c-0.01,0.13,0,0.26,0.01,0.36
			c0.01,0.1,0.01,0.16,0.01,0.16s0.04,0.26,0.09,0.51c0.04,0.12,0.07,0.25,0.1,0.34c0.04,0.09,0.06,0.15,0.06,0.15l-2.64,1.02
			c0,0,0.25,0.68,0.65,1.28c0.38,0.61,0.9,1.12,0.9,1.12l2.01-1.99c0,0,0.19,0.18,0.39,0.35c0.11,0.08,0.21,0.15,0.29,0.21
			c0.08,0.05,0.14,0.08,0.14,0.08s0.22,0.14,0.46,0.24c0.12,0.06,0.24,0.09,0.33,0.13c0.09,0.03,0.15,0.05,0.15,0.05l-0.78,2.73
			c-0.03,0,0.8,0.19,1.17,0.24c0.46,0.08,0.93,0.16,0.93,0.16l0.49-2.79l1.13,0.2l1.13,0.2l-0.49,2.79l1.85,0.32l0.49-2.79l1.13,0.2
			l1.13,0.2l-0.49,2.79l1.85,0.32l0.49-2.79l1.13,0.2c0,0,0.26,0.04,0.52,0.05c0.26,0.01,0.52-0.01,0.52-0.01l0.24,2.82
			c0,0,0.73-0.05,1.42-0.27c0.69-0.2,1.32-0.55,1.32-0.55l-1.36-2.49c0,0,0.23-0.13,0.44-0.28c0.1-0.08,0.2-0.16,0.28-0.22
			c0.07-0.07,0.12-0.11,0.12-0.11s0.19-0.18,0.36-0.38c0.16-0.2,0.31-0.42,0.31-0.42l2.39,1.51c0,0,0.39-0.61,0.64-1.29
			c0.26-0.68,0.35-1.4,0.35-1.4l-2.8-0.41c0,0,0.01-0.06,0.02-0.16c0.02-0.1,0.02-0.23,0.02-0.36c0.01-0.13,0-0.26-0.01-0.36
			c-0.01-0.1-0.01-0.16-0.01-0.16s-0.04-0.26-0.09-0.51c-0.04-0.12-0.07-0.25-0.1-0.34c-0.04-0.09-0.06-0.15-0.06-0.15l2.64-1.02
			c0,0-0.25-0.68-0.65-1.28c-0.38-0.61-0.9-1.12-0.9-1.12l-2.01,1.99c0,0-0.19-0.18-0.39-0.35c-0.11-0.08-0.21-0.15-0.29-0.21
			c-0.08-0.05-0.14-0.08-0.14-0.08s-0.22-0.14-0.46-0.24c-0.12-0.06-0.24-0.09-0.33-0.13c-0.09-0.03-0.15-0.05-0.15-0.05l0.78-2.73
			c0.03,0-0.8-0.19-1.17-0.24c-0.46-0.08-0.93-0.16-0.93-0.16l-0.49,2.79l-1.13-0.2l-1.13-0.2l0.49-2.79l-1.85-0.32l-0.49,2.79
			l-1.13-0.2l-1.13-0.2l0.49-2.79l-1.85-0.32l-0.49,2.79l-1.13-0.2c0,0-0.26-0.04-0.52-0.05c-0.26-0.01-0.52,0.01-0.52,0.01
			l-0.24-2.82c0,0-0.73,0.05-1.42,0.27c-0.69,0.2-1.32,0.55-1.32,0.55l1.36,2.49c0,0-0.23,0.13-0.44,0.28
			c-0.1,0.08-0.2,0.16-0.28,0.22c-0.07,0.07-0.12,0.11-0.12,0.11s-0.19,0.18-0.36,0.38c-0.16,0.2-0.31,0.42-0.31,0.42l-2.4-1.51
			c0,0-0.39,0.61-0.64,1.29C200.09,90.14,200,90.86,200,90.86z M204.73,91.78c0.01-0.18,0.03-0.43,0.13-0.66
			c0.08-0.23,0.21-0.43,0.32-0.58c0.12-0.14,0.21-0.22,0.21-0.22s0.02-0.02,0.06-0.06c0.04-0.03,0.1-0.08,0.18-0.14
			c0.16-0.1,0.38-0.22,0.61-0.29c0.23-0.07,0.48-0.1,0.66-0.09c0.18,0,0.3,0.03,0.3,0.02l4.12,0.72l4.12,0.72
			c0,0,1.03,0.18,2.06,0.36l0.38,0.07c0.14,0.02,0.14,0.03,0.21,0.05c0.11,0.02,0.21,0.07,0.3,0.09c0.17,0.07,0.27,0.14,0.27,0.14
			c0,0,0.11,0.06,0.25,0.17c0.14,0.12,0.32,0.3,0.45,0.51c0.29,0.42,0.33,0.92,0.33,0.92c-0.01,0,0.02,0.12,0.01,0.3
			c-0.01,0.18-0.03,0.43-0.13,0.66c-0.08,0.23-0.21,0.43-0.32,0.58c-0.12,0.14-0.21,0.22-0.21,0.22s-0.02,0.02-0.06,0.06
			c-0.04,0.03-0.1,0.08-0.18,0.14c-0.16,0.1-0.38,0.22-0.61,0.29c-0.23,0.07-0.48,0.1-0.66,0.09c-0.18,0-0.3-0.03-0.3-0.02
			l-4.12-0.72l-4.12-0.72c0,0-1.03-0.18-2.06-0.36l-0.38-0.07c-0.14-0.02-0.14-0.03-0.21-0.05c-0.11-0.02-0.21-0.07-0.3-0.09
			c-0.17-0.07-0.27-0.14-0.27-0.14c0,0-0.11-0.06-0.25-0.17c-0.14-0.12-0.32-0.3-0.45-0.51c-0.29-0.42-0.33-0.92-0.33-0.92
			C204.75,92.08,204.71,91.96,204.73,91.78z"/>
		<circle cx="195.39" cy="85.46" r="1.86"/>
		<circle cx="211.12" cy="124.07" r="2.86"/>
		<circle cx="229.65" cy="87.5" r="3.34"/>
		<circle cx="230.17" cy="99.43" r="1.86"/>
		<circle cx="205.88" cy="79.09" r="2.86"/>
		<circle cx="196.12" cy="97.09" r="2.86"/>
		<path d="M183.32,86.72c2.52-1.53,5.81-0.73,7.34,1.79c1.53,2.52,0.73,5.81-1.79,7.34c-2.52,1.53-5.81,0.73-7.34-1.79
			C180,91.55,180.8,88.25,183.32,86.72z M188.19,94.74c1.9-1.16,2.51-3.64,1.35-5.55c-1.16-1.9-3.64-2.51-5.55-1.35
			c-1.9,1.16-2.51,3.64-1.35,5.55S186.29,95.9,188.19,94.74z"/>
		<path d="M241.81,97.33c1.95-1.18,4.5-0.56,5.68,1.39c1.18,1.95,0.56,4.5-1.39,5.68c-1.95,1.18-4.5,0.56-5.68-1.39
			S239.86,98.51,241.81,97.33z M245.43,103.28c1.33-0.81,1.76-2.55,0.95-3.89c-0.81-1.33-2.55-1.76-3.89-0.95
			c-1.33,0.81-1.76,2.55-0.95,3.89S244.09,104.09,245.43,103.28z"/>
		<path d="M212.8,103.77c1.78-1.08,4.11-0.51,5.19,1.27c1.08,1.78,0.51,4.11-1.27,5.19s-4.11,0.51-5.19-1.27
			C210.45,107.18,211.02,104.85,212.8,103.77z M216.04,109.11c1.16-0.71,1.53-2.23,0.83-3.39c-0.71-1.16-2.23-1.53-3.39-0.83
			c-1.16,0.71-1.53,2.23-0.83,3.39S214.88,109.81,216.04,109.11z"/>
	</g>
	<g>
		<g>
			<path class="st1" d="M83,113.84l-10.25-3.38c-1.38-0.46-2.14-1.96-1.69-3.34l0,0c0.46-1.38,1.96-2.14,3.34-1.69l10.25,3.38
				c1.38,0.46,2.14,1.96,1.69,3.34l0,0C85.89,113.54,84.38,114.3,83,113.84z"/>
		</g>
		<g>
			<path class="st1" d="M68.59,124.06l-6.09,8.91c-0.82,1.2-2.48,1.51-3.68,0.69l0,0c-1.2-0.82-1.51-2.48-0.69-3.68l6.09-8.91
				c0.82-1.2,2.48-1.51,3.68-0.69l0,0C69.1,121.2,69.41,122.86,68.59,124.06z"/>
		</g>
		<g>
			<path class="st1" d="M95.19,140.58l-0.58-10.77c-0.08-1.45,1.05-2.71,2.5-2.79l0,0c1.45-0.08,2.71,1.05,2.79,2.5l0.58,10.77
				c0.08,1.45-1.05,2.71-2.5,2.79l0,0C96.52,143.17,95.27,142.04,95.19,140.58z"/>
		</g>
		<g>
			<path class="st1" d="M98.94,117.18l-8.82,6.22c-1.19,0.84-2.85,0.55-3.69-0.64l0,0c-0.84-1.19-0.55-2.85,0.64-3.69l8.82-6.22
				c1.19-0.84,2.85-0.55,3.69,0.64l0,0C100.42,114.68,100.13,116.34,98.94,117.18z"/>
		</g>
		<g>
			<path class="st1" d="M81.24,137.28l-7.48-7.78c-1.01-1.05-0.98-2.74,0.07-3.75l0,0c1.05-1.01,2.74-0.98,3.75,0.07l7.48,7.78
				c1.01,1.05,0.98,2.74-0.07,3.75l0,0C83.94,138.36,82.25,138.33,81.24,137.28z"/>
		</g>
		<g>
			<path class="st1" d="M85.15,150.13H74.36c-1.46,0-2.65-1.19-2.65-2.65l0,0c0-1.46,1.19-2.65,2.65-2.65h10.79
				c1.46,0,2.65,1.19,2.65,2.65l0,0C87.8,148.94,86.61,150.13,85.15,150.13z"/>
		</g>
	</g>
	<path d="M72.61,58.62c0,0-0.52-0.16-1.04-0.35c-0.52-0.18-1.02-0.38-1.02-0.38c-0.7-0.28-1.45-0.25-2.15,0.02
		c-0.69,0.27-1.32,0.78-1.69,1.51c-0.37,0.73-0.4,1.55-0.1,2.29c0.3,0.73,0.92,1.38,1.76,1.71c0,0,0.6,0.24,1.22,0.45
		c0.61,0.22,1.23,0.41,1.23,0.41c1.73,0.55,3.52-0.45,3.81-2.07C74.91,60.62,74.04,59.08,72.61,58.62z M73.63,62
		c-0.25,1.05-1.39,1.69-2.5,1.33c0,0-0.6-0.19-1.2-0.4c-0.6-0.21-1.18-0.44-1.18-0.44c-1.09-0.43-1.57-1.64-1.1-2.61
		c0.47-0.98,1.59-1.41,2.54-1.04c0,0,0.52,0.21,1.06,0.39c0.53,0.19,1.07,0.36,1.07,0.36C73.28,59.9,73.87,60.95,73.63,62z"/>
	<path d="M66.94,57.18c-0.18-0.72-0.59-1.33-1.2-1.74c0,0-0.11-0.07-0.27-0.18c-0.16-0.11-0.37-0.26-0.59-0.41
		c-0.21-0.15-0.41-0.31-0.57-0.43c-0.16-0.12-0.25-0.2-0.25-0.2c-0.55-0.45-1.24-0.63-1.96-0.6c-0.73,0.04-1.48,0.28-2.1,0.83
		c-0.61,0.54-0.95,1.31-0.9,2.12c0.03,0.82,0.45,1.66,1.19,2.26c0,0,0.13,0.11,0.33,0.27c0.2,0.15,0.47,0.37,0.74,0.56
		c0.27,0.19,0.55,0.39,0.76,0.53c0.21,0.14,0.35,0.23,0.35,0.23c0.78,0.52,1.68,0.64,2.45,0.45c0.78-0.2,1.42-0.7,1.79-1.43
		C67.08,58.7,67.13,57.88,66.94,57.18z M65.81,58.95c-0.51,0.95-1.78,1.27-2.78,0.62c0,0-0.13-0.09-0.34-0.22
		c-0.2-0.14-0.46-0.33-0.73-0.51c-0.26-0.19-0.52-0.39-0.71-0.54c-0.19-0.15-0.32-0.25-0.32-0.25c-0.46-0.38-0.73-0.91-0.76-1.43
		c-0.04-0.52,0.15-1.04,0.53-1.42c0.39-0.38,0.88-0.57,1.37-0.6c0.49-0.03,0.96,0.1,1.35,0.42c0,0,0.1,0.09,0.26,0.21
		c0.16,0.12,0.37,0.29,0.6,0.45c0.22,0.16,0.45,0.32,0.62,0.43c0.17,0.11,0.29,0.19,0.29,0.19C66.02,56.83,66.32,58,65.81,58.95z"/>
	<path d="M61.1,51.42c-0.06-0.33-0.16-0.64-0.33-0.93c0,0-0.07-0.1-0.15-0.26c-0.08-0.16-0.2-0.37-0.31-0.58
		c-0.2-0.43-0.39-0.86-0.39-0.88c-0.25-0.7-0.84-1.22-1.48-1.54c-0.66-0.31-1.47-0.42-2.26-0.19c-0.79,0.23-1.4,0.77-1.74,1.5
		c-0.35,0.73-0.35,1.61-0.03,2.46c0,0,0.05,0.15,0.17,0.4c0.11,0.25,0.25,0.58,0.41,0.9c0.17,0.32,0.34,0.63,0.46,0.87
		c0.13,0.23,0.23,0.38,0.23,0.38c0.26,0.43,0.58,0.78,0.96,1.03c0.36,0.26,0.77,0.42,1.17,0.49c0.8,0.15,1.61-0.1,2.21-0.64
		c0.62-0.55,0.94-1.28,1.07-1.99C61.14,52.1,61.14,51.75,61.1,51.42z M59.35,53.66c-0.42,0.33-0.96,0.47-1.47,0.36
		c-0.51-0.11-1.02-0.44-1.34-0.98c0,0-0.09-0.14-0.22-0.36c-0.12-0.22-0.28-0.52-0.44-0.82c-0.15-0.3-0.28-0.62-0.39-0.85
		c-0.11-0.23-0.16-0.38-0.16-0.38c-0.41-1.1,0.09-2.26,1.14-2.6c1.01-0.32,2.15,0.18,2.5,1.13c0,0,0.05,0.14,0.13,0.31
		c0.08,0.18,0.18,0.41,0.29,0.65c0.12,0.23,0.24,0.46,0.33,0.63c0.1,0.17,0.17,0.28,0.17,0.28C60.37,51.81,60.19,52.97,59.35,53.66z
		"/>
	<path d="M57.97,45.67c0.41-0.62,0.56-1.33,0.46-2.05c0,0-0.02-0.13-0.06-0.32c-0.04-0.19-0.07-0.45-0.09-0.71
		c-0.03-0.26-0.05-0.52-0.07-0.71c-0.03-0.19-0.02-0.32-0.02-0.32c-0.01-0.36-0.11-0.69-0.27-1.01c-0.14-0.31-0.35-0.6-0.61-0.86
		c-0.53-0.51-1.22-0.9-2.04-0.97c-0.81-0.07-1.61,0.21-2.16,0.79c-0.28,0.29-0.51,0.65-0.67,1.06c-0.14,0.41-0.21,0.86-0.19,1.33
		c0,0,0,0.17,0.03,0.42c0.03,0.25,0.06,0.59,0.09,0.93c0.03,0.34,0.07,0.67,0.12,0.92c0.04,0.25,0.07,0.41,0.07,0.41
		c0.14,0.93,0.68,1.67,1.34,2.11c0.65,0.45,1.5,0.56,2.27,0.33C56.97,46.81,57.55,46.29,57.97,45.67z M57.4,44.52
		c-0.05,0.23-0.14,0.46-0.28,0.66c-0.27,0.41-0.69,0.74-1.22,0.87c-0.52,0.13-1.05,0.03-1.49-0.26c-0.22-0.15-0.41-0.34-0.56-0.57
		c-0.14-0.23-0.24-0.5-0.29-0.79c0,0-0.03-0.16-0.07-0.4c-0.05-0.24-0.09-0.56-0.12-0.88c-0.03-0.32-0.07-0.65-0.09-0.89
		c-0.03-0.24-0.03-0.41-0.03-0.41c-0.02-0.6,0.16-1.15,0.54-1.53c0.37-0.38,0.86-0.59,1.4-0.57c0.54,0.02,1.03,0.25,1.37,0.59
		c0.34,0.34,0.6,0.78,0.61,1.28c0,0,0,0.14,0.02,0.34c0.02,0.2,0.05,0.47,0.08,0.75c0.02,0.27,0.06,0.54,0.1,0.74
		c0.03,0.2,0.06,0.34,0.06,0.34C57.48,44.04,57.46,44.28,57.4,44.52z"/>
	<path d="M57.43,38.12c0.3-0.21,0.56-0.46,0.75-0.75c0.21-0.29,0.36-0.61,0.43-0.96c0,0,0.13-0.51,0.26-1.03
		c0.07-0.26,0.15-0.52,0.2-0.71c0.06-0.2,0.1-0.33,0.1-0.33c0.46-1.44-0.32-3.29-1.91-3.74c-1.57-0.45-3.22,0.26-3.78,1.98
		c0,0-0.05,0.15-0.12,0.38c-0.07,0.24-0.16,0.55-0.25,0.87c-0.17,0.64-0.32,1.29-0.32,1.29c-0.09,0.46-0.1,0.91-0.03,1.33
		c0.09,0.43,0.25,0.82,0.48,1.15c0.46,0.66,1.19,1.08,2,1.14C56.08,38.8,56.84,38.53,57.43,38.12z M53.8,35.33
		c0,0,0.15-0.63,0.31-1.25c0.09-0.31,0.17-0.61,0.24-0.84c0.07-0.22,0.12-0.37,0.12-0.37c0.35-1.11,1.47-1.64,2.49-1.31
		c1.03,0.34,1.56,1.48,1.26,2.47c0,0-0.04,0.14-0.11,0.34c-0.06,0.2-0.13,0.47-0.21,0.74c-0.14,0.54-0.27,1.07-0.27,1.07
		c-0.21,0.97-1.18,1.65-2.26,1.53C54.29,37.59,53.54,36.51,53.8,35.33z"/>
	<path d="M73.64,39.01c0,0,0.51-0.2,1.02-0.39c0.51-0.19,1.03-0.35,1.03-0.35c0.72-0.23,1.28-0.73,1.65-1.38
		c0.36-0.64,0.52-1.44,0.35-2.24c-0.17-0.8-0.67-1.45-1.37-1.84c-0.69-0.38-1.58-0.49-2.44-0.21c0,0-0.62,0.2-1.23,0.42
		c-0.61,0.22-1.21,0.46-1.21,0.46c-1.69,0.67-2.44,2.58-1.63,4.01C70.61,38.93,72.25,39.56,73.64,39.01z M70.72,37.04
		c-0.48-0.97,0.01-2.18,1.09-2.61c0,0,0.59-0.24,1.18-0.45c0.59-0.22,1.2-0.41,1.2-0.41c1.11-0.36,2.25,0.27,2.51,1.32
		c0.26,1.05-0.34,2.1-1.31,2.42c0,0-0.54,0.17-1.07,0.36c-0.53,0.19-1.05,0.4-1.05,0.4C72.32,38.45,71.2,38.01,70.72,37.04z"/>
	<path d="M78.95,36.54c0.6,0.44,1.31,0.66,2.03,0.58c0,0,0.13-0.01,0.33-0.03c0.2-0.01,0.46-0.03,0.72-0.05
		c0.26-0.02,0.52-0.02,0.71-0.03c0.19-0.01,0.32,0,0.32,0c0.71,0,1.36-0.3,1.9-0.77c0.54-0.49,0.97-1.16,1.1-1.97
		c0.13-0.8-0.1-1.61-0.65-2.21c-0.54-0.61-1.4-0.99-2.35-1c0,0-0.17-0.01-0.43,0c-0.25,0.01-0.6,0.01-0.93,0.03
		c-0.34,0.02-0.67,0.05-0.92,0.07c-0.25,0.03-0.42,0.04-0.42,0.04c-0.93,0.09-1.7,0.57-2.18,1.2c-0.48,0.65-0.65,1.44-0.48,2.24
		C77.87,35.45,78.35,36.11,78.95,36.54z M78.7,34.45c-0.21-1.06,0.57-2.11,1.76-2.24c0,0,0.16-0.02,0.4-0.04
		c0.24-0.02,0.57-0.04,0.89-0.06c0.32-0.02,0.65-0.02,0.89-0.03c0.24-0.01,0.41,0,0.41,0c0.6,0,1.14,0.24,1.5,0.63
		c0.36,0.37,0.54,0.9,0.48,1.43c-0.06,0.54-0.32,0.99-0.68,1.33c-0.36,0.33-0.81,0.53-1.31,0.53c0,0-0.14-0.01-0.34,0
		c-0.2,0.01-0.48,0.01-0.75,0.03c-0.27,0.02-0.55,0.04-0.75,0.05c-0.21,0.02-0.34,0.04-0.34,0.04
		C79.88,36.22,78.91,35.51,78.7,34.45z"/>
	<path d="M87.12,37.29c0.25,0.22,0.53,0.4,0.84,0.51c0,0,0.12,0.03,0.28,0.1c0.17,0.07,0.39,0.16,0.61,0.25
		c0.43,0.21,0.85,0.42,0.86,0.44c0.64,0.39,1.42,0.41,2.12,0.25c0.71-0.18,1.4-0.61,1.87-1.28c0.47-0.68,0.6-1.48,0.4-2.26
		c-0.19-0.79-0.75-1.46-1.53-1.93c0,0-0.13-0.08-0.38-0.2c-0.24-0.12-0.56-0.29-0.89-0.44c-0.33-0.14-0.66-0.28-0.91-0.38
		c-0.25-0.1-0.42-0.15-0.42-0.15c-0.47-0.17-0.94-0.23-1.39-0.19c-0.45,0.02-0.86,0.16-1.22,0.36c-0.71,0.39-1.18,1.09-1.3,1.9
		c-0.13,0.82,0.08,1.58,0.43,2.22C86.66,36.79,86.88,37.06,87.12,37.29z M87.05,34.45c0.11-0.52,0.45-0.97,0.91-1.21
		c0.46-0.24,1.07-0.31,1.65-0.09c0,0,0.16,0.05,0.4,0.14c0.23,0.1,0.55,0.23,0.86,0.36c0.31,0.14,0.61,0.3,0.84,0.41
		c0.23,0.11,0.36,0.19,0.36,0.19c1.02,0.59,1.37,1.81,0.77,2.73c-0.58,0.89-1.78,1.22-2.65,0.71c0,0-0.12-0.08-0.3-0.16
		c-0.17-0.08-0.4-0.21-0.64-0.31c-0.24-0.1-0.48-0.2-0.66-0.27c-0.18-0.07-0.31-0.11-0.31-0.11C87.43,36.52,86.84,35.51,87.05,34.45
		z"/>
	<path d="M95.79,39.95c0.65,0.36,1.37,0.45,2.08,0.3c0,0,0.13-0.03,0.32-0.08c0.19-0.05,0.44-0.11,0.7-0.15
		c0.25-0.05,0.51-0.09,0.7-0.13c0.19-0.04,0.32-0.05,0.32-0.05c0.36-0.04,0.68-0.16,0.98-0.35c0.3-0.16,0.57-0.4,0.81-0.68
		c0.47-0.57,0.8-1.28,0.81-2.11c0.01-0.81-0.34-1.59-0.96-2.09c-0.31-0.25-0.69-0.45-1.1-0.58c-0.42-0.11-0.87-0.14-1.34-0.08
		c0,0-0.17,0.01-0.42,0.06c-0.25,0.05-0.58,0.11-0.92,0.17c-0.33,0.06-0.67,0.12-0.91,0.19c-0.24,0.06-0.41,0.1-0.41,0.1
		c-0.92,0.21-1.62,0.81-2,1.5c-0.39,0.68-0.44,1.53-0.15,2.29C94.58,39.04,95.14,39.58,95.79,39.95z M96.9,39.29
		c-0.24-0.04-0.47-0.11-0.68-0.23c-0.43-0.24-0.79-0.63-0.97-1.15c-0.17-0.51-0.11-1.05,0.14-1.5c0.13-0.23,0.3-0.44,0.52-0.6
		c0.22-0.16,0.48-0.28,0.77-0.35c0,0,0.16-0.04,0.39-0.1c0.23-0.07,0.55-0.13,0.87-0.18c0.32-0.06,0.64-0.12,0.88-0.16
		c0.24-0.05,0.4-0.06,0.4-0.06c0.6-0.06,1.16,0.07,1.57,0.41c0.41,0.33,0.66,0.81,0.68,1.35c0.02,0.54-0.17,1.04-0.48,1.41
		c-0.31,0.36-0.73,0.66-1.23,0.71c0,0-0.14,0.01-0.34,0.05c-0.2,0.04-0.47,0.09-0.74,0.13c-0.27,0.04-0.54,0.1-0.73,0.15
		c-0.2,0.05-0.33,0.08-0.33,0.08C97.38,39.33,97.14,39.34,96.9,39.29z"/>
	<path d="M103.28,38.83c0.23,0.29,0.5,0.52,0.8,0.69c0.3,0.19,0.63,0.31,0.99,0.35c0,0,0.52,0.09,1.05,0.18
		c0.26,0.05,0.53,0.11,0.73,0.15c0.2,0.05,0.34,0.08,0.34,0.08c1.47,0.35,3.25-0.58,3.58-2.19c0.33-1.6-0.51-3.19-2.27-3.61
		c0,0-0.16-0.04-0.39-0.09c-0.24-0.05-0.56-0.11-0.88-0.18c-0.65-0.12-1.31-0.22-1.31-0.22c-0.46-0.06-0.92-0.03-1.33,0.08
		c-0.42,0.12-0.79,0.32-1.11,0.57c-0.63,0.51-0.98,1.27-0.98,2.08C102.5,37.53,102.82,38.27,103.28,38.83z M105.78,34.98
		c0,0,0.64,0.1,1.27,0.21c0.31,0.06,0.62,0.13,0.86,0.17c0.23,0.05,0.38,0.09,0.38,0.09c1.13,0.26,1.75,1.34,1.5,2.38
		c-0.26,1.05-1.36,1.67-2.36,1.44c0,0-0.14-0.03-0.35-0.08c-0.21-0.04-0.48-0.1-0.75-0.15c-0.55-0.1-1.09-0.18-1.09-0.18
		c-0.98-0.13-1.74-1.05-1.7-2.13C103.56,35.66,104.58,34.82,105.78,34.98z"/>
	<path d="M28.99,43.73c0.37-0.41,0.74-0.82,0.74-0.82c1.03-1.16,0.86-2.94-0.34-3.92c-1.2-0.98-2.91-0.88-3.87,0.2
		c0,0-0.35,0.39-0.7,0.78c-0.35,0.39-0.71,0.77-0.71,0.77c-0.99,1.07-0.9,2.78,0.2,3.87c1.1,1.09,2.89,1.07,3.93-0.06
		C28.24,44.55,28.62,44.14,28.99,43.73z M24.95,43.95c-0.74-0.71-0.79-1.85-0.14-2.56c0,0,0.36-0.39,0.71-0.78
		c0.35-0.39,0.71-0.79,0.71-0.79c0.64-0.72,1.78-0.78,2.56-0.12c0.78,0.66,0.88,1.82,0.22,2.58c0,0-0.37,0.41-0.73,0.82
		c-0.37,0.4-0.74,0.81-0.74,0.81C26.86,44.64,25.69,44.66,24.95,43.95z"/>
	<path d="M33.32,38.53c0,0,0.09-0.12,0.22-0.29c0.13-0.18,0.3-0.42,0.47-0.66c0.31-0.46,0.62-0.91,0.62-0.91
		c0.85-1.26,0.48-2.99-0.82-3.83c-1.3-0.85-3-0.54-3.83,0.68c0,0-0.3,0.43-0.59,0.87c-0.14,0.2-0.28,0.4-0.39,0.55
		c-0.11,0.15-0.19,0.25-0.19,0.25c-0.82,1.11-0.61,2.81,0.58,3.8C30.58,39.98,32.36,39.82,33.32,38.53z M29.97,38.27
		c-0.8-0.64-0.95-1.77-0.39-2.52c0,0,0.08-0.1,0.19-0.26c0.11-0.16,0.26-0.36,0.4-0.57c0.3-0.44,0.6-0.87,0.6-0.87
		c0.55-0.81,1.68-1.01,2.53-0.45c0.85,0.56,1.1,1.7,0.54,2.53c0,0-0.31,0.45-0.62,0.91c-0.16,0.23-0.33,0.47-0.45,0.64
		c-0.13,0.17-0.21,0.28-0.21,0.28C31.94,38.8,30.77,38.92,29.97,38.27z"/>
	<path d="M37.65,32.05c0,0,0.29-0.47,0.58-0.94c0.29-0.48,0.57-0.96,0.57-0.96c0.8-1.33,0.31-3.18-1.12-3.81
		c-1.41-0.62-2.98-0.29-3.71,0.95c0,0-0.27,0.44-0.53,0.89c-0.27,0.44-0.55,0.89-0.55,0.89c-0.77,1.23-0.38,2.92,0.91,3.78
		C35.1,33.69,36.83,33.35,37.65,32.05z M34.31,32.06c-0.86-0.56-1.12-1.67-0.61-2.49c0,0,0.28-0.45,0.56-0.9
		c0.27-0.45,0.54-0.9,0.54-0.9c0.49-0.82,1.57-1.09,2.47-0.61c0.9,0.48,1.23,1.62,0.71,2.5c0,0-0.28,0.47-0.57,0.95
		c-0.29,0.47-0.58,0.93-0.58,0.93C36.3,32.39,35.16,32.62,34.31,32.06z"/>
	<path d="M42.5,44.69c-0.54,0.11-1.08,0.23-1.08,0.23c-1.51,0.32-2.43,1.86-2.04,3.36c0.39,1.5,1.83,2.43,3.24,2.13
		c0,0,0.51-0.11,1.02-0.21c0.51-0.1,1.03-0.2,1.03-0.2c1.43-0.28,2.37-1.71,2.13-3.24c-0.24-1.53-1.7-2.57-3.21-2.28
		C43.58,44.47,43.04,44.58,42.5,44.69z M45.88,46.9c0.18,1.01-0.45,1.96-1.4,2.14c0,0-0.52,0.1-1.04,0.21
		c-0.52,0.11-1.03,0.22-1.03,0.22c-0.94,0.2-1.9-0.42-2.14-1.41c-0.24-0.99,0.36-1.99,1.35-2.21c0,0,0.54-0.11,1.07-0.22
		c0.54-0.11,1.07-0.21,1.07-0.21C44.76,45.22,45.71,45.89,45.88,46.9z"/>
	<path d="M35.93,46.32c0,0-0.14,0.04-0.34,0.11c-0.21,0.07-0.49,0.16-0.76,0.26c-0.52,0.18-1.04,0.37-1.04,0.37
		c-1.43,0.51-2.15,2.13-1.61,3.58c0.54,1.45,2.1,2.21,3.49,1.72c0,0,0.49-0.17,0.99-0.35c0.23-0.08,0.47-0.16,0.64-0.21
		c0.18-0.06,0.3-0.09,0.3-0.09c1.32-0.41,2.15-1.91,1.78-3.41C39,46.77,37.47,45.85,35.93,46.32z M38.48,48.51
		c0.26,0.99-0.28,1.99-1.17,2.26c0,0-0.12,0.04-0.31,0.09c-0.18,0.06-0.42,0.14-0.66,0.22c-0.5,0.18-1,0.35-1,0.35
		c-0.92,0.33-1.95-0.18-2.3-1.14c-0.35-0.96,0.12-2.02,1.06-2.35c0,0,0.52-0.18,1.03-0.36c0.27-0.09,0.54-0.18,0.74-0.25
		c0.2-0.06,0.34-0.1,0.34-0.1C37.2,46.92,38.22,47.52,38.48,48.51z"/>
	<path d="M28.61,48.99c0,0-0.51,0.21-1.03,0.42c-0.52,0.22-1.03,0.43-1.03,0.43c-1.43,0.6-2.13,2.38-1.35,3.74
		c0.76,1.33,2.23,1.99,3.56,1.43c0,0,0.48-0.2,0.96-0.4c0.48-0.2,0.97-0.39,0.97-0.39c1.35-0.54,2.03-2.13,1.5-3.59
		C31.63,49.17,30.04,48.42,28.61,48.99z M31.31,50.95c0.36,0.96-0.09,2.01-0.99,2.37c0,0-0.49,0.2-0.98,0.4
		c-0.48,0.2-0.97,0.41-0.97,0.41c-0.88,0.37-1.91-0.05-2.36-0.97c-0.45-0.92-0.03-2.04,0.91-2.44c0,0,0.51-0.21,1.02-0.43
		c0.51-0.21,1.02-0.41,1.02-0.41C29.89,49.51,30.95,50,31.31,50.95z"/>
</g>
</svg>
