<svg xmlns="http://www.w3.org/2000/svg" xmlns:xlink="http://www.w3.org/1999/xlink" version="1.1" x="0px" y="0px" viewBox="0 0 100 100" enable-background="new 0 0 100 100" xml:space="preserve"><g><path fill="none" d="M37.175,15.841c-0.182,0.458-0.294,0.938-0.339,1.307c-0.027,0.373-0.045,0.621-0.045,0.621   s0.018,0.248,0.045,0.621c0.045,0.369,0.157,0.849,0.339,1.307c0.204,0.447,0.447,0.882,0.688,1.167   c0.231,0.291,0.405,0.47,0.405,0.47s0.179,0.174,0.47,0.405c0.286,0.241,0.72,0.484,1.167,0.688   c0.458,0.182,0.938,0.294,1.307,0.339c0.373,0.027,0.621,0.045,0.621,0.045s0.248-0.018,0.621-0.045   c0.369-0.045,0.849-0.157,1.307-0.339c0.447-0.204,0.882-0.447,1.167-0.688c0.291-0.231,0.47-0.405,0.47-0.405   s0.174-0.179,0.405-0.47c0.241-0.286,0.484-0.72,0.688-1.167c0.182-0.458,0.294-0.938,0.339-1.307   c0.027-0.373,0.045-0.621,0.045-0.621s-0.018-0.248-0.045-0.621c-0.045-0.369-0.157-0.849-0.339-1.307   c-0.204-0.447-0.447-0.882-0.688-1.167c-0.231-0.291-0.405-0.47-0.405-0.47s-0.179-0.174-0.47-0.405   c-0.286-0.241-0.72-0.484-1.167-0.688c-0.458-0.182-0.938-0.294-1.307-0.339c-0.373-0.027-0.621-0.045-0.621-0.045   s-0.248,0.018-0.621,0.045c-0.369,0.045-0.849,0.156-1.307,0.339c-0.447,0.204-0.882,0.447-1.167,0.688   c-0.291,0.231-0.47,0.405-0.47,0.405s-0.174,0.179-0.405,0.47C37.622,14.96,37.38,15.394,37.175,15.841z"></path><path fill="none" d="M60.848,66.834c-0.012-0.411-0.1-0.816-0.202-1.103c-0.111-0.284-0.2-0.463-0.209-0.458   c0,0-0.088-0.182-0.263-0.425c-0.098-0.113-0.195-0.261-0.338-0.387c-0.093-0.081-0.086-0.098-0.257-0.247l-0.485-0.424   c-1.301-1.137-2.602-2.274-2.602-2.274l-5.204-4.548l-5.204-4.548c-0.007,0.01-0.153-0.137-0.408-0.296   c-0.245-0.175-0.612-0.343-1.005-0.441c-0.392-0.102-0.806-0.123-1.114-0.111c-0.153,0.018-0.281,0.033-0.37,0.044   c-0.087,0.021-0.137,0.033-0.137,0.033s-0.201,0.039-0.492,0.133c-0.282,0.114-0.644,0.293-0.957,0.542   c-0.322,0.238-0.578,0.569-0.742,0.818c-0.177,0.245-0.232,0.442-0.245,0.435c0,0-0.365,0.738-0.317,1.577   c0.012,0.411,0.1,0.816,0.202,1.103c0.111,0.284,0.2,0.463,0.209,0.458c0,0,0.088,0.182,0.263,0.425   c0.099,0.113,0.195,0.261,0.338,0.387c0.093,0.081,0.086,0.098,0.257,0.247l0.485,0.424c1.301,1.137,2.602,2.274,2.602,2.274   l5.204,4.548l5.204,4.548c0.007-0.011,0.153,0.137,0.408,0.296c0.245,0.175,0.612,0.343,1.005,0.441   c0.392,0.102,0.805,0.124,1.114,0.111c0.153-0.018,0.281-0.033,0.37-0.044c0.087-0.021,0.137-0.033,0.137-0.033   s0.201-0.039,0.492-0.133c0.282-0.114,0.644-0.293,0.957-0.542c0.323-0.238,0.578-0.569,0.742-0.818   c0.177-0.245,0.232-0.442,0.245-0.435C60.531,68.41,60.896,67.672,60.848,66.834z"></path><path fill="none" d="M26.618,82.035c0.084-0.266,0.141-0.54,0.211-0.792c0.039-0.26,0.074-0.502,0.105-0.71   c0.011-0.423,0.036-0.705,0.036-0.705s-0.025-0.281-0.036-0.704c-0.031-0.208-0.067-0.45-0.105-0.71   c-0.07-0.252-0.127-0.526-0.211-0.792c-0.185-0.526-0.409-1.041-0.634-1.396c-0.206-0.367-0.384-0.586-0.384-0.586   s-0.657-0.929-1.582-1.582c-0.447-0.342-0.951-0.592-1.33-0.77c-0.391-0.149-0.652-0.248-0.652-0.248s-1.066-0.36-2.206-0.352   c-1.141-0.007-2.206,0.352-2.206,0.352s-0.261,0.099-0.652,0.248c-0.379,0.178-0.882,0.428-1.33,0.77   c-0.925,0.653-1.582,1.582-1.582,1.582s-0.178,0.219-0.384,0.586c-0.226,0.355-0.449,0.87-0.634,1.396   c-0.084,0.266-0.141,0.54-0.211,0.792c-0.039,0.26-0.074,0.502-0.105,0.71c-0.011,0.423-0.036,0.704-0.036,0.704   s0.025,0.281,0.036,0.705c0.031,0.208,0.067,0.45,0.105,0.71c0.07,0.252,0.127,0.526,0.211,0.792   c0.185,0.526,0.409,1.041,0.634,1.396c0.206,0.367,0.384,0.586,0.384,0.586s0.657,0.929,1.582,1.582   c0.447,0.342,0.951,0.592,1.33,0.77c0.391,0.149,0.652,0.248,0.652,0.248s1.066,0.36,2.206,0.352   c1.141,0.007,2.206-0.352,2.206-0.352s0.261-0.099,0.652-0.248c0.379-0.178,0.882-0.428,1.33-0.77   c0.925-0.653,1.582-1.582,1.582-1.582s0.178-0.219,0.384-0.586C26.209,83.076,26.433,82.561,26.618,82.035z"></path><path fill="none" d="M87.011,49.541c0.214-0.451,0.366-0.932,0.396-1.309c0.055-0.373,0.041-0.632,0.054-0.63   c-0.013,0.002,0.001-0.257-0.054-0.63c-0.031-0.377-0.183-0.858-0.396-1.309c-0.221-0.447-0.504-0.874-0.781-1.135   c-0.265-0.27-0.462-0.429-0.462-0.429s-0.794-0.669-1.79-0.862c-0.487-0.103-1.001-0.133-1.38-0.096   c-0.375,0.043-0.619,0.096-0.619,0.096s-1.003,0.199-1.79,0.862c-0.396,0.316-0.719,0.708-0.939,1.015   c-0.089,0.167-0.184,0.293-0.232,0.392c-0.046,0.1-0.072,0.156-0.072,0.156s-0.114,0.223-0.238,0.577   c-0.102,0.36-0.205,0.849-0.212,1.362c0.007,0.513,0.111,1.002,0.212,1.362c0.124,0.354,0.238,0.577,0.238,0.577   s0.026,0.057,0.072,0.156c0.048,0.099,0.143,0.225,0.232,0.392c0.219,0.307,0.543,0.699,0.939,1.015   c0.787,0.663,1.79,0.862,1.79,0.862s0.244,0.053,0.619,0.096c0.379,0.037,0.893,0.007,1.38-0.096   c0.996-0.193,1.79-0.862,1.79-0.862s0.197-0.159,0.462-0.429C86.507,50.415,86.79,49.988,87.011,49.541z"></path><path d="M33.694,16.268c-0.025,0.166-0.059,0.387-0.093,0.608c-0.025,0.447-0.05,0.893-0.05,0.893s0.025,0.447,0.05,0.894   c0.034,0.221,0.068,0.442,0.093,0.608c0.02,0.167,0.053,0.274,0.053,0.274l-4.573,0.999c0,0,0.242,1.126,0.684,2.189   c0.441,1.062,1.065,2.026,1.065,2.026l3.94-2.528c0,0,0.051,0.1,0.151,0.235c0.1,0.134,0.234,0.313,0.368,0.492   c0.287,0.342,0.594,0.668,0.594,0.668s0.326,0.307,0.668,0.594c0.179,0.134,0.358,0.268,0.493,0.368   c0.134,0.101,0.235,0.151,0.235,0.151l-2.527,3.94c0,0,0.964,0.624,2.026,1.065c1.063,0.442,2.189,0.684,2.189,0.684l0.999-4.573   c0,0,0.107,0.033,0.274,0.053c0.166,0.025,0.387,0.059,0.608,0.093c0.447,0.025,0.893,0.05,0.893,0.05s0.447-0.025,0.894-0.05   c0.221-0.034,0.442-0.068,0.608-0.093c0.167-0.02,0.274-0.053,0.274-0.053l0.999,4.573c0,0,1.126-0.242,2.189-0.684   c1.062-0.441,2.026-1.065,2.026-1.065l-2.528-3.94c0,0,0.1-0.051,0.235-0.151c0.134-0.1,0.313-0.234,0.492-0.368   c0.342-0.287,0.668-0.594,0.668-0.594s0.307-0.326,0.594-0.668c0.134-0.179,0.268-0.358,0.368-0.493   c0.101-0.134,0.151-0.235,0.151-0.235l3.94,2.527c0,0,0.624-0.964,1.065-2.027c0.442-1.063,0.684-2.189,0.684-2.189l-4.573-0.999   c0,0,0.033-0.107,0.053-0.274c0.025-0.166,0.059-0.387,0.093-0.608c0.025-0.447,0.05-0.893,0.05-0.893s-0.025-0.447-0.05-0.894   c-0.034-0.221-0.068-0.442-0.093-0.608c-0.02-0.167-0.053-0.274-0.053-0.274l4.573-0.999c0,0-0.242-1.126-0.684-2.189   c-0.441-1.062-1.065-2.026-1.065-2.026l-3.94,2.528c0,0-0.051-0.1-0.151-0.235c-0.1-0.134-0.234-0.313-0.368-0.492   c-0.287-0.342-0.594-0.668-0.594-0.668s-0.326-0.307-0.669-0.594c-0.179-0.134-0.358-0.268-0.493-0.368   c-0.134-0.101-0.235-0.151-0.235-0.151l2.527-3.94c0,0-0.964-0.624-2.027-1.065c-1.063-0.442-2.189-0.684-2.189-0.684l-0.999,4.574   c0,0-0.107-0.033-0.274-0.053c-0.166-0.025-0.387-0.059-0.608-0.093c-0.447-0.025-0.893-0.05-0.893-0.05s-0.447,0.025-0.894,0.05   c-0.221,0.034-0.442,0.068-0.608,0.093c-0.167,0.02-0.274,0.053-0.274,0.053l-0.999-4.573c0,0-1.126,0.242-2.189,0.684   c-1.062,0.441-2.026,1.065-2.026,1.065l2.528,3.94c0,0-0.1,0.051-0.235,0.151c-0.134,0.1-0.313,0.234-0.492,0.368   c-0.342,0.287-0.668,0.594-0.668,0.594s-0.307,0.326-0.594,0.668c-0.134,0.179-0.268,0.358-0.368,0.493   c-0.101,0.134-0.151,0.235-0.151,0.235l-3.94-2.527c0,0-0.624,0.964-1.065,2.026c-0.442,1.063-0.684,2.189-0.684,2.189l4.573,0.999   C33.746,15.994,33.713,16.101,33.694,16.268z M38.739,13.799c0.286-0.241,0.72-0.484,1.167-0.688   c0.458-0.182,0.938-0.294,1.307-0.339c0.373-0.027,0.621-0.045,0.621-0.045s0.248,0.018,0.621,0.045   c0.369,0.045,0.849,0.156,1.307,0.339c0.447,0.204,0.882,0.447,1.167,0.688c0.291,0.231,0.47,0.405,0.47,0.405   s0.174,0.179,0.405,0.47c0.241,0.286,0.484,0.72,0.688,1.167c0.182,0.458,0.294,0.938,0.339,1.307   c0.027,0.373,0.045,0.621,0.045,0.621s-0.018,0.248-0.045,0.621c-0.045,0.369-0.157,0.849-0.339,1.307   c-0.204,0.447-0.447,0.882-0.688,1.167c-0.231,0.291-0.405,0.47-0.405,0.47s-0.179,0.174-0.47,0.405   c-0.286,0.241-0.72,0.484-1.167,0.688c-0.458,0.182-0.938,0.294-1.307,0.339c-0.373,0.027-0.621,0.045-0.621,0.045   s-0.248-0.018-0.621-0.045c-0.369-0.045-0.849-0.157-1.307-0.339c-0.447-0.204-0.882-0.447-1.167-0.688   c-0.291-0.231-0.47-0.405-0.47-0.405s-0.174-0.179-0.405-0.47c-0.241-0.286-0.484-0.72-0.688-1.167   c-0.182-0.458-0.294-0.938-0.339-1.307c-0.027-0.373-0.045-0.621-0.045-0.621s0.018-0.248,0.045-0.621   c0.045-0.369,0.157-0.849,0.339-1.307c0.204-0.447,0.447-0.882,0.688-1.167c0.231-0.291,0.405-0.47,0.405-0.47   S38.447,14.03,38.739,13.799z"></path><path d="M30.166,80.725c0.023-0.448,0.046-0.896,0.046-0.896s-0.023-0.448-0.046-0.896c-0.034-0.447-0.119-0.888-0.119-0.888   l4.612-0.8c0,0-0.026-0.266-0.123-0.654c-0.102-0.386-0.216-0.909-0.383-1.415c-0.183-0.5-0.353-1.008-0.52-1.37   c-0.172-0.361-0.287-0.601-0.287-0.601l-4.202,2.062c0.041-0.022-0.879-1.562-0.923-1.533c0.031-0.024-1.134-1.389-1.171-1.355   l3.258-3.361c0,0-0.196-0.179-0.491-0.448c-0.287-0.278-0.708-0.602-1.138-0.916c-0.856-0.631-1.799-1.133-1.799-1.133   l-2.194,4.135c0,0-0.404-0.195-0.807-0.389c-0.421-0.154-0.841-0.308-0.841-0.308s-0.103-0.046-0.268-0.082   c-0.163-0.042-0.38-0.098-0.597-0.153c-0.215-0.066-0.438-0.094-0.604-0.118c-0.166-0.025-0.277-0.042-0.277-0.042l0.654-4.635   c0,0-0.263-0.046-0.659-0.089c-0.397-0.02-0.927-0.046-1.457-0.073c-0.53,0.026-1.06,0.053-1.457,0.073   c-0.396,0.043-0.659,0.089-0.659,0.089l0.654,4.635c0,0-0.111,0.017-0.277,0.042c-0.166,0.024-0.389,0.053-0.604,0.118   c-0.217,0.056-0.434,0.111-0.597,0.153c-0.164,0.036-0.267,0.082-0.267,0.082s-0.421,0.154-0.841,0.309   c-0.404,0.195-0.808,0.389-0.808,0.389l-2.194-4.135c0,0-0.944,0.501-1.799,1.133c-0.43,0.314-0.851,0.638-1.138,0.916   c-0.294,0.269-0.49,0.448-0.49,0.448l3.258,3.361c-0.036-0.034-1.201,1.331-1.17,1.355c-0.044-0.03-0.965,1.511-0.924,1.533   l-4.203-2.062c0,0-0.115,0.24-0.287,0.601c-0.167,0.363-0.337,0.87-0.52,1.37c-0.167,0.506-0.282,1.028-0.383,1.415   C5.026,76.979,5,77.245,5,77.245l4.612,0.8c0,0-0.085,0.441-0.119,0.888c-0.023,0.448-0.046,0.896-0.046,0.896   s0.023,0.448,0.046,0.896c0.034,0.447,0.119,0.888,0.119,0.888L5,82.413c0,0,0.025,0.266,0.123,0.654   c0.101,0.386,0.216,0.909,0.383,1.415c0.183,0.5,0.353,1.008,0.52,1.37c0.172,0.361,0.287,0.601,0.287,0.601l4.202-2.062   c-0.041,0.022,0.879,1.562,0.923,1.533c-0.031,0.024,1.134,1.389,1.171,1.355l-3.258,3.361c0,0,0.196,0.179,0.49,0.448   c0.287,0.278,0.708,0.602,1.138,0.916c0.856,0.631,1.799,1.133,1.799,1.133l2.194-4.135c0,0,0.404,0.195,0.807,0.389   c0.421,0.154,0.841,0.308,0.841,0.308s0.103,0.046,0.268,0.082c0.163,0.042,0.38,0.098,0.597,0.153   c0.215,0.066,0.438,0.094,0.604,0.118c0.166,0.025,0.277,0.042,0.277,0.042l-0.654,4.635c0,0,0.263,0.046,0.659,0.089   c0.397,0.02,0.927,0.046,1.457,0.073c0.53-0.026,1.06-0.053,1.457-0.073c0.396-0.043,0.659-0.089,0.659-0.089l-0.654-4.635   c0,0,0.111-0.017,0.277-0.042c0.166-0.024,0.389-0.053,0.604-0.118c0.217-0.056,0.434-0.111,0.597-0.153   c0.165-0.036,0.267-0.082,0.267-0.082s0.421-0.154,0.841-0.309c0.404-0.195,0.808-0.389,0.808-0.389l2.194,4.135   c0,0,0.944-0.501,1.799-1.133c0.43-0.314,0.851-0.638,1.138-0.916c0.294-0.269,0.49-0.448,0.49-0.448l-3.258-3.361   c0.036,0.034,1.201-1.331,1.17-1.355c0.044,0.03,0.965-1.511,0.924-1.533l4.203,2.062c0,0,0.115-0.24,0.287-0.601   c0.167-0.363,0.337-0.87,0.52-1.37c0.167-0.506,0.282-1.028,0.383-1.415c0.098-0.388,0.123-0.654,0.123-0.654l-4.612-0.8   C30.047,81.613,30.131,81.172,30.166,80.725z M24.018,85.599c-0.447,0.342-0.951,0.592-1.33,0.77   c-0.391,0.149-0.652,0.248-0.652,0.248s-1.066,0.36-2.206,0.352c-1.141,0.007-2.206-0.352-2.206-0.352s-0.261-0.099-0.652-0.248   c-0.379-0.178-0.882-0.428-1.33-0.77c-0.925-0.653-1.582-1.582-1.582-1.582s-0.178-0.219-0.384-0.586   c-0.226-0.355-0.449-0.87-0.634-1.396c-0.084-0.266-0.141-0.54-0.211-0.792c-0.039-0.26-0.074-0.502-0.105-0.71   c-0.011-0.423-0.036-0.705-0.036-0.705s0.025-0.281,0.036-0.704c0.031-0.208,0.067-0.45,0.105-0.71   c0.07-0.252,0.127-0.526,0.211-0.792c0.185-0.526,0.409-1.041,0.634-1.396c0.206-0.367,0.384-0.586,0.384-0.586   s0.657-0.929,1.582-1.582c0.447-0.342,0.951-0.592,1.33-0.77c0.391-0.149,0.652-0.248,0.652-0.248s1.066-0.36,2.206-0.352   c1.141-0.007,2.206,0.352,2.206,0.352s0.261,0.099,0.652,0.248c0.379,0.178,0.882,0.428,1.33,0.77   c0.925,0.653,1.582,1.582,1.582,1.582s0.178,0.219,0.384,0.586c0.226,0.355,0.449,0.87,0.634,1.396   c0.084,0.266,0.141,0.54,0.211,0.792c0.039,0.26,0.074,0.502,0.105,0.71c0.011,0.423,0.036,0.704,0.036,0.704   s-0.025,0.281-0.036,0.705c-0.031,0.208-0.067,0.45-0.105,0.71c-0.07,0.252-0.127,0.526-0.211,0.792   c-0.185,0.526-0.409,1.041-0.634,1.396c-0.206,0.367-0.384,0.586-0.384,0.586S24.942,84.946,24.018,85.599z"></path><path d="M90.46,49.488c0,0,0.03-0.115,0.075-0.288c0.028-0.176,0.065-0.412,0.102-0.647c0.056-0.473,0.065-0.951,0.065-0.951   s-0.009-0.478-0.065-0.951c-0.037-0.235-0.075-0.47-0.103-0.647c-0.045-0.173-0.075-0.288-0.075-0.288L95,44.575   c0,0-0.07-0.307-0.208-0.756c-0.16-0.442-0.356-1.041-0.645-1.599c-0.256-0.574-0.603-1.098-0.847-1.499   c-0.267-0.385-0.46-0.632-0.46-0.632l-3.722,2.839c0,0-0.071-0.096-0.178-0.239c-0.12-0.132-0.281-0.309-0.441-0.485   c-0.342-0.331-0.707-0.638-0.707-0.638s-0.095-0.071-0.239-0.178c-0.139-0.112-0.334-0.249-0.543-0.366   c-0.202-0.126-0.406-0.25-0.571-0.319c-0.161-0.078-0.268-0.129-0.268-0.129l1.938-4.261c0,0-1.141-0.541-2.374-0.801   c-1.226-0.289-2.479-0.305-2.479-0.305l-0.104,4.68c0,0-0.119-0.019-0.298-0.003c-0.179,0.009-0.417,0.021-0.655,0.033   c-0.235,0.036-0.471,0.071-0.648,0.098c-0.178,0.02-0.291,0.061-0.291,0.061s-0.115,0.03-0.288,0.074   c-0.175,0.036-0.403,0.107-0.624,0.197c-0.225,0.079-0.448,0.162-0.605,0.248c-0.161,0.077-0.268,0.129-0.268,0.129l-2.129-4.169   c0,0-1.13,0.56-2.101,1.353c-0.984,0.777-1.787,1.743-1.787,1.743l3.592,3.002c0,0-0.3,0.372-0.561,0.769   c-0.262,0.399-0.463,0.831-0.463,0.831s-0.214,0.426-0.362,0.88c-0.152,0.451-0.254,0.917-0.254,0.917l-4.587-0.934   c0,0-0.247,1.235-0.25,2.485c0.003,1.249,0.25,2.485,0.25,2.485l4.587-0.935c0,0,0.102,0.466,0.254,0.917   c0.148,0.454,0.362,0.88,0.362,0.88s0.201,0.432,0.463,0.832c0.262,0.397,0.561,0.77,0.561,0.77l-3.592,3.002   c0,0,0.802,0.966,1.787,1.743c0.971,0.794,2.101,1.353,2.101,1.353l2.128-4.169c0,0,0.107,0.052,0.268,0.129   c0.157,0.086,0.38,0.169,0.605,0.248c0.221,0.09,0.448,0.16,0.624,0.197c0.173,0.045,0.288,0.074,0.288,0.074   s0.113,0.042,0.291,0.061c0.177,0.027,0.412,0.062,0.648,0.098c0.238,0.012,0.476,0.024,0.655,0.033   c0.179,0.017,0.298-0.003,0.298-0.003l0.104,4.68c0,0,1.253-0.016,2.479-0.305c1.233-0.26,2.374-0.802,2.374-0.802l-1.938-4.261   c0,0,0.107-0.052,0.268-0.129c0.165-0.069,0.369-0.193,0.571-0.319c0.208-0.116,0.403-0.253,0.543-0.366   c0.143-0.107,0.239-0.178,0.239-0.178s0.366-0.306,0.708-0.638c0.16-0.176,0.321-0.353,0.441-0.485   c0.107-0.143,0.178-0.239,0.178-0.239l3.723,2.838c0,0,0.193-0.247,0.46-0.632c0.244-0.401,0.591-0.924,0.847-1.499   c0.29-0.557,0.485-1.157,0.645-1.599C94.93,50.935,95,50.628,95,50.628L90.46,49.488z M83.978,51.967   c-0.487,0.103-1.001,0.133-1.38,0.096c-0.375-0.043-0.619-0.096-0.619-0.096s-1.003-0.199-1.79-0.862   c-0.396-0.316-0.719-0.708-0.939-1.015c-0.089-0.167-0.184-0.293-0.232-0.392c-0.046-0.1-0.072-0.156-0.072-0.156   s-0.114-0.223-0.238-0.577c-0.102-0.36-0.205-0.849-0.212-1.362c0.007-0.513,0.111-1.002,0.212-1.362   c0.124-0.354,0.238-0.577,0.238-0.577s0.026-0.057,0.072-0.156c0.048-0.099,0.143-0.225,0.232-0.392   c0.219-0.307,0.543-0.699,0.939-1.015c0.787-0.663,1.79-0.862,1.79-0.862s0.244-0.053,0.619-0.096   c0.379-0.037,0.893-0.007,1.38,0.096c0.996,0.193,1.79,0.862,1.79,0.862s0.197,0.159,0.462,0.429   c0.277,0.261,0.559,0.688,0.781,1.135c0.214,0.451,0.366,0.932,0.396,1.309c0.055,0.373,0.041,0.632,0.054,0.63   c-0.013-0.002,0.001,0.257-0.054,0.63c-0.031,0.377-0.183,0.858-0.396,1.309c-0.221,0.447-0.504,0.874-0.781,1.135   c-0.265,0.27-0.462,0.429-0.462,0.429S84.974,51.773,83.978,51.967z"></path><path d="M66.169,74.198l-3.61-2.98c0,0,0.066-0.084,0.166-0.211c0.107-0.121,0.223-0.302,0.335-0.484   c0.122-0.177,0.226-0.364,0.292-0.511c0.072-0.144,0.12-0.239,0.12-0.239s0.171-0.393,0.311-0.799   c0.056-0.207,0.113-0.414,0.155-0.569c0.027-0.159,0.045-0.265,0.045-0.265l4.608,0.827c0,0,0.233-1.174,0.176-2.361   c-0.016-1.189-0.309-2.346-0.309-2.346l-4.553,1.089c0,0-0.107-0.416-0.249-0.821c-0.084-0.197-0.168-0.395-0.231-0.543   c-0.077-0.141-0.128-0.235-0.128-0.235s-0.193-0.384-0.45-0.729c-0.112-0.184-0.262-0.339-0.363-0.464   c-0.103-0.123-0.172-0.206-0.172-0.206l3.436-3.18c0.039,0.021-0.969-0.965-1.442-1.347c-0.585-0.512-1.171-1.023-1.171-1.023   l-3.08,3.525l-1.431-1.25l-1.431-1.251l3.08-3.525l-2.342-2.047l-3.08,3.525l-1.431-1.251l-1.431-1.251l3.08-3.525l-2.342-2.047   l-3.08,3.525l-1.431-1.25c0,0-0.328-0.279-0.685-0.517c-0.354-0.244-0.742-0.429-0.742-0.429l2.086-4.191   c0,0-1.068-0.557-2.231-0.833c-1.153-0.312-2.345-0.353-2.345-0.353l-0.209,4.677c0,0-0.43-0.011-0.858,0.015   c-0.213,0.026-0.427,0.052-0.587,0.071c-0.158,0.034-0.263,0.057-0.263,0.057s-0.422,0.083-0.828,0.226   c-0.403,0.147-0.792,0.33-0.792,0.33L38.68,44.84c0,0-1.078,0.528-2.01,1.282c-0.952,0.732-1.696,1.667-1.696,1.667l3.61,2.98   c0,0-0.066,0.084-0.166,0.211c-0.107,0.121-0.223,0.302-0.335,0.484c-0.122,0.177-0.226,0.364-0.292,0.511   c-0.072,0.144-0.12,0.239-0.12,0.239s-0.171,0.393-0.311,0.799c-0.056,0.207-0.113,0.414-0.155,0.569   c-0.027,0.159-0.045,0.265-0.045,0.265l-4.608-0.827c0,0-0.233,1.174-0.176,2.361c0.016,1.189,0.309,2.346,0.309,2.346l4.553-1.089   c0,0,0.107,0.416,0.249,0.821c0.084,0.197,0.168,0.395,0.231,0.543c0.077,0.141,0.128,0.235,0.128,0.235s0.193,0.384,0.45,0.729   c0.112,0.184,0.262,0.339,0.363,0.464c0.103,0.123,0.172,0.206,0.172,0.206l-3.436,3.18c-0.039-0.021,0.969,0.965,1.442,1.347   c0.585,0.512,1.171,1.023,1.171,1.023l3.08-3.525l1.431,1.25l1.431,1.251l-3.08,3.525l2.342,2.047l3.08-3.525l1.431,1.251   l1.431,1.251l-3.08,3.525l2.342,2.047l3.08-3.525l1.431,1.251c0,0,0.328,0.279,0.685,0.517c0.354,0.244,0.742,0.429,0.742,0.429   l-2.086,4.191c0,0,1.068,0.557,2.231,0.833c1.153,0.312,2.345,0.353,2.345,0.353l0.209-4.677c0,0,0.43,0.011,0.859-0.015   c0.213-0.026,0.427-0.051,0.587-0.071c0.157-0.034,0.263-0.057,0.263-0.057s0.422-0.083,0.828-0.226   c0.403-0.147,0.792-0.33,0.792-0.33l2.083,4.192c0,0,1.078-0.528,2.01-1.282C65.425,75.133,66.169,74.198,66.169,74.198z    M60.286,68.846c-0.164,0.249-0.42,0.58-0.742,0.818c-0.314,0.249-0.675,0.428-0.957,0.542c-0.291,0.094-0.492,0.133-0.492,0.133   s-0.05,0.012-0.137,0.033c-0.089,0.011-0.217,0.026-0.37,0.044c-0.308,0.013-0.722-0.009-1.114-0.111   c-0.393-0.097-0.76-0.265-1.005-0.441c-0.255-0.159-0.401-0.307-0.408-0.296l-5.204-4.548l-5.204-4.548   c0,0-1.301-1.137-2.602-2.274l-0.485-0.424c-0.172-0.149-0.165-0.166-0.257-0.247c-0.144-0.125-0.24-0.274-0.338-0.387   c-0.175-0.244-0.263-0.425-0.263-0.425c-0.008,0.004-0.098-0.175-0.209-0.458c-0.102-0.287-0.19-0.692-0.202-1.103   c-0.048-0.838,0.317-1.577,0.317-1.577c0.013,0.007,0.068-0.191,0.245-0.435c0.164-0.249,0.42-0.58,0.742-0.818   c0.314-0.249,0.675-0.428,0.957-0.542c0.291-0.094,0.492-0.133,0.492-0.133s0.05-0.012,0.137-0.033   c0.089-0.011,0.217-0.026,0.37-0.044c0.308-0.013,0.722,0.009,1.114,0.111c0.393,0.097,0.76,0.265,1.005,0.441   c0.255,0.159,0.401,0.307,0.408,0.296l5.204,4.548l5.204,4.548c0,0,1.301,1.137,2.602,2.274l0.485,0.424   c0.172,0.149,0.165,0.166,0.257,0.247c0.144,0.125,0.24,0.274,0.338,0.387c0.175,0.244,0.263,0.425,0.263,0.425   c0.008-0.004,0.098,0.175,0.209,0.458c0.102,0.287,0.19,0.692,0.202,1.103c0.048,0.838-0.317,1.577-0.317,1.577   C60.518,68.403,60.463,68.601,60.286,68.846z"></path><circle cx="68.042" cy="85.772" r="3.074"></circle><circle cx="78.959" cy="17.769" r="4.722"></circle><circle cx="21.424" cy="53.502" r="5.513"></circle><circle cx="30.931" cy="36.216" r="3.074"></circle><circle cx="47.778" cy="85.772" r="4.722"></circle><circle cx="77" cy="68.727" r="4.722"></circle><path d="M86.171,94.344c-4.869,0-8.829-3.961-8.829-8.829c0-4.869,3.961-8.829,8.829-8.829S95,80.646,95,85.515   C95,90.383,91.039,94.344,86.171,94.344z M86.171,78.846c-3.677,0-6.668,2.992-6.668,6.668c0,3.677,2.992,6.668,6.668,6.668   s6.668-2.992,6.668-6.668C92.839,81.838,89.848,78.846,86.171,78.846z"></path><path d="M12.689,29.202c-3.77,0-6.836-3.067-6.836-6.836s3.067-6.836,6.836-6.836c3.769,0,6.836,3.067,6.836,6.836   S16.458,29.202,12.689,29.202z M12.689,17.691c-2.578,0-4.675,2.097-4.675,4.675s2.097,4.675,4.675,4.675s4.675-2.097,4.675-4.675   S15.267,17.691,12.689,17.691z"></path><path d="M59.181,44.987c-3.438,0-6.236-2.797-6.236-6.236c0-3.438,2.797-6.236,6.236-6.236c3.439,0,6.236,2.797,6.236,6.236   C65.417,42.19,62.62,44.987,59.181,44.987z M59.181,34.676c-2.247,0-4.075,1.828-4.075,4.075s1.828,4.076,4.075,4.076   s4.076-1.828,4.076-4.076S61.428,34.676,59.181,34.676z"></path></g></svg>